0
SECTION
2
HEADER
9
$INSUNITS
70
4
9
$ACADVER
1
AC1014
9
$HANDSEED
5
FFFF
0
ENDSEC
0
SECTION
2
TABLES
0
TABLE
2
VPORT
5
8
100
AcDbSymbolTable
0
ENDTAB
0
TABLE
2
LTYPE
5
5
100
AcDbSymbolTable
0
LTYPE
5
14
100
AcDbSymbolTableRecord
100
AcDbLinetypeTableRecord
2
BYBLOCK
70
0
0
LTYPE
5
15
100
AcDbSymbolTableRecord
100
AcDbLinetypeTableRecord
2
BYLAYER
70
0
0
LTYPE
5
16
100
AcDbSymbolTableRecord
100
AcDbLinetypeTableRecord
2
DASHED
70
0
3
Dashed __ __ __ __ __ __ __ __ __ __ __ __ __ _
72
65
73
2
40
0.75
49
0.5
74
0
49
-0.25
74
0
0
ENDTAB
0
TABLE
2
LAYER
5
2
100
AcDbSymbolTable
70
3
0
LAYER
5
50
100
AcDbSymbolTableRecord
100
AcDbLayerTableRecord
2
1
70
0
62
7
6
DASHED
0
LAYER
5
51
100
AcDbSymbolTableRecord
100
AcDbLayerTableRecord
2
0
70
0
62
7
6
CONTINUOUS
0
ENDTAB
0
TABLE
2
STYLE
5
3
100
AcDbSymbolTable
70
1
0
STYLE
5
11
100
AcDbSymbolTableRecord
100
AcDbTextStyleTableRecord
2
STANDARD
70
0
0
ENDTAB
0
TABLE
2
VIEW
5
6
100
AcDbSymbolTable
70
0
0
ENDTAB
0
TABLE
2
UCS
5
7
100
AcDbSymbolTable
70
0
0
ENDTAB
0
TABLE
2
APPID
5
9
100
AcDbSymbolTable
70
2
0
APPID
5
12
100
AcDbSymbolTableRecord
100
AcDbRegAppTableRecord
2
ACAD
70
0
0
ENDTAB
0
TABLE
2
DIMSTYLE
5
A
100
AcDbSymbolTable
70
1
0
ENDTAB
0
TABLE
2
BLOCK_RECORD
5
1
100
AcDbSymbolTable
70
1
0
BLOCK_RECORD
5
1F
100
AcDbSymbolTableRecord
100
AcDbBlockTableRecord
2
*MODEL_SPACE
0
BLOCK_RECORD
5
1B
100
AcDbSymbolTableRecord
100
AcDbBlockTableRecord
2
*PAPER_SPACE
0
ENDTAB
0
ENDSEC
0
SECTION
2
BLOCKS
0
BLOCK
5
20
100
AcDbEntity
100
AcDbBlockBegin
2
*MODEL_SPACE
0
ENDBLK
5
21
100
AcDbEntity
100
AcDbBlockEnd
0
BLOCK
5
1C
100
AcDbEntity
100
AcDbBlockBegin
2
*PAPER_SPACE
0
ENDBLK
5
1D
100
AcDbEntity
100
AcDbBlockEnd
0
ENDSEC
0
SECTION
2
ENTITIES
0
LWPOLYLINE
5
100
100
AcDbEntity
8
0
100
AcDbPolyline
90
8
70
1
43
0.0
10
5.0259226666999988
20
38.927802666700003
10
5.0259226666999988
20
35.407924666699998
10
2.096007999999999
20
35.407924666699998
10
2.0960079999999994
20
38.927802666700003
10
5.0259226666999988
20
38.927802666700003
10
5.0259226666999988
20
35.407924666699998
10
2.096007999999999
20
35.407924666699998
10
2.0960079999999994
20
38.927802666700003
0
LWPOLYLINE
5
101
100
AcDbEntity
8
0
100
AcDbPolyline
90
4
70
1
43
0.0
10
4.0109526666999979
20
36.417862666700003
10
2.4609526666999977
20
36.417862666700003
10
2.4609526666999981
20
37.917862666700003
10
4.0109526666999979
20
37.917862666700003
0
LWPOLYLINE
5
102
100
AcDbEntity
8
0
100
AcDbPolyline
90
2
70
1
43
0.0
10
42.700000000000003
20
2.6869999999999994
42
0.99999999999999989
10
42.700000000000003
20
5.1869999999999994
42
-0.99999999999999989
0
LWPOLYLINE
5
103
100
AcDbEntity
8
0
100
AcDbPolyline
90
2
70
1
43
0.0
10
42.700000000000003
20
2.6869999999999994
42
0.99999999999999989
10
42.700000000000003
20
5.1869999999999994
42
0.99999999999999989
0
LWPOLYLINE
5
104
100
AcDbEntity
8
0
100
AcDbPolyline
90
2
70
1
43
0.0
10
42.700000000000003
20
5.1869999999999994
42
0.99999999999999989
10
42.700000000000003
20
2.6869999999999994
42
-0.99999999999999989
0
LWPOLYLINE
5
105
100
AcDbEntity
8
0
100
AcDbPolyline
90
2
70
1
43
0.0
10
31.270000000000003
20
5.588000000000001
42
0.99999999999999989
10
31.270000000000003
20
4.8260000000000005
42
0.99999999999999989
0
LWPOLYLINE
5
106
100
AcDbEntity
8
0
100
AcDbPolyline
90
2
70
1
43
0.0
10
33.810000000000002
20
5.588000000000001
42
0.99999999999999989
10
33.810000000000002
20
4.8260000000000005
42
-0.99999999999999989
0
LWPOLYLINE
5
107
100
AcDbEntity
8
0
100
AcDbPolyline
90
2
70
1
43
0.0
10
33.810000000000002
20
3.0480000000000009
42
0.99999999999999989
10
33.810000000000002
20
2.2860000000000005
42
0.99999999999999989
0
LWPOLYLINE
5
108
100
AcDbEntity
8
0
100
AcDbPolyline
90
2
70
1
43
0.0
10
31.270000000000003
20
5.588000000000001
42
0.99999999999999989
10
31.270000000000003
20
4.8260000000000005
42
0.99999999999999989
0
LWPOLYLINE
5
109
100
AcDbEntity
8
0
100
AcDbPolyline
90
2
70
1
43
0.0
10
33.810000000000002
20
3.0480000000000009
42
0.99999999999999989
10
33.810000000000002
20
2.2860000000000005
42
0.99999999999999989
0
LWPOLYLINE
5
110
100
AcDbEntity
8
0
100
AcDbPolyline
90
2
70
1
43
0.0
10
36.350000000000009
20
2.2860000000000005
42
0.99999999999999989
10
36.350000000000009
20
3.0480000000000009
42
0.99999999999999989
0
LWPOLYLINE
5
111
100
AcDbEntity
8
0
100
AcDbPolyline
90
2
70
1
43
0.0
10
33.810000000000002
20
4.8260000000000005
42
0.99999999999999989
10
33.810000000000002
20
5.588000000000001
42
-0.99999999999999989
0
LWPOLYLINE
5
112
100
AcDbEntity
8
0
100
AcDbPolyline
90
2
70
1
43
0.0
10
36.350000000000009
20
2.2860000000000005
42
0.99999999999999989
10
36.350000000000009
20
3.0480000000000009
42
0.99999999999999989
0
LWPOLYLINE
5
113
100
AcDbEntity
8
0
100
AcDbPolyline
90
2
70
1
43
0.0
10
36.350000000000009
20
4.8260000000000005
42
0.99999999999999989
10
36.350000000000009
20
5.588000000000001
42
0.99999999999999989
0
LWPOLYLINE
5
114
100
AcDbEntity
8
0
100
AcDbPolyline
90
2
70
1
43
0.0
10
38.890000000000001
20
3.0480000000000009
42
0.99999999999999989
10
38.890000000000001
20
2.2860000000000005
42
-0.99999999999999989
0
LWPOLYLINE
5
115
100
AcDbEntity
8
0
100
AcDbPolyline
90
2
70
1
43
0.0
10
38.890000000000001
20
2.2860000000000005
42
0.99999999999999989
10
38.890000000000001
20
3.0480000000000009
42
-0.99999999999999989
0
LWPOLYLINE
5
116
100
AcDbEntity
8
0
100
AcDbPolyline
90
2
70
1
43
0.0
10
38.890000000000001
20
5.588000000000001
42
0.99999999999999989
10
38.890000000000001
20
4.8260000000000005
42
0.99999999999999989
0
LWPOLYLINE
5
117
100
AcDbEntity
8
0
100
AcDbPolyline
90
4
70
1
43
0.0
10
18.021000000000001
20
20.978999999999996
10
3.8210000000000033
20
20.978999999999999
10
3.820999999999998
20
6.9790000000000028
10
18.020999999999994
20
6.9789999999999974
0
LWPOLYLINE
5
118
100
AcDbEntity
8
0
100
AcDbPolyline
90
2
70
1
43
0.0
10
36.350000000000009
20
5.588000000000001
42
0.99999999999999989
10
36.350000000000009
20
4.8260000000000005
42
0.99999999999999989
0
LWPOLYLINE
5
119
100
AcDbEntity
8
0
100
AcDbPolyline
90
2
70
1
43
0.0
10
38.890000000000001
20
5.588000000000001
42
0.99999999999999989
10
38.890000000000001
20
4.8260000000000005
42
0.99999999999999989
0
LINE
5
120
100
AcDbEntity
8
0
100
AcDbLine
10
49.979012000000004
20
26.51700000000001
30
0
11
28.785399999999996
21
26.516999999999999
31
0
0
LINE
5
121
100
AcDbEntity
8
0
100
AcDbLine
10
28.760000000000009
20
10.587009999999994
30
0
11
50.010000000000012
21
10.587010000000003
31
0
0
LINE
5
122
100
AcDbEntity
8
0
100
AcDbLine
10
28.760000000000005
20
26.491599999999998
30
0
11
28.760000000000009
21
10.587009999999994
31
0
0
LINE
5
123
100
AcDbEntity
8
0
100
AcDbLine
10
50.010000000000012
20
10.587010000000003
30
0
11
50.010000000000005
21
26.486012000000009
31
0
0
LWPOLYLINE
5
124
100
AcDbEntity
8
0
100
AcDbPolyline
90
4
70
1
43
0.0
10
7.1400000000000006
20
39.496999999999993
10
7.1400000000000006
20
44.576999999999991
10
40.159999999999997
20
44.576999999999991
10
40.159999999999997
20
39.496999999999993
0
LWPOLYLINE
5
125
100
AcDbEntity
8
0
100
AcDbPolyline
90
2
70
1
43
0.0
10
10.950000000000003
20
41.147999999999989
42
0.99999999999999989
10
10.950000000000003
20
40.385999999999989
42
-0.99999999999999989
0
LWPOLYLINE
5
126
100
AcDbEntity
8
0
100
AcDbPolyline
90
2
70
1
43
0.0
10
10.950000000000003
20
40.385999999999989
42
0.99999999999999989
10
10.950000000000003
20
41.147999999999989
42
-0.99999999999999989
0
LWPOLYLINE
5
127
100
AcDbEntity
8
0
100
AcDbPolyline
90
2
70
1
43
0.0
10
8.6600000000000001
20
40.766999999999989
42
0.99999999999999989
10
8.1600000000000001
20
40.766999999999989
42
0.99999999999999989
0
LWPOLYLINE
5
128
100
AcDbEntity
8
0
100
AcDbPolyline
90
2
70
1
43
0.0
10
8.4100000000000001
20
43.687999999999995
42
0.99999999999999989
10
8.4100000000000001
20
42.925999999999995
42
0.99999999999999989
0
LWPOLYLINE
5
129
100
AcDbEntity
8
0
100
AcDbPolyline
90
2
70
1
43
0.0
10
8.6600000000000001
20
40.766999999999989
42
0.99999999999999989
10
8.1600000000000001
20
40.766999999999989
42
-0.99999999999999989
0
LWPOLYLINE
5
130
100
AcDbEntity
8
0
100
AcDbPolyline
90
2
70
1
43
0.0
10
8.6600000000000001
20
40.766999999999989
42
0.99999999999999989
10
8.1600000000000001
20
40.766999999999989
42
-0.99999999999999989
0
LWPOLYLINE
5
131
100
AcDbEntity
8
0
100
AcDbPolyline
90
2
70
1
43
0.0
10
8.1600000000000001
20
40.766999999999989
42
0.99999999999999989
10
8.6600000000000001
20
40.766999999999989
42
-0.99999999999999989
0
LWPOLYLINE
5
132
100
AcDbEntity
8
0
100
AcDbPolyline
90
2
70
1
43
0.0
10
8.1600000000000001
20
40.766999999999989
42
0.99999999999999989
10
8.6600000000000001
20
40.766999999999989
42
-0.99999999999999989
0
LWPOLYLINE
5
133
100
AcDbEntity
8
0
100
AcDbPolyline
90
2
70
1
43
0.0
10
8.6600000000000001
20
40.766999999999989
42
0.99999999999999989
10
8.1600000000000001
20
40.766999999999989
42
0.99999999999999989
0
LWPOLYLINE
5
134
100
AcDbEntity
8
0
100
AcDbPolyline
90
2
70
1
43
0.0
10
8.4100000000000001
20
42.925999999999995
42
0.99999999999999989
10
8.4100000000000001
20
43.687999999999995
42
0.99999999999999989
0
LWPOLYLINE
5
135
100
AcDbEntity
8
0
100
AcDbPolyline
90
2
70
1
43
0.0
10
13.490000000000002
20
42.925999999999995
42
0.99999999999999989
10
13.490000000000002
20
43.687999999999995
42
0.99999999999999989
0
LWPOLYLINE
5
136
100
AcDbEntity
8
0
100
AcDbPolyline
90
2
70
1
43
0.0
10
13.490000000000002
20
43.687999999999995
42
0.99999999999999989
10
13.490000000000002
20
42.925999999999995
42
0.99999999999999989
0
LWPOLYLINE
5
137
100
AcDbEntity
8
0
100
AcDbPolyline
90
2
70
1
43
0.0
10
16.030000000000001
20
40.385999999999989
42
0.99999999999999989
10
16.030000000000001
20
41.147999999999989
42
0.99999999999999989
0
LWPOLYLINE
5
138
100
AcDbEntity
8
0
100
AcDbPolyline
90
2
70
1
43
0.0
10
16.030000000000001
20
40.385999999999989
42
0.99999999999999989
10
16.030000000000001
20
41.147999999999989
42
0.99999999999999989
0
LWPOLYLINE
5
139
100
AcDbEntity
8
0
100
AcDbPolyline
90
2
70
1
43
0.0
10
18.57
20
40.385999999999989
42
0.99999999999999989
10
18.57
20
41.147999999999989
42
-0.99999999999999989
0
LWPOLYLINE
5
140
100
AcDbEntity
8
0
100
AcDbPolyline
90
2
70
1
43
0.0
10
16.030000000000001
20
42.925999999999995
42
0.99999999999999989
10
16.030000000000001
20
43.687999999999995
42
0.99999999999999989
0
LWPOLYLINE
5
141
100
AcDbEntity
8
0
100
AcDbPolyline
90
2
70
1
43
0.0
10
18.57
20
41.147999999999989
42
0.99999999999999989
10
18.57
20
40.385999999999989
42
-0.99999999999999989
0
LWPOLYLINE
5
142
100
AcDbEntity
8
0
100
AcDbPolyline
90
2
70
1
43
0.0
10
16.030000000000001
20
43.687999999999995
42
0.99999999999999989
10
16.030000000000001
20
42.925999999999995
42
0.99999999999999989
0
LWPOLYLINE
5
143
100
AcDbEntity
8
0
100
AcDbPolyline
90
2
70
1
43
0.0
10
10.950000000000003
20
42.925999999999995
42
0.99999999999999989
10
10.950000000000003
20
43.687999999999995
42
0.99999999999999989
0
LWPOLYLINE
5
144
100
AcDbEntity
8
0
100
AcDbPolyline
90
2
70
1
43
0.0
10
13.490000000000002
20
40.385999999999989
42
0.99999999999999989
10
13.490000000000002
20
41.147999999999989
42
0.99999999999999989
0
LWPOLYLINE
5
145
100
AcDbEntity
8
0
100
AcDbPolyline
90
2
70
1
43
0.0
10
10.950000000000003
20
43.687999999999995
42
0.99999999999999989
10
10.950000000000003
20
42.925999999999995
42
0.99999999999999989
0
LWPOLYLINE
5
146
100
AcDbEntity
8
0
100
AcDbPolyline
90
2
70
1
43
0.0
10
13.490000000000002
20
41.147999999999989
42
0.99999999999999989
10
13.490000000000002
20
40.385999999999989
42
0.99999999999999989
0
LWPOLYLINE
5
147
100
AcDbEntity
8
0
100
AcDbPolyline
90
2
70
1
43
0.0
10
26.190000000000001
20
42.925999999999995
42
0.99999999999999989
10
26.190000000000001
20
43.687999999999995
42
0.99999999999999989
0
LWPOLYLINE
5
148
100
AcDbEntity
8
0
100
AcDbPolyline
90
2
70
1
43
0.0
10
28.730000000000004
20
41.147999999999989
42
0.99999999999999989
10
28.730000000000004
20
40.385999999999989
42
0.99999999999999989
0
LWPOLYLINE
5
149
100
AcDbEntity
8
0
100
AcDbPolyline
90
2
70
1
43
0.0
10
26.190000000000001
20
42.925999999999995
42
0.99999999999999989
10
26.190000000000001
20
43.687999999999995
42
0.99999999999999989
0
LWPOLYLINE
5
150
100
AcDbEntity
8
0
100
AcDbPolyline
90
2
70
1
43
0.0
10
26.190000000000001
20
40.385999999999989
42
0.99999999999999989
10
26.190000000000001
20
41.147999999999989
42
0.99999999999999989
0
LWPOLYLINE
5
151
100
AcDbEntity
8
0
100
AcDbPolyline
90
2
70
1
43
0.0
10
28.730000000000004
20
41.147999999999989
42
0.99999999999999989
10
28.730000000000004
20
40.385999999999989
42
0.99999999999999989
0
LWPOLYLINE
5
152
100
AcDbEntity
8
0
100
AcDbPolyline
90
2
70
1
43
0.0
10
31.270000000000003
20
41.147999999999989
42
0.99999999999999989
10
31.270000000000003
20
40.385999999999989
42
0.99999999999999989
0
LWPOLYLINE
5
153
100
AcDbEntity
8
0
100
AcDbPolyline
90
2
70
1
43
0.0
10
28.730000000000004
20
43.687999999999995
42
0.99999999999999989
10
28.730000000000004
20
42.925999999999995
42
0.99999999999999989
0
LWPOLYLINE
5
154
100
AcDbEntity
8
0
100
AcDbPolyline
90
2
70
1
43
0.0
10
28.730000000000004
20
43.687999999999995
42
0.99999999999999989
10
28.730000000000004
20
42.925999999999995
42
0.99999999999999989
0
LWPOLYLINE
5
155
100
AcDbEntity
8
0
100
AcDbPolyline
90
2
70
1
43
0.0
10
26.190000000000001
20
41.147999999999989
42
0.99999999999999989
10
26.190000000000001
20
40.385999999999989
42
0.99999999999999989
0
LWPOLYLINE
5
156
100
AcDbEntity
8
0
100
AcDbPolyline
90
2
70
1
43
0.0
10
33.810000000000002
20
41.147999999999989
42
0.99999999999999989
10
33.810000000000002
20
40.385999999999989
42
-0.99999999999999989
0
LWPOLYLINE
5
157
100
AcDbEntity
8
0
100
AcDbPolyline
90
2
70
1
43
0.0
10
31.270000000000003
20
43.687999999999995
42
0.99999999999999989
10
31.270000000000003
20
42.925999999999995
42
0.99999999999999989
0
LWPOLYLINE
5
158
100
AcDbEntity
8
0
100
AcDbPolyline
90
2
70
1
43
0.0
10
36.350000000000009
20
41.147999999999989
42
0.99999999999999989
10
36.350000000000009
20
40.385999999999989
42
0.99999999999999989
0
LWPOLYLINE
5
159
100
AcDbEntity
8
0
100
AcDbPolyline
90
2
70
1
43
0.0
10
38.890000000000001
20
42.925999999999995
42
0.99999999999999989
10
38.890000000000001
20
43.687999999999995
42
-0.99999999999999989
0
LWPOLYLINE
5
160
100
AcDbEntity
8
0
100
AcDbPolyline
90
4
70
1
43
0.0
10
4.7409393333000018
20
11.635138000000001
10
4.7409393333000001
20
7.1350206667000009
10
2.3408940000000005
20
7.1350206667000009
10
2.3408940000000014
20
11.635138000000001
0
LWPOLYLINE
5
161
100
AcDbEntity
8
0
100
AcDbPolyline
90
2
70
1
43
0.0
10
36.350000000000009
20
42.925999999999995
42
0.99999999999999989
10
36.350000000000009
20
43.687999999999995
42
0.99999999999999989
0
LWPOLYLINE
5
162
100
AcDbEntity
8
0
100
AcDbPolyline
90
2
70
1
43
0.0
10
33.810000000000002
20
43.687999999999995
42
0.99999999999999989
10
33.810000000000002
20
42.925999999999995
42
0.99999999999999989
0
LWPOLYLINE
5
163
100
AcDbEntity
8
0
100
AcDbPolyline
90
2
70
1
43
0.0
10
33.810000000000002
20
40.385999999999989
42
0.99999999999999989
10
33.810000000000002
20
41.147999999999989
42
-0.99999999999999989
0
LWPOLYLINE
5
164
100
AcDbEntity
8
0
100
AcDbPolyline
90
2
70
1
43
0.0
10
31.270000000000003
20
42.925999999999995
42
0.99999999999999989
10
31.270000000000003
20
43.687999999999995
42
0.99999999999999989
0
LWPOLYLINE
5
165
100
AcDbEntity
8
0
100
AcDbPolyline
90
2
70
1
43
0.0
10
38.890000000000001
20
40.385999999999989
42
0.99999999999999989
10
38.890000000000001
20
41.147999999999989
42
0.99999999999999989
0
LWPOLYLINE
5
166
100
AcDbEntity
8
0
100
AcDbPolyline
90
2
70
1
43
0.0
10
31.270000000000003
20
41.147999999999989
42
0.99999999999999989
10
31.270000000000003
20
40.385999999999989
42
0.99999999999999989
0
LWPOLYLINE
5
167
100
AcDbEntity
8
0
100
AcDbPolyline
90
2
70
1
43
0.0
10
33.810000000000002
20
42.925999999999995
42
0.99999999999999989
10
33.810000000000002
20
43.687999999999995
42
0.99999999999999989
0
LWPOLYLINE
5
168
100
AcDbEntity
8
0
100
AcDbPolyline
90
2
70
1
43
0.0
10
36.350000000000009
20
42.925999999999995
42
0.99999999999999989
10
36.350000000000009
20
43.687999999999995
42
0.99999999999999989
0
LWPOLYLINE
5
169
100
AcDbEntity
8
0
100
AcDbPolyline
90
2
70
1
43
0.0
10
38.890000000000001
20
43.687999999999995
42
0.99999999999999989
10
38.890000000000001
20
42.925999999999995
42
-0.99999999999999989
0
LWPOLYLINE
5
170
100
AcDbEntity
8
0
100
AcDbPolyline
90
2
70
1
43
0.0
10
38.890000000000001
20
41.147999999999989
42
0.99999999999999989
10
38.890000000000001
20
40.385999999999989
42
0.99999999999999989
0
LINE
5
171
100
AcDbEntity
8
0
100
AcDbLine
10
1.5410480000000004
20
8.3849546667000006
30
0
11
1.5410480000000006
21
10.384950000000002
31
0
0
LWPOLYLINE
5
172
100
AcDbEntity
8
0
100
AcDbPolyline
90
4
70
1
43
0.0
10
5.0909513332999996
20
6.3379680000000027
10
1.5410479999999993
20
6.3379680000000036
10
1.5410480000000013
20
12.438032
10
5.0909513333000014
20
12.438032
0
LWPOLYLINE
5
173
100
AcDbEntity
8
0
100
AcDbPolyline
90
2
70
1
43
0.0
10
36.350000000000009
20
40.385999999999989
42
0.99999999999999989
10
36.350000000000009
20
41.147999999999989
42
0.99999999999999989
0
LWPOLYLINE
5
174
100
AcDbEntity
8
0
100
AcDbPolyline
90
4
70
1
43
0.0
10
45.292000000000002
20
9.3550000000000004
10
35.132000000000005
20
9.3550000000000004
10
35.132000000000005
20
6.8150000000000013
10
45.292000000000002
20
6.8150000000000013
0
LWPOLYLINE
5
175
100
AcDbEntity
8
0
100
AcDbPolyline
90
2
70
1
43
0.0
10
36.402000000000001
20
8.4600000000000009
42
0.99999999999999989
10
36.402000000000001
20
7.7100000000000009
42
0.99999999999999989
0
LWPOLYLINE
5
176
100
AcDbEntity
8
0
100
AcDbPolyline
90
2
70
1
43
0.0
10
18.57
20
43.687999999999995
42
0.99999999999999989
10
18.57
20
42.925999999999995
42
0.99999999999999989
0
LWPOLYLINE
5
177
100
AcDbEntity
8
0
100
AcDbPolyline
90
2
70
1
43
0.0
10
21.110000000000003
20
40.385999999999989
42
0.99999999999999989
10
21.110000000000003
20
41.147999999999989
42
-0.99999999999999989
0
LWPOLYLINE
5
178
100
AcDbEntity
8
0
100
AcDbPolyline
90
2
70
1
43
0.0
10
18.57
20
43.687999999999995
42
0.99999999999999989
10
18.57
20
42.925999999999995
42
0.99999999999999989
0
LWPOLYLINE
5
179
100
AcDbEntity
8
0
100
AcDbPolyline
90
2
70
1
43
0.0
10
21.110000000000003
20
42.925999999999995
42
0.99999999999999989
10
21.110000000000003
20
43.687999999999995
42
0.99999999999999989
0
LWPOLYLINE
5
180
100
AcDbEntity
8
0
100
AcDbPolyline
90
2
70
1
43
0.0
10
21.110000000000003
20
41.147999999999989
42
0.99999999999999989
10
21.110000000000003
20
40.385999999999989
42
-0.99999999999999989
0
LWPOLYLINE
5
181
100
AcDbEntity
8
0
100
AcDbPolyline
90
2
70
1
43
0.0
10
21.110000000000003
20
43.687999999999995
42
0.99999999999999989
10
21.110000000000003
20
42.925999999999995
42
0.99999999999999989
0
LWPOLYLINE
5
182
100
AcDbEntity
8
0
100
AcDbPolyline
90
2
70
1
43
0.0
10
4.5999999999999979
20
43.287000000000006
42
0.99999999999999989
10
4.5999999999999979
20
40.787000000000006
42
-0.99999999999999989
0
LWPOLYLINE
5
183
100
AcDbEntity
8
0
100
AcDbPolyline
90
2
70
1
43
0.0
10
4.5999999999999979
20
5.1869999999999994
42
0.99999999999999989
10
4.5999999999999979
20
2.6869999999999994
42
0.99999999999999989
0
LWPOLYLINE
5
184
100
AcDbEntity
8
0
100
AcDbPolyline
90
2
70
1
43
0.0
10
4.5999999999999979
20
43.287000000000006
42
0.99999999999999989
10
4.5999999999999979
20
40.787000000000006
42
0.99999999999999989
0
LWPOLYLINE
5
185
100
AcDbEntity
8
0
100
AcDbPolyline
90
2
70
1
43
0.0
10
4.5999999999999979
20
5.1869999999999994
42
0.99999999999999989
10
4.5999999999999979
20
2.6869999999999994
42
0.99999999999999989
0
LWPOLYLINE
5
186
100
AcDbEntity
8
0
100
AcDbPolyline
90
2
70
1
43
0.0
10
4.5999999999999979
20
2.6869999999999994
42
0.99999999999999989
10
4.5999999999999979
20
5.1869999999999994
42
0.99999999999999989
0
LWPOLYLINE
5
187
100
AcDbEntity
8
0
100
AcDbPolyline
90
2
70
1
43
0.0
10
4.5999999999999979
20
40.787000000000006
42
0.99999999999999989
10
4.5999999999999979
20
43.287000000000006
42
-0.99999999999999989
0
LWPOLYLINE
5
188
100
AcDbEntity
8
0
100
AcDbPolyline
90
2
70
1
43
0.0
10
42.700000000000003
20
40.787000000000006
42
0.99999999999999989
10
42.700000000000003
20
43.287000000000006
42
-0.99999999999999989
0
LWPOLYLINE
5
189
100
AcDbEntity
8
0
100
AcDbPolyline
90
2
70
1
43
0.0
10
42.700000000000003
20
43.287000000000006
42
0.99999999999999989
10
42.700000000000003
20
40.787000000000006
42
0.99999999999999989
0
LWPOLYLINE
5
190
100
AcDbEntity
8
0
100
AcDbPolyline
90
2
70
1
43
0.0
10
42.700000000000003
20
43.287000000000006
42
0.99999999999999989
10
42.700000000000003
20
40.787000000000006
42
-0.99999999999999989
0
LWPOLYLINE
5
191
100
AcDbEntity
8
0
100
AcDbPolyline
90
4
70
1
43
0.0
10
49.679286000000005
20
35.287086000000002
10
49.679286000000005
20
29.846913999999998
10
30.429134000000001
20
29.846914000000005
10
30.429134000000005
20
35.287086000000009
0
LWPOLYLINE
5
192
100
AcDbEntity
8
0
100
AcDbPolyline
90
2
70
1
43
0.0
10
41.481999999999999
20
8.4600000000000009
42
0.99999999999999989
10
41.481999999999999
20
7.7100000000000009
42
-0.99999999999999989
0
LWPOLYLINE
5
193
100
AcDbEntity
8
0
100
AcDbPolyline
90
2
70
1
43
0.0
10
41.481999999999999
20
7.7100000000000009
42
0.99999999999999989
10
41.481999999999999
20
8.4600000000000009
42
0.99999999999999989
0
LWPOLYLINE
5
194
100
AcDbEntity
8
0
100
AcDbPolyline
90
2
70
1
43
0.0
10
41.481999999999999
20
7.7100000000000009
42
0.99999999999999989
10
41.481999999999999
20
8.4600000000000009
42
-0.99999999999999989
0
LWPOLYLINE
5
195
100
AcDbEntity
8
0
100
AcDbPolyline
90
4
70
1
43
0.0
10
1.5250479999999977
20
12.635968000000002
10
1.5250479999999991
20
18.736031999999998
10
5.0749513332999996
20
18.736031999999998
10
5.0749513332999987
20
12.635968000000002
0
LWPOLYLINE
5
196
100
AcDbEntity
8
0
100
AcDbPolyline
90
2
70
1
43
0.0
10
44.022000000000006
20
8.4600000000000009
42
0.99999999999999989
10
44.022000000000006
20
7.7100000000000009
42
0.99999999999999989
0
LINE
5
197
100
AcDbEntity
8
0
100
AcDbLine
10
1.5250479999999982
20
14.682954666700001
30
0
11
1.5250479999999986
21
16.682950000000002
31
0
0
LWPOLYLINE
5
198
100
AcDbEntity
8
0
100
AcDbPolyline
90
2
70
1
43
0.0
10
44.022000000000006
20
8.4600000000000009
42
0.99999999999999989
10
44.022000000000006
20
7.7100000000000009
42
0.99999999999999989
0
LWPOLYLINE
5
199
100
AcDbEntity
8
0
100
AcDbPolyline
90
4
70
1
43
0.0
10
4.7249393332999992
20
17.933138
10
4.7249393332999983
20
13.433020666699999
10
2.3248939999999978
20
13.433020666699999
10
2.3248939999999991
20
17.933138
0
LWPOLYLINE
5
200
100
AcDbEntity
8
0
100
AcDbPolyline
90
2
70
1
43
0.0
10
44.022000000000006
20
7.7100000000000009
42
0.99999999999999989
10
44.022000000000006
20
8.4600000000000009
42
0.99999999999999989
0
LWPOLYLINE
5
201
100
AcDbEntity
8
0
100
AcDbPolyline
90
2
70
1
43
0.0
10
38.942
20
7.7100000000000009
42
0.99999999999999989
10
38.942
20
8.4600000000000009
42
-0.99999999999999989
0
LWPOLYLINE
5
202
100
AcDbEntity
8
0
100
AcDbPolyline
90
2
70
1
43
0.0
10
38.942
20
8.4600000000000009
42
0.99999999999999989
10
38.942
20
7.7100000000000009
42
-0.99999999999999989
0
LWPOLYLINE
5
203
100
AcDbEntity
8
0
100
AcDbPolyline
90
2
70
1
43
0.0
10
38.942
20
8.4600000000000009
42
0.99999999999999989
10
38.942
20
7.7100000000000009
42
0.99999999999999989
0
LWPOLYLINE
5
204
100
AcDbEntity
8
0
100
AcDbPolyline
90
4
70
1
43
0.0
10
6.7710000000000017
20
31.381999999999994
42
0.99999999999999989
10
6.7710000000000017
20
30.881999999999998
10
7.8710000000000022
20
30.881999999999998
42
0.99999999999999989
10
7.8710000000000022
20
31.381999999999994
0
LWPOLYLINE
5
205
100
AcDbEntity
8
0
100
AcDbPolyline
90
4
70
1
43
0.0
10
2.7210000000000005
20
22.241999999999997
10
3.6210000000000009
20
22.241999999999997
42
0.99999999999999989
10
3.6210000000000009
20
22.741999999999997
10
2.7210000000000001
20
22.741999999999997
42
0.99999999999999989
0
LWPOLYLINE
5
206
100
AcDbEntity
8
0
100
AcDbPolyline
90
4
70
1
43
0.0
10
7.8710000000000013
20
22.741999999999997
10
6.7710000000000008
20
22.741999999999997
42
0.99999999999999989
10
6.7710000000000008
20
22.241999999999997
10
7.8710000000000013
20
22.241999999999997
42
0.99999999999999989
0
LWPOLYLINE
5
207
100
AcDbEntity
8
0
100
AcDbPolyline
90
2
70
1
43
0.0
10
23.650000000000002
20
3.0480000000000009
42
0.99999999999999989
10
23.650000000000002
20
2.2860000000000005
42
0.99999999999999989
0
LWPOLYLINE
5
208
100
AcDbEntity
8
0
100
AcDbPolyline
90
2
70
1
43
0.0
10
23.650000000000002
20
5.588000000000001
42
0.99999999999999989
10
23.650000000000002
20
4.8260000000000005
42
-0.99999999999999989
0
LWPOLYLINE
5
209
100
AcDbEntity
8
0
100
AcDbPolyline
90
2
70
1
43
0.0
10
23.650000000000002
20
2.2860000000000005
42
0.99999999999999989
10
23.650000000000002
20
3.0480000000000009
42
0.99999999999999989
0
LWPOLYLINE
5
210
100
AcDbEntity
8
0
100
AcDbPolyline
90
2
70
1
43
0.0
10
23.650000000000002
20
4.8260000000000005
42
0.99999999999999989
10
23.650000000000002
20
5.588000000000001
42
-0.99999999999999989
0
LWPOLYLINE
5
211
100
AcDbEntity
8
0
100
AcDbPolyline
90
2
70
1
43
0.0
10
26.190000000000001
20
5.588000000000001
42
0.99999999999999989
10
26.190000000000001
20
4.8260000000000005
42
0.99999999999999989
0
LWPOLYLINE
5
212
100
AcDbEntity
8
0
100
AcDbPolyline
90
2
70
1
43
0.0
10
26.190000000000001
20
5.588000000000001
42
0.99999999999999989
10
26.190000000000001
20
4.8260000000000005
42
0.99999999999999989
0
LWPOLYLINE
5
213
100
AcDbEntity
8
0
100
AcDbPolyline
90
2
70
1
43
0.0
10
26.190000000000001
20
3.0480000000000009
42
0.99999999999999989
10
26.190000000000001
20
2.2860000000000005
42
-0.99999999999999989
0
LWPOLYLINE
5
214
100
AcDbEntity
8
0
100
AcDbPolyline
90
2
70
1
43
0.0
10
26.190000000000001
20
2.2860000000000005
42
0.99999999999999989
10
26.190000000000001
20
3.0480000000000009
42
-0.99999999999999989
0
LWPOLYLINE
5
215
100
AcDbEntity
8
0
100
AcDbPolyline
90
2
70
1
43
0.0
10
28.730000000000004
20
2.2860000000000005
42
0.99999999999999989
10
28.730000000000004
20
3.0480000000000009
42
-0.99999999999999989
0
LWPOLYLINE
5
216
100
AcDbEntity
8
0
100
AcDbPolyline
90
2
70
1
43
0.0
10
28.730000000000004
20
5.588000000000001
42
0.99999999999999989
10
28.730000000000004
20
4.8260000000000005
42
0.99999999999999989
0
LWPOLYLINE
5
217
100
AcDbEntity
8
0
100
AcDbPolyline
90
2
70
1
43
0.0
10
28.730000000000004
20
4.8260000000000005
42
0.99999999999999989
10
28.730000000000004
20
5.588000000000001
42
0.99999999999999989
0
LWPOLYLINE
5
218
100
AcDbEntity
8
0
100
AcDbPolyline
90
2
70
1
43
0.0
10
28.730000000000004
20
3.0480000000000009
42
0.99999999999999989
10
28.730000000000004
20
2.2860000000000005
42
-0.99999999999999989
0
LWPOLYLINE
5
219
100
AcDbEntity
8
0
100
AcDbPolyline
90
2
70
1
43
0.0
10
31.270000000000003
20
2.2860000000000005
42
0.99999999999999989
10
31.270000000000003
20
3.0480000000000009
42
0.99999999999999989
0
LWPOLYLINE
5
220
100
AcDbEntity
8
0
100
AcDbPolyline
90
2
70
1
43
0.0
10
21.110000000000003
20
4.8260000000000005
42
0.99999999999999989
10
21.110000000000003
20
5.588000000000001
42
0.99999999999999989
0
LWPOLYLINE
5
221
100
AcDbEntity
8
0
100
AcDbPolyline
90
2
70
1
43
0.0
10
21.110000000000003
20
5.588000000000001
42
0.99999999999999989
10
21.110000000000003
20
4.8260000000000005
42
0.99999999999999989
0
LWPOLYLINE
5
222
100
AcDbEntity
8
0
100
AcDbPolyline
90
2
70
1
43
0.0
10
21.110000000000003
20
3.0480000000000009
42
0.99999999999999989
10
21.110000000000003
20
2.2860000000000005
42
-0.99999999999999989
0
LWPOLYLINE
5
223
100
AcDbEntity
8
0
100
AcDbPolyline
90
2
70
1
43
0.0
10
21.110000000000003
20
2.2860000000000005
42
0.99999999999999989
10
21.110000000000003
20
3.0480000000000009
42
-0.99999999999999989
0
LWPOLYLINE
5
224
100
AcDbEntity
8
0
100
AcDbPolyline
90
2
70
1
43
0.0
10
10.950000000000003
20
3.0480000000000009
42
0.99999999999999989
10
10.950000000000003
20
2.2860000000000005
42
0.99999999999999989
0
LWPOLYLINE
5
225
100
AcDbEntity
8
0
100
AcDbPolyline
90
2
70
1
43
0.0
10
10.950000000000003
20
3.0480000000000009
42
0.99999999999999989
10
10.950000000000003
20
2.2860000000000005
42
0.99999999999999989
0
LWPOLYLINE
5
226
100
AcDbEntity
8
0
100
AcDbPolyline
90
2
70
1
43
0.0
10
10.950000000000003
20
4.8260000000000005
42
0.99999999999999989
10
10.950000000000003
20
5.588000000000001
42
0.99999999999999989
0
LWPOLYLINE
5
227
100
AcDbEntity
8
0
100
AcDbPolyline
90
2
70
1
43
0.0
10
13.490000000000002
20
2.2860000000000005
42
0.99999999999999989
10
13.490000000000002
20
3.0480000000000009
42
0.99999999999999989
0
LWPOLYLINE
5
228
100
AcDbEntity
8
0
100
AcDbPolyline
90
2
70
1
43
0.0
10
13.490000000000002
20
2.2860000000000005
42
0.99999999999999989
10
13.490000000000002
20
3.0480000000000009
42
0.99999999999999989
0
LWPOLYLINE
5
229
100
AcDbEntity
8
0
100
AcDbPolyline
90
2
70
1
43
0.0
10
13.490000000000002
20
5.588000000000001
42
0.99999999999999989
10
13.490000000000002
20
4.8260000000000005
42
0.99999999999999989
0
LWPOLYLINE
5
230
100
AcDbEntity
8
0
100
AcDbPolyline
90
2
70
1
43
0.0
10
13.490000000000002
20
5.588000000000001
42
0.99999999999999989
10
13.490000000000002
20
4.8260000000000005
42
0.99999999999999989
0
LWPOLYLINE
5
231
100
AcDbEntity
8
0
100
AcDbPolyline
90
2
70
1
43
0.0
10
10.950000000000003
20
5.588000000000001
42
0.99999999999999989
10
10.950000000000003
20
4.8260000000000005
42
0.99999999999999989
0
LWPOLYLINE
5
232
100
AcDbEntity
8
0
100
AcDbPolyline
90
2
70
1
43
0.0
10
16.030000000000001
20
3.0480000000000009
42
0.99999999999999989
10
16.030000000000001
20
2.2860000000000005
42
0.99999999999999989
0
LWPOLYLINE
5
233
100
AcDbEntity
8
0
100
AcDbPolyline
90
2
70
1
43
0.0
10
16.030000000000001
20
5.588000000000001
42
0.99999999999999989
10
16.030000000000001
20
4.8260000000000005
42
0.99999999999999989
0
LWPOLYLINE
5
234
100
AcDbEntity
8
0
100
AcDbPolyline
90
2
70
1
43
0.0
10
16.030000000000001
20
3.0480000000000009
42
0.99999999999999989
10
16.030000000000001
20
2.2860000000000005
42
0.99999999999999989
0
LWPOLYLINE
5
235
100
AcDbEntity
8
0
100
AcDbPolyline
90
2
70
1
43
0.0
10
31.270000000000003
20
2.2860000000000005
42
0.99999999999999989
10
31.270000000000003
20
3.0480000000000009
42
0.99999999999999989
0
LWPOLYLINE
5
236
100
AcDbEntity
8
0
100
AcDbPolyline
90
2
70
1
43
0.0
10
8.4100000000000001
20
5.588000000000001
42
0.99999999999999989
10
8.4100000000000001
20
4.8260000000000005
42
0.99999999999999989
0
LWPOLYLINE
5
237
100
AcDbEntity
8
0
100
AcDbPolyline
90
2
70
1
43
0.0
10
8.4100000000000001
20
5.588000000000001
42
0.99999999999999989
10
8.4100000000000001
20
4.8260000000000005
42
0.99999999999999989
0
LWPOLYLINE
5
238
100
AcDbEntity
8
0
100
AcDbPolyline
90
2
70
1
43
0.0
10
16.030000000000001
20
5.588000000000001
42
0.99999999999999989
10
16.030000000000001
20
4.8260000000000005
42
0.99999999999999989
0
LWPOLYLINE
5
239
100
AcDbEntity
8
0
100
AcDbPolyline
90
2
70
1
43
0.0
10
18.57
20
3.0480000000000009
42
0.99999999999999989
10
18.57
20
2.2860000000000005
42
0.99999999999999989
0
LWPOLYLINE
5
240
100
AcDbEntity
8
0
100
AcDbPolyline
90
2
70
1
43
0.0
10
18.57
20
2.2860000000000005
42
0.99999999999999989
10
18.57
20
3.0480000000000009
42
0.99999999999999989
0
LWPOLYLINE
5
241
100
AcDbEntity
8
0
100
AcDbPolyline
90
2
70
1
43
0.0
10
18.57
20
5.588000000000001
42
0.99999999999999989
10
18.57
20
4.8260000000000005
42
0.99999999999999989
0
LWPOLYLINE
5
242
100
AcDbEntity
8
0
100
AcDbPolyline
90
4
70
1
43
0.0
10
3.6210000000000027
20
30.882000000000001
42
0.99999999999999989
10
3.6210000000000027
20
31.381999999999998
10
2.7210000000000019
20
31.381999999999998
42
0.99999999999999989
10
2.7210000000000019
20
30.882000000000001
0
LWPOLYLINE
5
243
100
AcDbEntity
8
0
100
AcDbPolyline
90
4
70
1
43
0.0
10
7.1400000000000006
20
1.3970000000000005
10
7.1400000000000006
20
6.4770000000000003
10
40.159999999999997
20
6.4770000000000003
10
40.159999999999997
20
1.3970000000000005
0
LWPOLYLINE
5
244
100
AcDbEntity
8
0
100
AcDbPolyline
90
2
70
1
43
0.0
10
8.1600000000000001
20
2.6670000000000007
42
0.99999999999999989
10
8.6600000000000001
20
2.6670000000000007
42
-0.99999999999999989
0
LWPOLYLINE
5
245
100
AcDbEntity
8
0
100
AcDbPolyline
90
2
70
1
43
0.0
10
8.1600000000000001
20
2.6670000000000007
42
0.99999999999999989
10
8.6600000000000001
20
2.6670000000000007
42
0.99999999999999989
0
LWPOLYLINE
5
246
100
AcDbEntity
8
0
100
AcDbPolyline
90
2
70
1
43
0.0
10
8.6600000000000001
20
2.6670000000000007
42
0.99999999999999989
10
8.1600000000000001
20
2.6670000000000007
42
0.99999999999999989
0
LWPOLYLINE
5
247
100
AcDbEntity
8
0
100
AcDbPolyline
90
2
70
1
43
0.0
10
18.57
20
4.8260000000000005
42
0.99999999999999989
10
18.57
20
5.588000000000001
42
0.99999999999999989
0
LWPOLYLINE
5
248
100
AcDbEntity
8
0
100
AcDbPolyline
90
8
70
1
43
0.0
10
4.0600000000000005
20
44.576999999999998
42
0.3176989915000008
10
2.0600000000000005
20
42.576999999999998
10
2.0600000000000005
20
3.3969999999999989
42
0.32347311920000005
10
4.0600000000000005
20
1.3969999999999989
10
43.239999999999995
20
1.3969999999999989
42
0.31290188599999674
10
45.240000000000009
20
3.3969999999999989
10
45.240000000000009
20
42.576999999999998
42
0.36594803320000374
10
43.240000000000009
20
44.576999999999998
0
LWPOLYLINE
5
249
100
AcDbEntity
8
0
100
AcDbPolyline
90
2
70
1
43
0.0
10
8.6600000000000001
20
2.6670000000000007
42
0.99999999999999989
10
8.1600000000000001
20
2.6670000000000007
42
-0.99999999999999989
0
LWPOLYLINE
5
250
100
AcDbEntity
8
0
100
AcDbPolyline
90
2
70
1
43
0.0
10
8.6600000000000001
20
2.6670000000000007
42
0.99999999999999989
10
8.1600000000000001
20
2.6670000000000007
42
0.99999999999999989
0
LWPOLYLINE
5
251
100
AcDbEntity
8
0
100
AcDbPolyline
90
2
70
1
43
0.0
10
8.6600000000000001
20
2.6670000000000007
42
0.99999999999999989
10
8.1600000000000001
20
2.6670000000000007
42
0.99999999999999989
0
LWPOLYLINE
5
252
100
AcDbEntity
8
0
100
AcDbPolyline
90
2
70
1
43
0.0
10
23.650000000000002
20
43.687999999999995
42
0.99999999999999989
10
23.650000000000002
20
42.925999999999995
42
0.99999999999999989
0
LWPOLYLINE
5
253
100
AcDbEntity
8
0
100
AcDbPolyline
90
2
70
1
43
0.0
10
23.650000000000002
20
41.147999999999989
42
0.99999999999999989
10
23.650000000000002
20
40.385999999999989
42
0.99999999999999989
0
LWPOLYLINE
5
254
100
AcDbEntity
8
0
100
AcDbPolyline
90
2
70
1
43
0.0
10
23.650000000000002
20
41.147999999999989
42
0.99999999999999989
10
23.650000000000002
20
40.385999999999989
42
0.99999999999999989
0
LWPOLYLINE
5
255
100
AcDbEntity
8
0
100
AcDbPolyline
90
2
70
1
43
0.0
10
23.650000000000002
20
42.925999999999995
42
0.99999999999999989
10
23.650000000000002
20
43.687999999999995
42
0.99999999999999989
0
ENDSEC
0
SECTION
2
OBJECTS
0
DICTIONARY
5
C
100
AcDbDictionary
3
ACAD_GROUP
350
D
3
ACAD_MLINESTYLE
350
17
0
DICTIONARY
5
D
100
AcDbDictionary
0
DICTIONARY
5
1A
330
C
100
AcDbDictionary
0
DICTIONARY
5
17
100
AcDbDictionary
0
ENDSEC
0
EOF
