  0
SECTION
  2
HEADER
  9
$ACADVER
  1
AC1027
  9
$ACADMAINTVER
 70
   105
  9
$DWGCODEPAGE
  3
ANSI_1252
  9
$LASTSAVEDBY
  1
gmackey
  9
$REQUIREDVERSIONS
160
                 0
  9
$INSBASE
 10
0.0
 20
0.0
 30
0.0
  9
$EXTMIN
 10
-63.34648370177155
 20
-50.00010828000001
 30
0.0
  9
$EXTMAX
 10
49.99992285999997
 20
49.99988983999998
 30
0.0
  9
$LIMMIN
 10
-67.40007602
 20
-50.12510675999999
  9
$LIMMAX
 10
50.12492388
 20
50.12489086
  9
$ORTHOMODE
 70
     0
  9
$REGENMODE
 70
     1
  9
$FILLMODE
 70
     1
  9
$QTEXTMODE
 70
     0
  9
$MIRRTEXT
 70
     1
  9
$LTSCALE
 40
1.0
  9
$ATTMODE
 70
     1
  9
$TEXTSIZE
 40
2.5
  9
$TRACEWID
 40
1.0
  9
$TEXTSTYLE
  7
Standard
  9
$CLAYER
  8
0
  9
$CELTYPE
  6
ByLayer
  9
$CECOLOR
 62
   256
  9
$CELTSCALE
 40
1.0
  9
$DISPSILH
 70
     0
  9
$DIMSCALE
 40
1.0
  9
$DIMASZ
 40
2.5
  9
$DIMEXO
 40
0.625
  9
$DIMDLI
 40
3.75
  9
$DIMRND
 40
0.0
  9
$DIMDLE
 40
0.0
  9
$DIMEXE
 40
1.25
  9
$DIMTP
 40
0.0
  9
$DIMTM
 40
0.0
  9
$DIMTXT
 40
2.5
  9
$DIMCEN
 40
2.5
  9
$DIMTSZ
 40
0.0
  9
$DIMTOL
 70
     0
  9
$DIMLIM
 70
     0
  9
$DIMTIH
 70
     0
  9
$DIMTOH
 70
     0
  9
$DIMSE1
 70
     0
  9
$DIMSE2
 70
     0
  9
$DIMTAD
 70
     1
  9
$DIMZIN
 70
     8
  9
$DIMBLK
  1

  9
$DIMASO
 70
     1
  9
$DIMSHO
 70
     1
  9
$DIMPOST
  1

  9
$DIMAPOST
  1

  9
$DIMALT
 70
     0
  9
$DIMALTD
 70
     3
  9
$DIMALTF
 40
0.03937007874016
  9
$DIMLFAC
 40
1.0
  9
$DIMTOFL
 70
     1
  9
$DIMTVP
 40
0.0
  9
$DIMTIX
 70
     0
  9
$DIMSOXD
 70
     0
  9
$DIMSAH
 70
     0
  9
$DIMBLK1
  1

  9
$DIMBLK2
  1

  9
$DIMSTYLE
  2
ISO-25
  9
$DIMCLRD
 70
     0
  9
$DIMCLRE
 70
     0
  9
$DIMCLRT
 70
     0
  9
$DIMTFAC
 40
1.0
  9
$DIMGAP
 40
0.625
  9
$DIMJUST
 70
     0
  9
$DIMSD1
 70
     0
  9
$DIMSD2
 70
     0
  9
$DIMTOLJ
 70
     0
  9
$DIMTZIN
 70
     8
  9
$DIMALTZ
 70
     0
  9
$DIMALTTZ
 70
     0
  9
$DIMUPT
 70
     0
  9
$DIMDEC
 70
     2
  9
$DIMTDEC
 70
     2
  9
$DIMALTU
 70
     2
  9
$DIMALTTD
 70
     3
  9
$DIMTXSTY
  7
Standard
  9
$DIMAUNIT
 70
     0
  9
$DIMADEC
 70
     0
  9
$DIMALTRND
 40
0.0
  9
$DIMAZIN
 70
     0
  9
$DIMDSEP
 70
    44
  9
$DIMATFIT
 70
     3
  9
$DIMFRAC
 70
     0
  9
$DIMLDRBLK
  1

  9
$DIMLUNIT
 70
     2
  9
$DIMLWD
 70
    -2
  9
$DIMLWE
 70
    -2
  9
$DIMTMOVE
 70
     0
  9
$DIMFXL
 40
1.0
  9
$DIMFXLON
 70
     0
  9
$DIMJOGANG
 40
0.7853981633974483
  9
$DIMTFILL
 70
     0
  9
$DIMTFILLCLR
 70
     0
  9
$DIMARCSYM
 70
     0
  9
$DIMLTYPE
  6

  9
$DIMLTEX1
  6

  9
$DIMLTEX2
  6

  9
$DIMTXTDIRECTION
 70
     0
  9
$LUNITS
 70
     2
  9
$LUPREC
 70
     4
  9
$SKETCHINC
 40
1.0
  9
$FILLETRAD
 40
10.0
  9
$AUNITS
 70
     0
  9
$AUPREC
 70
     0
  9
$MENU
  1
.
  9
$ELEVATION
 40
0.0
  9
$PELEVATION
 40
0.0
  9
$THICKNESS
 40
0.0
  9
$LIMCHECK
 70
     0
  9
$CHAMFERA
 40
0.0
  9
$CHAMFERB
 40
0.0
  9
$CHAMFERC
 40
0.0
  9
$CHAMFERD
 40
0.0
  9
$SKPOLY
 70
     0
  9
$TDCREATE
 40
2460522.606648333
  9
$TDUCREATE
 40
2460522.564981667
  9
$TDUPDATE
 40
2460522.608694433
  9
$TDUUPDATE
 40
2460522.567027766
  9
$TDINDWG
 40
0.0010033912
  9
$TDUSRTIMER
 40
0.0010033796
  9
$USRTIMER
 70
     1
  9
$ANGBASE
 50
0.0
  9
$ANGDIR
 70
     0
  9
$PDMODE
 70
     0
  9
$PDSIZE
 40
0.0
  9
$PLINEWID
 40
0.0
  9
$SPLFRAME
 70
     0
  9
$SPLINETYPE
 70
     6
  9
$SPLINESEGS
 70
     8
  9
$HANDSEED
  5
20A
  9
$SURFTAB1
 70
     6
  9
$SURFTAB2
 70
     6
  9
$SURFTYPE
 70
     6
  9
$SURFU
 70
     6
  9
$SURFV
 70
     6
  9
$UCSBASE
  2

  9
$UCSNAME
  2

  9
$UCSORG
 10
0.0
 20
0.0
 30
0.0
  9
$UCSXDIR
 10
1.0
 20
0.0
 30
0.0
  9
$UCSYDIR
 10
0.0
 20
1.0
 30
0.0
  9
$UCSORTHOREF
  2

  9
$UCSORTHOVIEW
 70
     0
  9
$UCSORGTOP
 10
0.0
 20
0.0
 30
0.0
  9
$UCSORGBOTTOM
 10
0.0
 20
0.0
 30
0.0
  9
$UCSORGLEFT
 10
0.0
 20
0.0
 30
0.0
  9
$UCSORGRIGHT
 10
0.0
 20
0.0
 30
0.0
  9
$UCSORGFRONT
 10
0.0
 20
0.0
 30
0.0
  9
$UCSORGBACK
 10
0.0
 20
0.0
 30
0.0
  9
$PUCSBASE
  2

  9
$PUCSNAME
  2

  9
$PUCSORG
 10
0.0
 20
0.0
 30
0.0
  9
$PUCSXDIR
 10
1.0
 20
0.0
 30
0.0
  9
$PUCSYDIR
 10
0.0
 20
1.0
 30
0.0
  9
$PUCSORTHOREF
  2

  9
$PUCSORTHOVIEW
 70
     0
  9
$PUCSORGTOP
 10
0.0
 20
0.0
 30
0.0
  9
$PUCSORGBOTTOM
 10
0.0
 20
0.0
 30
0.0
  9
$PUCSORGLEFT
 10
0.0
 20
0.0
 30
0.0
  9
$PUCSORGRIGHT
 10
0.0
 20
0.0
 30
0.0
  9
$PUCSORGFRONT
 10
0.0
 20
0.0
 30
0.0
  9
$PUCSORGBACK
 10
0.0
 20
0.0
 30
0.0
  9
$USERI1
 70
     0
  9
$USERI2
 70
     0
  9
$USERI3
 70
     0
  9
$USERI4
 70
     0
  9
$USERI5
 70
     0
  9
$USERR1
 40
0.0
  9
$USERR2
 40
0.0
  9
$USERR3
 40
0.0
  9
$USERR4
 40
0.0
  9
$USERR5
 40
0.0
  9
$WORLDVIEW
 70
     1
  9
$SHADEDGE
 70
     3
  9
$SHADEDIF
 70
    70
  9
$TILEMODE
 70
     1
  9
$MAXACTVP
 70
    64
  9
$PINSBASE
 10
0.0
 20
0.0
 30
0.0
  9
$PLIMCHECK
 70
     0
  9
$PEXTMIN
 10
1.000000000000000E+20
 20
1.000000000000000E+20
 30
1.000000000000000E+20
  9
$PEXTMAX
 10
-1.000000000000000E+20
 20
-1.000000000000000E+20
 30
-1.000000000000000E+20
  9
$PLIMMIN
 10
0.0
 20
0.0
  9
$PLIMMAX
 10
0.0
 20
0.0
  9
$UNITMODE
 70
     0
  9
$VISRETAIN
 70
     1
  9
$PLINEGEN
 70
     0
  9
$PSLTSCALE
 70
     1
  9
$TREEDEPTH
 70
  3020
  9
$CMLSTYLE
  2
Standard
  9
$CMLJUST
 70
     0
  9
$CMLSCALE
 40
20.0
  9
$PROXYGRAPHICS
 70
     1
  9
$MEASUREMENT
 70
     1
  9
$CELWEIGHT
370
    -1
  9
$ENDCAPS
280
     0
  9
$JOINSTYLE
280
     0
  9
$LWDISPLAY
290
     0
  9
$INSUNITS
 70
     4
  9
$HYPERLINKBASE
  1

  9
$STYLESHEET
  1

  9
$XEDIT
290
     1
  9
$CEPSNTYPE
380
     0
  9
$PSTYLEMODE
290
     1
  9
$FINGERPRINTGUID
  2
{2130537A-3015-4FA8-9DF6-AE09660AA5D5}
  9
$VERSIONGUID
  2
{FAEB1C32-E019-11D5-929B-00C0DF256EC4}
  9
$EXTNAMES
290
     1
  9
$PSVPSCALE
 40
0.0
  9
$OLESTARTUP
290
     0
  9
$SORTENTS
280
   127
  9
$INDEXCTL
280
     0
  9
$HIDETEXT
280
     1
  9
$XCLIPFRAME
280
     2
  9
$HALOGAP
280
     0
  9
$OBSCOLOR
 70
   257
  9
$OBSLTYPE
280
     0
  9
$INTERSECTIONDISPLAY
280
     0
  9
$INTERSECTIONCOLOR
 70
   257
  9
$DIMASSOC
280
     2
  9
$PROJECTNAME
  1

  9
$CAMERADISPLAY
290
     0
  9
$LENSLENGTH
 40
50.0
  9
$CAMERAHEIGHT
 40
0.0
  9
$STEPSPERSEC
 40
2.0
  9
$STEPSIZE
 40
6.0
  9
$3DDWFPREC
 40
2.0
  9
$PSOLWIDTH
 40
5.0
  9
$PSOLHEIGHT
 40
80.0
  9
$LOFTANG1
 40
1.570796326794897
  9
$LOFTANG2
 40
1.570796326794897
  9
$LOFTMAG1
 40
0.0
  9
$LOFTMAG2
 40
0.0
  9
$LOFTPARAM
 70
     7
  9
$LOFTNORMALS
280
     1
  9
$LATITUDE
 40
37.795
  9
$LONGITUDE
 40
-122.394
  9
$NORTHDIRECTION
 40
0.0
  9
$TIMEZONE
 70
 -8000
  9
$LIGHTGLYPHDISPLAY
280
     1
  9
$TILEMODELIGHTSYNCH
280
     1
  9
$CMATERIAL
347
44
  9
$SOLIDHIST
280
     0
  9
$SHOWHIST
280
     1
  9
$DWFFRAME
280
     2
  9
$DGNFRAME
280
     2
  9
$REALWORLDSCALE
290
     1
  9
$INTERFERECOLOR
 62
   256
  9
$CSHADOW
280
     0
  9
$SHADOWPLANELOCATION
 40
0.0
  0
ENDSEC
  0
SECTION
  2
CLASSES
  0
CLASS
  1
ACDBDICTIONARYWDFLT
  2
AcDbDictionaryWithDefault
  3
ObjectDBX Classes
 90
        0
 91
        3
280
     0
281
     0
  0
CLASS
  1
VISUALSTYLE
  2
AcDbVisualStyle
  3
ObjectDBX Classes
 90
     4095
 91
        3
280
     0
281
     0
  0
CLASS
  1
MATERIAL
  2
AcDbMaterial
  3
ObjectDBX Classes
 90
     1153
 91
        3
280
     0
281
     0
  0
CLASS
  1
SCALE
  2
AcDbScale
  3
ObjectDBX Classes
 90
     1153
 91
        3
280
     0
281
     0
  0
CLASS
  1
TABLESTYLE
  2
AcDbTableStyle
  3
ObjectDBX Classes
 90
     4095
 91
        3
280
     0
281
     0
  0
CLASS
  1
MLEADERSTYLE
  2
AcDbMLeaderStyle
  3
ACDB_MLEADERSTYLE_CLASS
 90
     4095
 91
        3
280
     0
281
     0
  0
CLASS
  1
SUN
  2
AcDbSun
  3
SCENEOE
 90
     1153
 91
        3
280
     0
281
     0
  0
CLASS
  1
DICTIONARYVAR
  2
AcDbDictionaryVar
  3
ObjectDBX Classes
 90
        0
 91
        3
280
     0
281
     0
  0
CLASS
  1
CELLSTYLEMAP
  2
AcDbCellStyleMap
  3
ObjectDBX Classes
 90
     1152
 91
        3
280
     0
281
     0
  0
ENDSEC
  0
SECTION
  2
TABLES
  0
TABLE
  2
VPORT
  5
8
330
0
100
AcDbSymbolTable
 70
     1
  0
VPORT
  5
29
330
8
100
AcDbSymbolTableRecord
100
AcDbViewportTableRecord
  2
*Active
 70
     0
 10
0.0
 20
0.0
 11
1.0
 21
1.0
 12
-51.82171624077426
 22
-1.091666604945033
 13
0.0
 23
0.0
 14
10.0
 24
10.0
 15
10.0
 25
10.0
 16
0.0
 26
0.0
 36
1.0
 17
0.0
 27
0.0
 37
0.0
 40
130.1800661168406
 41
1.843711843711844
 42
50.0
 43
0.0
 44
0.0
 50
0.0
 51
0.0
 71
    16
 72
   100
 73
     1
 74
     3
 75
     0
 76
     0
 77
     0
 78
     0
281
     0
 65
     1
110
0.0
120
0.0
130
0.0
111
1.0
121
0.0
131
0.0
112
0.0
122
1.0
132
0.0
 79
     0
146
0.0
348
2F
 60
     3
 61
     5
292
     1
282
     1
141
0.0
142
0.0
 63
   250
361
6D
  0
ENDTAB
  0
TABLE
  2
LTYPE
  5
5
330
0
100
AcDbSymbolTable
 70
     1
  0
LTYPE
  5
14
330
5
100
AcDbSymbolTableRecord
100
AcDbLinetypeTableRecord
  2
ByBlock
 70
     0
  3

 72
    65
 73
     0
 40
0.0
  0
LTYPE
  5
15
330
5
100
AcDbSymbolTableRecord
100
AcDbLinetypeTableRecord
  2
ByLayer
 70
     0
  3

 72
    65
 73
     0
 40
0.0
  0
LTYPE
  5
16
330
5
100
AcDbSymbolTableRecord
100
AcDbLinetypeTableRecord
  2
Continuous
 70
     0
  3
Solid line
 72
    65
 73
     0
 40
0.0
  0
ENDTAB
  0
TABLE
  2
LAYER
  5
2
330
0
100
AcDbSymbolTable
 70
    11
  0
LAYER
  5
10
330
2
100
AcDbSymbolTableRecord
100
AcDbLayerTableRecord
  2
0
 70
     0
 62
     7
  6
Continuous
370
    -3
390
F
347
46
348
0
  0
LAYER
  5
6E
330
2
100
AcDbSymbolTableRecord
100
AcDbLayerTableRecord
  2
BottomLayer
 70
     0
 62
     5
  6
Continuous
370
    -3
390
F
347
46
348
0
  0
LAYER
  5
6F
330
2
100
AcDbSymbolTableRecord
100
AcDbLayerTableRecord
  2
TopLayer
 70
     0
 62
     1
  6
Continuous
370
    -3
390
F
347
46
348
0
  0
LAYER
  5
70
330
2
100
AcDbSymbolTableRecord
100
AcDbLayerTableRecord
  2
Mechanical10
 70
     0
 62
    56
  6
Continuous
370
    -3
390
F
347
46
348
0
  0
LAYER
  5
71
330
2
100
AcDbSymbolTableRecord
100
AcDbLayerTableRecord
  2
Mechanical3
 70
     0
 62
    76
  6
Continuous
370
    -3
390
F
347
46
348
0
  0
LAYER
  5
72
330
2
100
AcDbSymbolTableRecord
100
AcDbLayerTableRecord
  2
TopOverlay
 70
     0
 62
     2
  6
Continuous
370
    -3
390
F
347
46
348
0
  0
LAYER
  5
73
330
2
100
AcDbSymbolTableRecord
100
AcDbLayerTableRecord
  2
MultiLayer
 70
     0
 62
     9
  6
Continuous
370
    -3
390
F
347
46
348
0
  0
LAYER
  5
74
330
2
100
AcDbSymbolTableRecord
100
AcDbLayerTableRecord
  2
TopSolder
 70
     0
 62
   216
  6
Continuous
370
    -3
390
F
347
46
348
0
  0
LAYER
  5
75
330
2
100
AcDbSymbolTableRecord
100
AcDbLayerTableRecord
  2
BottomSolder
 70
     0
 62
     6
  6
Continuous
370
    -3
390
F
347
46
348
0
  0
LAYER
  5
76
330
2
100
AcDbSymbolTableRecord
100
AcDbLayerTableRecord
  2
PadHoleLayer
 70
     0
 62
   156
  6
Continuous
370
    -3
390
F
347
46
348
0
  0
LAYER
  5
77
330
2
100
AcDbSymbolTableRecord
100
AcDbLayerTableRecord
  2
ViaHoleLayer
 70
     0
 62
    16
  6
Continuous
370
    -3
390
F
347
46
348
0
  0
ENDTAB
  0
TABLE
  2
STYLE
  5
3
330
0
100
AcDbSymbolTable
 70
     2
  0
STYLE
  5
11
330
3
100
AcDbSymbolTableRecord
100
AcDbTextStyleTableRecord
  2
Standard
 70
     0
 40
0.0
 41
1.0
 50
0.0
 71
     0
 42
2.5
  3
txt
  4

  0
STYLE
  5
C6
330
3
100
AcDbSymbolTableRecord
100
AcDbTextStyleTableRecord
  2
Arial
 70
     0
 40
0.2
 41
1.0
 50
0.0
 71
     0
 42
2.5
  3
arial.ttf
  4

1001
ACAD
1000
Arial
1071
        0
  0
ENDTAB
  0
TABLE
  2
VIEW
  5
6
330
0
100
AcDbSymbolTable
 70
     0
  0
ENDTAB
  0
TABLE
  2
UCS
  5
7
330
0
100
AcDbSymbolTable
 70
     0
  0
ENDTAB
  0
TABLE
  2
APPID
  5
9
330
0
100
AcDbSymbolTable
 70
     1
  0
APPID
  5
12
330
9
100
AcDbSymbolTableRecord
100
AcDbRegAppTableRecord
  2
ACAD
 70
     0
  0
ENDTAB
  0
TABLE
  2
DIMSTYLE
  5
A
330
0
100
AcDbSymbolTable
 70
     1
100
AcDbDimStyleTable
  0
DIMSTYLE
105
27
330
A
100
AcDbSymbolTableRecord
100
AcDbDimStyleTableRecord
  2
ISO-25
 70
     0
 41
2.5
 42
0.625
 43
3.75
 44
1.25
 73
     0
 74
     0
 77
     1
 78
     8
140
2.5
141
2.5
143
0.03937007874016
147
0.625
171
     3
172
     1
178
     0
271
     2
272
     2
274
     3
278
    44
283
     0
284
     8
340
11
  0
ENDTAB
  0
TABLE
  2
BLOCK_RECORD
  5
1
330
0
100
AcDbSymbolTable
 70
     1
  0
BLOCK_RECORD
  5
1F
102
{ACAD_XDICTIONARY
360
205
102
}
330
1
100
AcDbSymbolTableRecord
100
AcDbBlockTableRecord
  2
*Model_Space
340
22
 70
     0
280
     1
281
     0
  0
BLOCK_RECORD
  5
1B
330
1
100
AcDbSymbolTableRecord
100
AcDbBlockTableRecord
  2
*Paper_Space
340
1E
 70
     0
280
     1
281
     0
  0
BLOCK_RECORD
  5
23
330
1
100
AcDbSymbolTableRecord
100
AcDbBlockTableRecord
  2
*Paper_Space0
340
26
 70
     0
280
     1
281
     0
  0
ENDTAB
  0
ENDSEC
  0
SECTION
  2
BLOCKS
  0
BLOCK
  5
20
330
1F
100
AcDbEntity
  8
0
100
AcDbBlockBegin
  2
*Model_Space
 70
     0
 10
0.0
 20
0.0
 30
0.0
  3
*Model_Space
  1

  0
ENDBLK
  5
21
330
1F
100
AcDbEntity
  8
0
100
AcDbBlockEnd
  0
BLOCK
  5
1C
330
1B
100
AcDbEntity
 67
     1
  8
0
100
AcDbBlockBegin
  2
*Paper_Space
 70
     0
 10
0.0
 20
0.0
 30
0.0
  3
*Paper_Space
  1

  0
ENDBLK
  5
1D
330
1B
100
AcDbEntity
 67
     1
  8
0
100
AcDbBlockEnd
  0
BLOCK
  5
24
330
23
100
AcDbEntity
  8
0
100
AcDbBlockBegin
  2
*Paper_Space0
 70
     0
 10
0.0
 20
0.0
 30
0.0
  3
*Paper_Space0
  1

  0
ENDBLK
  5
25
330
23
100
AcDbEntity
  8
0
100
AcDbBlockEnd
  0
ENDSEC
  0
SECTION
  2
ENTITIES
  0
LINE
  5
78
330
1F
100
AcDbEntity
  8
Mechanical10
100
AcDbLine
 10
-8.151723599999999
 20
-1.59109918
 30
0.0
 11
-6.0304045
 21
0.53022246
 31
0.0
  0
LINE
  5
79
330
1F
100
AcDbEntity
  8
Mechanical10
100
AcDbLine
 10
-7.091065319999999
 20
-2.65176
 30
0.0
 11
-4.96974622
 21
-0.5304409
 31
0.0
  0
LINE
  5
7A
330
1F
100
AcDbEntity
  8
Mechanical10
100
AcDbLine
 10
-8.151723599999999
 20
-1.59109918
 30
0.0
 11
-7.091065319999999
 21
-2.65176
 31
0.0
  0
LINE
  5
7B
330
1F
100
AcDbEntity
  8
Mechanical10
100
AcDbLine
 10
-6.03040704
 20
0.53022246
 30
0.0
 11
-4.96974876
 21
-0.53043836
 31
0.0
  0
LINE
  5
7C
330
1F
100
AcDbEntity
  8
Mechanical10
100
AcDbLine
 10
-2.6517219
 20
-7.09110088
 30
0.0
 11
-0.5304028
 21
-4.969779239999999
 31
0.0
  0
LINE
  5
7D
330
1F
100
AcDbEntity
  8
Mechanical10
100
AcDbLine
 10
-1.59106362
 20
-8.1517617
 30
0.0
 11
0.53025548
 21
-6.0304426
 31
0.0
  0
LINE
  5
7E
330
1F
100
AcDbEntity
  8
Mechanical10
100
AcDbLine
 10
-2.6517219
 20
-7.09110088
 30
0.0
 11
-1.59106362
 21
-8.1517617
 31
0.0
  0
LINE
  5
7F
330
1F
100
AcDbEntity
  8
Mechanical10
100
AcDbLine
 10
-0.53040534
 20
-4.969779239999999
 30
0.0
 11
0.53025294
 21
-6.030440059999999
 31
0.0
  0
LINE
  5
80
330
1F
100
AcDbEntity
  8
Mechanical10
100
AcDbLine
 10
-8.187077859999999
 20
-2.2628479
 30
0.0
 11
-7.76281404
 21
-2.68711426
 31
0.0
  0
LINE
  5
81
330
1F
100
AcDbEntity
  8
Mechanical10
100
AcDbLine
 10
-8.54063062
 20
-2.61640066
 30
0.0
 11
-8.11636426
 21
-3.04066448
 31
0.0
  0
LINE
  5
82
330
1F
100
AcDbEntity
  8
Mechanical10
100
AcDbLine
 10
-8.54063062
 20
-2.61640066
 30
0.0
 11
-8.187077859999999
 21
-2.2628479
 31
0.0
  0
LINE
  5
83
330
1F
100
AcDbEntity
  8
Mechanical10
100
AcDbLine
 10
-8.11636426
 20
-3.04066448
 30
0.0
 11
-7.7628115
 21
-2.68711172
 31
0.0
  0
LINE
  5
84
330
1F
100
AcDbEntity
  8
Mechanical10
100
AcDbLine
 10
-7.479974879999999
 20
-1.55574238
 30
0.0
 11
-7.05570852
 21
-1.9800062
 31
0.0
  0
LINE
  5
85
330
1F
100
AcDbEntity
  8
Mechanical10
100
AcDbLine
 10
-7.833527639999999
 20
-1.90929514
 30
0.0
 11
-7.409261279999999
 21
-2.3335615
 31
0.0
  0
LINE
  5
86
330
1F
100
AcDbEntity
  8
Mechanical10
100
AcDbLine
 10
-7.409261279999999
 20
-2.3335615
 30
0.0
 11
-7.05570852
 21
-1.98000874
 31
0.0
  0
LINE
  5
87
330
1F
100
AcDbEntity
  8
Mechanical10
100
AcDbLine
 10
-7.833527639999999
 20
-1.90929514
 30
0.0
 11
-7.479974879999999
 21
-1.55574238
 31
0.0
  0
LINE
  5
88
330
1F
100
AcDbEntity
  8
Mechanical10
100
AcDbLine
 10
-2.68707616
 20
-7.7628496
 30
0.0
 11
-2.26281234
 21
-8.18711596
 31
0.0
  0
LINE
  5
89
330
1F
100
AcDbEntity
  8
Mechanical10
100
AcDbLine
 10
-3.04062892
 20
-8.116402359999999
 30
0.0
 11
-2.61636256
 21
-8.54066618
 31
0.0
  0
LINE
  5
8A
330
1F
100
AcDbEntity
  8
Mechanical10
100
AcDbLine
 10
-3.04062892
 20
-8.116402359999999
 30
0.0
 11
-2.68707616
 21
-7.7628496
 31
0.0
  0
LINE
  5
8B
330
1F
100
AcDbEntity
  8
Mechanical10
100
AcDbLine
 10
-2.61636256
 20
-8.54066618
 30
0.0
 11
-2.2628098
 21
-8.18711342
 31
0.0
  0
LINE
  5
8C
330
1F
100
AcDbEntity
  8
Mechanical10
100
AcDbLine
 10
-1.97997318
 20
-7.05574408
 30
0.0
 11
-1.55570682
 21
-7.480007899999999
 31
0.0
  0
LINE
  5
8D
330
1F
100
AcDbEntity
  8
Mechanical10
100
AcDbLine
 10
-2.33352594
 20
-7.409296839999999
 30
0.0
 11
-1.90925958
 21
-7.8335632
 31
0.0
  0
LINE
  5
8E
330
1F
100
AcDbEntity
  8
Mechanical10
100
AcDbLine
 10
-1.90925958
 20
-7.8335632
 30
0.0
 11
-1.55570682
 21
-7.480010439999999
 31
0.0
  0
LINE
  5
8F
330
1F
100
AcDbEntity
  8
Mechanical10
100
AcDbLine
 10
-2.33352594
 20
-7.409296839999999
 30
0.0
 11
-1.97997318
 21
-7.05574408
 31
0.0
  0
CIRCLE
  5
90
330
1F
100
AcDbEntity
  8
Mechanical10
100
AcDbCircle
 10
-0.0000762
 20
-0.00010922
 30
0.0
 40
49.99999905999999
  0
CIRCLE
  5
91
330
1F
100
AcDbEntity
  8
Mechanical3
100
AcDbCircle
 10
-0.0000762
 20
-0.00010922
 30
0.0
 40
30.31499906
  0
CIRCLE
  5
92
330
1F
100
AcDbEntity
  8
TopOverlay
100
AcDbCircle
 10
-0.0000762
 20
-0.00010922
 30
0.0
 40
30.5650011
  0
CIRCLE
  5
93
330
1F
100
AcDbEntity
  8
MultiLayer
100
AcDbCircle
 10
-0.0000762
 20
-29.00010964
 30
0.0
 40
1.00000054
  0
CIRCLE
  5
94
330
1F
100
AcDbEntity
  8
TopSolder
100
AcDbCircle
 10
-0.0000762
 20
-29.00010964
 30
0.0
 40
1.10160054
  0
CIRCLE
  5
95
330
1F
100
AcDbEntity
  8
TopLayer
100
AcDbCircle
 10
-0.0000762
 20
-29.00010964
 30
0.0
 40
1.00000054
  0
CIRCLE
  5
96
330
1F
100
AcDbEntity
  8
BottomLayer
100
AcDbCircle
 10
-0.0000762
 20
-29.00010964
 30
0.0
 40
1.00000054
  0
CIRCLE
  5
97
330
1F
100
AcDbEntity
  8
BottomSolder
100
AcDbCircle
 10
-0.0000762
 20
-29.00010964
 30
0.0
 40
1.10160054
  0
CIRCLE
  5
98
330
1F
100
AcDbEntity
  8
PadHoleLayer
100
AcDbCircle
 10
-0.0000762
 20
-29.00010964
 30
0.0
 40
0.8999982
  0
CIRCLE
  5
99
330
1F
100
AcDbEntity
  8
MultiLayer
100
AcDbCircle
 10
-0.0000762
 20
-0.00010922
 30
0.0
 40
3.24999858
  0
CIRCLE
  5
9A
330
1F
100
AcDbEntity
  8
TopSolder
100
AcDbCircle
 10
-0.0000762
 20
-0.00010922
 30
0.0
 40
3.34999838
  0
CIRCLE
  5
9B
330
1F
100
AcDbEntity
  8
TopLayer
100
AcDbCircle
 10
-0.0000762
 20
-0.00010922
 30
0.0
 40
3.24999858
  0
CIRCLE
  5
9C
330
1F
100
AcDbEntity
  8
BottomLayer
100
AcDbCircle
 10
-0.0000762
 20
-0.00010922
 30
0.0
 40
3.24999858
  0
CIRCLE
  5
9D
330
1F
100
AcDbEntity
  8
BottomSolder
100
AcDbCircle
 10
-0.0000762
 20
-0.00010922
 30
0.0
 40
3.34999838
  0
CIRCLE
  5
9E
330
1F
100
AcDbEntity
  8
PadHoleLayer
100
AcDbCircle
 10
-0.0000762
 20
-0.00010922
 30
0.0
 40
1.59999934
  0
CIRCLE
  5
9F
330
1F
100
AcDbEntity
  8
MultiLayer
100
AcDbCircle
 10
28.99992676
 20
-0.00010922
 30
0.0
 40
1.00000054
  0
CIRCLE
  5
A0
330
1F
100
AcDbEntity
  8
TopSolder
100
AcDbCircle
 10
28.99992676
 20
-0.00010922
 30
0.0
 40
1.10160054
  0
CIRCLE
  5
A1
330
1F
100
AcDbEntity
  8
TopLayer
100
AcDbCircle
 10
28.99992676
 20
-0.00010922
 30
0.0
 40
1.00000054
  0
CIRCLE
  5
A2
330
1F
100
AcDbEntity
  8
BottomLayer
100
AcDbCircle
 10
28.99992676
 20
-0.00010922
 30
0.0
 40
1.00000054
  0
CIRCLE
  5
A3
330
1F
100
AcDbEntity
  8
BottomSolder
100
AcDbCircle
 10
28.99992676
 20
-0.00010922
 30
0.0
 40
1.10160054
  0
CIRCLE
  5
A4
330
1F
100
AcDbEntity
  8
PadHoleLayer
100
AcDbCircle
 10
28.99992676
 20
-0.00010922
 30
0.0
 40
0.8999982
  0
CIRCLE
  5
A5
330
1F
100
AcDbEntity
  8
MultiLayer
100
AcDbCircle
 10
-0.0000762
 20
28.99989374
 30
0.0
 40
1.00000054
  0
CIRCLE
  5
A6
330
1F
100
AcDbEntity
  8
TopSolder
100
AcDbCircle
 10
-0.0000762
 20
28.99989374
 30
0.0
 40
1.10160054
  0
CIRCLE
  5
A7
330
1F
100
AcDbEntity
  8
TopLayer
100
AcDbCircle
 10
-0.0000762
 20
28.99989374
 30
0.0
 40
1.00000054
  0
CIRCLE
  5
A8
330
1F
100
AcDbEntity
  8
BottomLayer
100
AcDbCircle
 10
-0.0000762
 20
28.99989374
 30
0.0
 40
1.00000054
  0
CIRCLE
  5
A9
330
1F
100
AcDbEntity
  8
BottomSolder
100
AcDbCircle
 10
-0.0000762
 20
28.99989374
 30
0.0
 40
1.10160054
  0
CIRCLE
  5
AA
330
1F
100
AcDbEntity
  8
PadHoleLayer
100
AcDbCircle
 10
-0.0000762
 20
28.99989374
 30
0.0
 40
0.8999982
  0
CIRCLE
  5
AB
330
1F
100
AcDbEntity
  8
MultiLayer
100
AcDbCircle
 10
-29.00007916
 20
-0.00010922
 30
0.0
 40
1.00000054
  0
CIRCLE
  5
AC
330
1F
100
AcDbEntity
  8
TopSolder
100
AcDbCircle
 10
-29.00007916
 20
-0.00010922
 30
0.0
 40
1.10160054
  0
CIRCLE
  5
AD
330
1F
100
AcDbEntity
  8
TopLayer
100
AcDbCircle
 10
-29.00007916
 20
-0.00010922
 30
0.0
 40
1.00000054
  0
CIRCLE
  5
AE
330
1F
100
AcDbEntity
  8
BottomLayer
100
AcDbCircle
 10
-29.00007916
 20
-0.00010922
 30
0.0
 40
1.00000054
  0
CIRCLE
  5
AF
330
1F
100
AcDbEntity
  8
BottomSolder
100
AcDbCircle
 10
-29.00007916
 20
-0.00010922
 30
0.0
 40
1.10160054
  0
CIRCLE
  5
B0
330
1F
100
AcDbEntity
  8
PadHoleLayer
100
AcDbCircle
 10
-29.00007916
 20
-0.00010922
 30
0.0
 40
0.8999982
  0
CIRCLE
  5
B1
330
1F
100
AcDbEntity
  8
TopSolder
100
AcDbCircle
 10
-5.500075359999999
 20
-0.00010922
 30
0.0
 40
0.6999985999999999
  0
CIRCLE
  5
B2
330
1F
100
AcDbEntity
  8
TopLayer
100
AcDbCircle
 10
-5.500075359999999
 20
-0.00010922
 30
0.0
 40
0.5999987999999999
  0
CIRCLE
  5
B3
330
1F
100
AcDbEntity
  8
BottomLayer
100
AcDbCircle
 10
-5.500075359999999
 20
-0.00010922
 30
0.0
 40
1.10000034
  0
CIRCLE
  5
B4
330
1F
100
AcDbEntity
  8
BottomSolder
100
AcDbCircle
 10
-5.500075359999999
 20
-0.00010922
 30
0.0
 40
1.20000014
  0
CIRCLE
  5
B5
330
1F
100
AcDbEntity
  8
PadHoleLayer
100
AcDbCircle
 10
-5.500075359999999
 20
-0.00010922
 30
0.0
 40
0.499999
  0
CIRCLE
  5
B6
330
1F
100
AcDbEntity
  8
TopSolder
100
AcDbCircle
 10
-0.0000762
 20
-5.500108379999999
 30
0.0
 40
0.6999985999999999
  0
CIRCLE
  5
B7
330
1F
100
AcDbEntity
  8
TopLayer
100
AcDbCircle
 10
-0.0000762
 20
-5.500108379999999
 30
0.0
 40
0.5999987999999999
  0
CIRCLE
  5
B8
330
1F
100
AcDbEntity
  8
BottomLayer
100
AcDbCircle
 10
-0.0000762
 20
-5.500108379999999
 30
0.0
 40
1.10000034
  0
CIRCLE
  5
B9
330
1F
100
AcDbEntity
  8
BottomSolder
100
AcDbCircle
 10
-0.0000762
 20
-5.500108379999999
 30
0.0
 40
1.20000014
  0
CIRCLE
  5
BA
330
1F
100
AcDbEntity
  8
PadHoleLayer
100
AcDbCircle
 10
-0.0000762
 20
-5.500108379999999
 30
0.0
 40
0.499999
  0
CIRCLE
  5
BB
330
1F
100
AcDbEntity
  8
TopSolder
100
AcDbCircle
 10
12.2499247
 20
-0.00010922
 30
0.0
 40
0.6999985999999999
  0
CIRCLE
  5
BC
330
1F
100
AcDbEntity
  8
TopLayer
100
AcDbCircle
 10
12.2499247
 20
-0.00010922
 30
0.0
 40
0.5999987999999999
  0
CIRCLE
  5
BD
330
1F
100
AcDbEntity
  8
BottomLayer
100
AcDbCircle
 10
12.2499247
 20
-0.00010922
 30
0.0
 40
1.10000034
  0
CIRCLE
  5
BE
330
1F
100
AcDbEntity
  8
BottomSolder
100
AcDbCircle
 10
12.2499247
 20
-0.00010922
 30
0.0
 40
1.20000014
  0
CIRCLE
  5
BF
330
1F
100
AcDbEntity
  8
PadHoleLayer
100
AcDbCircle
 10
12.2499247
 20
-0.00010922
 30
0.0
 40
0.499999
  0
CIRCLE
  5
C0
330
1F
100
AcDbEntity
  8
TopSolder
100
AcDbCircle
 10
-0.0000762
 20
12.24989168
 30
0.0
 40
0.6999985999999999
  0
CIRCLE
  5
C1
330
1F
100
AcDbEntity
  8
TopLayer
100
AcDbCircle
 10
-0.0000762
 20
12.24989168
 30
0.0
 40
0.5999987999999999
  0
CIRCLE
  5
C2
330
1F
100
AcDbEntity
  8
BottomLayer
100
AcDbCircle
 10
-0.0000762
 20
12.24989168
 30
0.0
 40
1.10000034
  0
CIRCLE
  5
C3
330
1F
100
AcDbEntity
  8
BottomSolder
100
AcDbCircle
 10
-0.0000762
 20
12.24989168
 30
0.0
 40
1.20000014
  0
CIRCLE
  5
C4
330
1F
100
AcDbEntity
  8
PadHoleLayer
100
AcDbCircle
 10
-0.0000762
 20
12.24989168
 30
0.0
 40
0.499999
  0
TEXT
  5
C5
330
1F
100
AcDbEntity
  8
Mechanical3
100
AcDbText
 10
-5.620187875399134
 20
-0.4358347084795156
 30
0.0
 40
1.49999954
  1
.Designator
  7
Arial
100
AcDbText
  0
TEXT
  5
C7
330
1F
100
AcDbEntity
  8
Mechanical10
100
AcDbText
 10
10.88254740709559
 20
-3.149176433547796
 30
0.0
 40
1.00000054
  1
LB-1
  7
Arial
100
AcDbText
  0
TEXT
  5
C8
330
1F
100
AcDbEntity
  8
Mechanical10
100
AcDbText
 10
-5.041053614785682
 20
11.70848686228946
 30
0.0
 40
1.00000054
  1
LB-2
  7
Arial
100
AcDbText
  0
TEXT
  5
C9
330
1F
100
AcDbEntity
  8
Mechanical10
100
AcDbText
 10
-7.1661274
 20
2.0001611
 30
0.0
 40
1.00000054
  1
HB-1
  7
Arial
100
AcDbText
  0
TEXT
  5
CA
330
1F
100
AcDbEntity
  8
Mechanical10
100
AcDbText
 10
3.66709706
 20
-0.49983898
 30
0.0
 40
1.00000054
  1
GND
  7
Arial
100
AcDbText
  0
TEXT
  5
CB
330
1F
100
AcDbEntity
  8
Mechanical10
100
AcDbText
 10
-12.88945834130612
 20
-19.29146337351488
 30
0.0
 40
1.00000054
  1
All Other layers copper cuttout OD = 3mm
  7
Arial
100
AcDbText
  0
TEXT
  5
CC
330
1F
100
AcDbEntity
  8
Mechanical10
100
AcDbText
 10
-12.51479729068584
 20
-17.57273443023954
 30
0.0
 40
1.00000054
  1
Bottom layer copper cuttout OD = 3.5mm
  7
Arial
100
AcDbText
  0
TEXT
  5
CD
330
1F
100
AcDbEntity
  8
Mechanical10
100
AcDbText
 10
2.16725754
 20
-5.99983814
 30
0.0
 40
1.00000054
  1
HB-2
  7
Arial
100
AcDbText
  0
TEXT
  5
CE
330
1F
100
AcDbEntity
  8
Mechanical10
100
AcDbText
 10
-13.7950346698916
 20
-32.63524682286182
 30
0.0
 40
1.00000054
  1
Please see datasheet for further information.
 50
360.0
  7
Arial
100
AcDbText
  0
TEXT
  5
CF
330
1F
100
AcDbEntity
  8
Mechanical10
100
AcDbText
 10
-7.194849799619266
 20
-34.3644620379652
 30
0.0
 40
1.00000054
  1
GPDF6010.A Footprint
 50
360.0
  7
Arial
100
AcDbText
  0
TEXT
  5
D0
330
1F
100
AcDbEntity
  8
Mechanical10
100
AcDbText
 10
-9.085223079575199
 20
-14.95422038024287
 30
0.0
 40
0.4999990000000001
  1
Place 4.7pF capacitor here->
 50
45.0
  7
Arial
100
AcDbText
  0
TEXT
  5
D1
330
1F
100
AcDbEntity
  8
Mechanical10
100
AcDbText
 10
-63.56248381841151
 20
13.63529752286183
 30
0.0
 40
2.00000108
  1
PCB Edge->
 50
360.0
  7
Arial
100
AcDbText
  0
TEXT
  5
D2
330
1F
100
AcDbEntity
  8
Mechanical10
100
AcDbText
 10
-14.61189216770873
 20
-9.507553456509942
 30
0.0
 40
0.4999990000000001
  1
Place 4.7pF capacitor here->
 50
45.0
  7
Arial
100
AcDbText
  0
LINE
  5
D3
330
1F
100
AcDbEntity
  8
BottomLayer
100
AcDbLine
 10
-5.500075359999999
 20
1.74988982
 30
0.0
 11
-5.500075359999999
 21
1.74988982
 31
0.0
  0
LINE
  5
D4
330
1F
100
AcDbEntity
  8
BottomLayer
100
AcDbLine
 10
-5.500075359999999
 20
1.74988982
 30
0.0
 11
-5.3277135
 21
1.74988728
 31
0.0
  0
LINE
  5
D5
330
1F
100
AcDbEntity
  8
BottomLayer
100
AcDbLine
 10
-5.3277135
 20
1.74988728
 30
0.0
 11
-4.98961918
 21
1.68263824
 31
0.0
  0
LINE
  5
D6
330
1F
100
AcDbEntity
  8
BottomLayer
100
AcDbLine
 10
-4.98961918
 20
1.68263824
 30
0.0
 11
-4.67113874
 21
1.55071826
 31
0.0
  0
LINE
  5
D7
330
1F
100
AcDbEntity
  8
BottomLayer
100
AcDbLine
 10
-4.67113874
 20
1.55071826
 30
0.0
 11
-4.384514980000001
 21
1.35920226
 31
0.0
  0
LINE
  5
D8
330
1F
100
AcDbEntity
  8
BottomLayer
100
AcDbLine
 10
-4.384514980000001
 20
1.35920226
 30
0.0
 11
-4.14076134
 21
1.11544862
 31
0.0
  0
LINE
  5
D9
330
1F
100
AcDbEntity
  8
BottomLayer
100
AcDbLine
 10
-4.14076134
 20
1.11544862
 30
0.0
 11
-3.94924534
 21
0.8288248599999999
 31
0.0
  0
LINE
  5
DA
330
1F
100
AcDbEntity
  8
BottomLayer
100
AcDbLine
 10
-3.94924534
 20
0.8288248599999999
 30
0.0
 11
-3.817325359999999
 21
0.51034442
 31
0.0
  0
LINE
  5
DB
330
1F
100
AcDbEntity
  8
BottomLayer
100
AcDbLine
 10
-3.817325359999999
 20
0.51034442
 30
0.0
 11
-3.750076319999999
 21
0.1722501
 31
0.0
  0
LINE
  5
DC
330
1F
100
AcDbEntity
  8
BottomLayer
100
AcDbLine
 10
-3.750076319999999
 20
0.1722501
 30
0.0
 11
-3.750076319999999
 21
-0.00010922
 31
0.0
  0
LINE
  5
DD
330
1F
100
AcDbEntity
  8
BottomLayer
100
AcDbLine
 10
-3.750076319999999
 20
-0.00010922
 30
0.0
 11
-3.750076319999999
 21
-0.17246854
 31
0.0
  0
LINE
  5
DE
330
1F
100
AcDbEntity
  8
BottomLayer
100
AcDbLine
 10
-3.750076319999999
 20
-0.17246854
 30
0.0
 11
-3.817325359999999
 21
-0.51056286
 31
0.0
  0
LINE
  5
DF
330
1F
100
AcDbEntity
  8
BottomLayer
100
AcDbLine
 10
-3.817325359999999
 20
-0.51056286
 30
0.0
 11
-3.94924534
 21
-0.8290433
 31
0.0
  0
LINE
  5
E0
330
1F
100
AcDbEntity
  8
BottomLayer
100
AcDbLine
 10
-3.94924534
 20
-0.8290433
 30
0.0
 11
-4.14076134
 21
-1.11566706
 31
0.0
  0
LINE
  5
E1
330
1F
100
AcDbEntity
  8
BottomLayer
100
AcDbLine
 10
-4.14076134
 20
-1.11566706
 30
0.0
 11
-4.384514980000001
 21
-1.3594207
 31
0.0
  0
LINE
  5
E2
330
1F
100
AcDbEntity
  8
BottomLayer
100
AcDbLine
 10
-4.384514980000001
 20
-1.3594207
 30
0.0
 11
-4.67113874
 21
-1.5509367
 31
0.0
  0
LINE
  5
E3
330
1F
100
AcDbEntity
  8
BottomLayer
100
AcDbLine
 10
-4.67113874
 20
-1.5509367
 30
0.0
 11
-4.98961918
 21
-1.68285668
 31
0.0
  0
LINE
  5
E4
330
1F
100
AcDbEntity
  8
BottomLayer
100
AcDbLine
 10
-4.98961918
 20
-1.68285668
 30
0.0
 11
-5.3277135
 21
-1.75010572
 31
0.0
  0
LINE
  5
E5
330
1F
100
AcDbEntity
  8
BottomLayer
100
AcDbLine
 10
-5.3277135
 20
-1.75010572
 30
0.0
 11
-5.500075359999999
 21
-1.75010826
 31
0.0
  0
LINE
  5
E6
330
1F
100
AcDbEntity
  8
BottomLayer
100
AcDbLine
 10
-5.500075359999999
 20
-1.75010826
 30
0.0
 11
-5.672434679999999
 21
-1.75010826
 31
0.0
  0
LINE
  5
E7
330
1F
100
AcDbEntity
  8
BottomLayer
100
AcDbLine
 10
-5.672434679999999
 20
-1.75010826
 30
0.0
 11
-6.010529
 21
-1.68285668
 31
0.0
  0
LINE
  5
E8
330
1F
100
AcDbEntity
  8
BottomLayer
100
AcDbLine
 10
-6.010529
 20
-1.68285668
 30
0.0
 11
-6.329009439999999
 21
-1.5509367
 31
0.0
  0
LINE
  5
E9
330
1F
100
AcDbEntity
  8
BottomLayer
100
AcDbLine
 10
-6.329009439999999
 20
-1.5509367
 30
0.0
 11
-6.6156332
 21
-1.3594207
 31
0.0
  0
LINE
  5
EA
330
1F
100
AcDbEntity
  8
BottomLayer
100
AcDbLine
 10
-6.6156332
 20
-1.3594207
 30
0.0
 11
-6.859386839999999
 21
-1.11566706
 31
0.0
  0
LINE
  5
EB
330
1F
100
AcDbEntity
  8
BottomLayer
100
AcDbLine
 10
-6.859386839999999
 20
-1.11566706
 30
0.0
 11
-7.05090284
 21
-0.8290433
 31
0.0
  0
LINE
  5
EC
330
1F
100
AcDbEntity
  8
BottomLayer
100
AcDbLine
 10
-7.05090284
 20
-0.8290433
 30
0.0
 11
-7.182822819999999
 21
-0.51056286
 31
0.0
  0
LINE
  5
ED
330
1F
100
AcDbEntity
  8
BottomLayer
100
AcDbLine
 10
-7.182822819999999
 20
-0.51056286
 30
0.0
 11
-7.2500744
 21
-0.17246854
 31
0.0
  0
LINE
  5
EE
330
1F
100
AcDbEntity
  8
BottomLayer
100
AcDbLine
 10
-7.2500744
 20
-0.17246854
 30
0.0
 11
-7.2500744
 21
-0.00010668
 31
0.0
  0
LINE
  5
EF
330
1F
100
AcDbEntity
  8
BottomLayer
100
AcDbLine
 10
-7.2500744
 20
-0.00010668
 30
0.0
 11
-7.2500744
 21
0.1722501
 31
0.0
  0
LINE
  5
F0
330
1F
100
AcDbEntity
  8
BottomLayer
100
AcDbLine
 10
-7.2500744
 20
0.1722501
 30
0.0
 11
-7.182822819999999
 21
0.51034442
 31
0.0
  0
LINE
  5
F1
330
1F
100
AcDbEntity
  8
BottomLayer
100
AcDbLine
 10
-7.182822819999999
 20
0.51034442
 30
0.0
 11
-7.05090284
 21
0.8288248599999999
 31
0.0
  0
LINE
  5
F2
330
1F
100
AcDbEntity
  8
BottomLayer
100
AcDbLine
 10
-7.05090284
 20
0.8288248599999999
 30
0.0
 11
-6.859386839999999
 21
1.11544862
 31
0.0
  0
LINE
  5
F3
330
1F
100
AcDbEntity
  8
BottomLayer
100
AcDbLine
 10
-6.859386839999999
 20
1.11544862
 30
0.0
 11
-6.6156332
 21
1.35920226
 31
0.0
  0
LINE
  5
F4
330
1F
100
AcDbEntity
  8
BottomLayer
100
AcDbLine
 10
-6.6156332
 20
1.35920226
 30
0.0
 11
-6.329009439999999
 21
1.55071826
 31
0.0
  0
LINE
  5
F5
330
1F
100
AcDbEntity
  8
BottomLayer
100
AcDbLine
 10
-6.329009439999999
 20
1.55071826
 30
0.0
 11
-6.010529
 21
1.68263824
 31
0.0
  0
LINE
  5
F6
330
1F
100
AcDbEntity
  8
BottomLayer
100
AcDbLine
 10
-6.010529
 20
1.68263824
 30
0.0
 11
-5.672434679999999
 21
1.74988982
 31
0.0
  0
LINE
  5
F7
330
1F
100
AcDbEntity
  8
BottomLayer
100
AcDbLine
 10
-5.672434679999999
 20
1.74988982
 30
0.0
 11
-5.500075359999999
 21
1.74988982
 31
0.0
  0
LINE
  5
F8
330
1F
100
AcDbEntity
  8
BottomLayer
100
AcDbLine
 10
-0.00007366
 20
-3.75010934
 30
0.0
 11
-0.00007366
 21
-3.75010934
 31
0.0
  0
LINE
  5
F9
330
1F
100
AcDbEntity
  8
BottomLayer
100
AcDbLine
 10
-0.00007366
 20
-3.75010934
 30
0.0
 11
0.17228312
 21
-3.75010934
 31
0.0
  0
LINE
  5
FA
330
1F
100
AcDbEntity
  8
BottomLayer
100
AcDbLine
 10
0.17228312
 20
-3.75010934
 30
0.0
 11
0.51037744
 21
-3.81735838
 31
0.0
  0
LINE
  5
FB
330
1F
100
AcDbEntity
  8
BottomLayer
100
AcDbLine
 10
0.51037744
 20
-3.81735838
 30
0.0
 11
0.8288578799999999
 21
-3.94927836
 31
0.0
  0
LINE
  5
FC
330
1F
100
AcDbEntity
  8
BottomLayer
100
AcDbLine
 10
0.8288578799999999
 20
-3.94927836
 30
0.0
 11
1.11548164
 21
-4.14079436
 31
0.0
  0
LINE
  5
FD
330
1F
100
AcDbEntity
  8
BottomLayer
100
AcDbLine
 10
1.11548164
 20
-4.14079436
 30
0.0
 11
1.35923528
 21
-4.384548
 31
0.0
  0
LINE
  5
FE
330
1F
100
AcDbEntity
  8
BottomLayer
100
AcDbLine
 10
1.35923528
 20
-4.384548
 30
0.0
 11
1.55075128
 21
-4.67117176
 31
0.0
  0
LINE
  5
FF
330
1F
100
AcDbEntity
  8
BottomLayer
100
AcDbLine
 10
1.55075128
 20
-4.67117176
 30
0.0
 11
1.68267126
 21
-4.9896522
 31
0.0
  0
LINE
  5
100
330
1F
100
AcDbEntity
  8
BottomLayer
100
AcDbLine
 10
1.68267126
 20
-4.9896522
 30
0.0
 11
1.74992284
 21
-5.32774652
 31
0.0
  0
LINE
  5
101
330
1F
100
AcDbEntity
  8
BottomLayer
100
AcDbLine
 10
1.74992284
 20
-5.32774652
 30
0.0
 11
1.74992284
 21
-5.500108379999999
 31
0.0
  0
LINE
  5
102
330
1F
100
AcDbEntity
  8
BottomLayer
100
AcDbLine
 10
1.74992284
 20
-5.500108379999999
 30
0.0
 11
1.74992284
 21
-5.6724677
 31
0.0
  0
LINE
  5
103
330
1F
100
AcDbEntity
  8
BottomLayer
100
AcDbLine
 10
1.74992284
 20
-5.6724677
 30
0.0
 11
1.68267126
 21
-6.010562019999999
 31
0.0
  0
LINE
  5
104
330
1F
100
AcDbEntity
  8
BottomLayer
100
AcDbLine
 10
1.68267126
 20
-6.010562019999999
 30
0.0
 11
1.55075128
 21
-6.32904246
 31
0.0
  0
LINE
  5
105
330
1F
100
AcDbEntity
  8
BottomLayer
100
AcDbLine
 10
1.55075128
 20
-6.32904246
 30
0.0
 11
1.35923528
 21
-6.61566622
 31
0.0
  0
LINE
  5
106
330
1F
100
AcDbEntity
  8
BottomLayer
100
AcDbLine
 10
1.35923528
 20
-6.61566622
 30
0.0
 11
1.11548164
 21
-6.85941986
 31
0.0
  0
LINE
  5
107
330
1F
100
AcDbEntity
  8
BottomLayer
100
AcDbLine
 10
1.11548164
 20
-6.85941986
 30
0.0
 11
0.8288578799999999
 21
-7.05093586
 31
0.0
  0
LINE
  5
108
330
1F
100
AcDbEntity
  8
BottomLayer
100
AcDbLine
 10
0.8288578799999999
 20
-7.05093586
 30
0.0
 11
0.51037744
 21
-7.182855839999999
 31
0.0
  0
LINE
  5
109
330
1F
100
AcDbEntity
  8
BottomLayer
100
AcDbLine
 10
0.51037744
 20
-7.182855839999999
 30
0.0
 11
0.17228312
 21
-7.25010742
 31
0.0
  0
LINE
  5
10A
330
1F
100
AcDbEntity
  8
BottomLayer
100
AcDbLine
 10
0.17228312
 20
-7.25010742
 30
0.0
 11
-0.00007366
 21
-7.25010742
 31
0.0
  0
LINE
  5
10B
330
1F
100
AcDbEntity
  8
BottomLayer
100
AcDbLine
 10
-0.00007366
 20
-7.25010742
 30
0.0
 11
-0.17243552
 21
-7.25010742
 31
0.0
  0
LINE
  5
10C
330
1F
100
AcDbEntity
  8
BottomLayer
100
AcDbLine
 10
-0.17243552
 20
-7.25010742
 30
0.0
 11
-0.5105298399999999
 21
-7.182855839999999
 31
0.0
  0
LINE
  5
10D
330
1F
100
AcDbEntity
  8
BottomLayer
100
AcDbLine
 10
-0.5105298399999999
 20
-7.182855839999999
 30
0.0
 11
-0.8290102799999999
 21
-7.05093586
 31
0.0
  0
LINE
  5
10E
330
1F
100
AcDbEntity
  8
BottomLayer
100
AcDbLine
 10
-0.8290102799999999
 20
-7.05093586
 30
0.0
 11
-1.11563404
 21
-6.85941986
 31
0.0
  0
LINE
  5
10F
330
1F
100
AcDbEntity
  8
BottomLayer
100
AcDbLine
 10
-1.11563404
 20
-6.85941986
 30
0.0
 11
-1.35938768
 21
-6.61566622
 31
0.0
  0
LINE
  5
110
330
1F
100
AcDbEntity
  8
BottomLayer
100
AcDbLine
 10
-1.35938768
 20
-6.61566622
 30
0.0
 11
-1.55090368
 21
-6.32904246
 31
0.0
  0
LINE
  5
111
330
1F
100
AcDbEntity
  8
BottomLayer
100
AcDbLine
 10
-1.55090368
 20
-6.32904246
 30
0.0
 11
-1.68282366
 21
-6.010562019999999
 31
0.0
  0
LINE
  5
112
330
1F
100
AcDbEntity
  8
BottomLayer
100
AcDbLine
 10
-1.68282366
 20
-6.010562019999999
 30
0.0
 11
-1.75007524
 21
-5.6724677
 31
0.0
  0
LINE
  5
113
330
1F
100
AcDbEntity
  8
BottomLayer
100
AcDbLine
 10
-1.75007524
 20
-5.6724677
 30
0.0
 11
-1.75007524
 21
-5.500108379999999
 31
0.0
  0
LINE
  5
114
330
1F
100
AcDbEntity
  8
BottomLayer
100
AcDbLine
 10
-1.75007524
 20
-5.500108379999999
 30
0.0
 11
-1.7500727
 21
-5.32774652
 31
0.0
  0
LINE
  5
115
330
1F
100
AcDbEntity
  8
BottomLayer
100
AcDbLine
 10
-1.7500727
 20
-5.32774652
 30
0.0
 11
-1.68282366
 21
-4.9896522
 31
0.0
  0
LINE
  5
116
330
1F
100
AcDbEntity
  8
BottomLayer
100
AcDbLine
 10
-1.68282366
 20
-4.9896522
 30
0.0
 11
-1.55090368
 21
-4.67117176
 31
0.0
  0
LINE
  5
117
330
1F
100
AcDbEntity
  8
BottomLayer
100
AcDbLine
 10
-1.55090368
 20
-4.67117176
 30
0.0
 11
-1.35938768
 21
-4.384548
 31
0.0
  0
LINE
  5
118
330
1F
100
AcDbEntity
  8
BottomLayer
100
AcDbLine
 10
-1.35938768
 20
-4.384548
 30
0.0
 11
-1.11563404
 21
-4.14079436
 31
0.0
  0
LINE
  5
119
330
1F
100
AcDbEntity
  8
BottomLayer
100
AcDbLine
 10
-1.11563404
 20
-4.14079436
 30
0.0
 11
-0.8290102799999999
 21
-3.94927836
 31
0.0
  0
LINE
  5
11A
330
1F
100
AcDbEntity
  8
BottomLayer
100
AcDbLine
 10
-0.8290102799999999
 20
-3.94927836
 30
0.0
 11
-0.5105298399999999
 21
-3.81735838
 31
0.0
  0
LINE
  5
11B
330
1F
100
AcDbEntity
  8
BottomLayer
100
AcDbLine
 10
-0.5105298399999999
 20
-3.81735838
 30
0.0
 11
-0.17243552
 21
-3.75010934
 31
0.0
  0
LINE
  5
11C
330
1F
100
AcDbEntity
  8
BottomLayer
100
AcDbLine
 10
-0.17243552
 20
-3.75010934
 30
0.0
 11
-0.00007366
 21
-3.75010934
 31
0.0
  0
LINE
  5
11D
330
1F
100
AcDbEntity
  8
BottomLayer
100
AcDbLine
 10
12.2499247
 20
1.74988982
 30
0.0
 11
12.2499247
 21
1.74988982
 31
0.0
  0
LINE
  5
11E
330
1F
100
AcDbEntity
  8
BottomLayer
100
AcDbLine
 10
12.2499247
 20
1.74988982
 30
0.0
 11
12.42228402
 21
1.74988728
 31
0.0
  0
LINE
  5
11F
330
1F
100
AcDbEntity
  8
BottomLayer
100
AcDbLine
 10
12.42228402
 20
1.74988728
 30
0.0
 11
12.76037834
 21
1.68263824
 31
0.0
  0
LINE
  5
120
330
1F
100
AcDbEntity
  8
BottomLayer
100
AcDbLine
 10
12.76037834
 20
1.68263824
 30
0.0
 11
13.07885878
 21
1.55071826
 31
0.0
  0
LINE
  5
121
330
1F
100
AcDbEntity
  8
BottomLayer
100
AcDbLine
 10
13.07885878
 20
1.55071826
 30
0.0
 11
13.36548254
 21
1.35920226
 31
0.0
  0
LINE
  5
122
330
1F
100
AcDbEntity
  8
BottomLayer
100
AcDbLine
 10
13.36548254
 20
1.35920226
 30
0.0
 11
13.60923618
 21
1.11544862
 31
0.0
  0
LINE
  5
123
330
1F
100
AcDbEntity
  8
BottomLayer
100
AcDbLine
 10
13.60923618
 20
1.11544862
 30
0.0
 11
13.80075218
 21
0.8288248599999999
 31
0.0
  0
LINE
  5
124
330
1F
100
AcDbEntity
  8
BottomLayer
100
AcDbLine
 10
13.80075218
 20
0.8288248599999999
 30
0.0
 11
13.93267216
 21
0.51034442
 31
0.0
  0
LINE
  5
125
330
1F
100
AcDbEntity
  8
BottomLayer
100
AcDbLine
 10
13.93267216
 20
0.51034442
 30
0.0
 11
13.99992374
 21
0.1722501
 31
0.0
  0
LINE
  5
126
330
1F
100
AcDbEntity
  8
BottomLayer
100
AcDbLine
 10
13.99992374
 20
0.1722501
 30
0.0
 11
13.99992374
 21
-0.00010922
 31
0.0
  0
LINE
  5
127
330
1F
100
AcDbEntity
  8
BottomLayer
100
AcDbLine
 10
13.99992374
 20
-0.00010922
 30
0.0
 11
13.99992374
 21
-0.17246854
 31
0.0
  0
LINE
  5
128
330
1F
100
AcDbEntity
  8
BottomLayer
100
AcDbLine
 10
13.99992374
 20
-0.17246854
 30
0.0
 11
13.93267216
 21
-0.51056286
 31
0.0
  0
LINE
  5
129
330
1F
100
AcDbEntity
  8
BottomLayer
100
AcDbLine
 10
13.93267216
 20
-0.51056286
 30
0.0
 11
13.80075218
 21
-0.8290433
 31
0.0
  0
LINE
  5
12A
330
1F
100
AcDbEntity
  8
BottomLayer
100
AcDbLine
 10
13.80075218
 20
-0.8290433
 30
0.0
 11
13.60923618
 21
-1.11566706
 31
0.0
  0
LINE
  5
12B
330
1F
100
AcDbEntity
  8
BottomLayer
100
AcDbLine
 10
13.60923618
 20
-1.11566706
 30
0.0
 11
13.36548254
 21
-1.3594207
 31
0.0
  0
LINE
  5
12C
330
1F
100
AcDbEntity
  8
BottomLayer
100
AcDbLine
 10
13.36548254
 20
-1.3594207
 30
0.0
 11
13.07885878
 21
-1.5509367
 31
0.0
  0
LINE
  5
12D
330
1F
100
AcDbEntity
  8
BottomLayer
100
AcDbLine
 10
13.07885878
 20
-1.5509367
 30
0.0
 11
12.76037834
 21
-1.68285668
 31
0.0
  0
LINE
  5
12E
330
1F
100
AcDbEntity
  8
BottomLayer
100
AcDbLine
 10
12.76037834
 20
-1.68285668
 30
0.0
 11
12.42228402
 21
-1.75010572
 31
0.0
  0
LINE
  5
12F
330
1F
100
AcDbEntity
  8
BottomLayer
100
AcDbLine
 10
12.42228402
 20
-1.75010572
 30
0.0
 11
12.2499247
 21
-1.75010826
 31
0.0
  0
LINE
  5
130
330
1F
100
AcDbEntity
  8
BottomLayer
100
AcDbLine
 10
12.2499247
 20
-1.75010826
 30
0.0
 11
12.07756284
 21
-1.75010826
 31
0.0
  0
LINE
  5
131
330
1F
100
AcDbEntity
  8
BottomLayer
100
AcDbLine
 10
12.07756284
 20
-1.75010826
 30
0.0
 11
11.73946852
 21
-1.68285668
 31
0.0
  0
LINE
  5
132
330
1F
100
AcDbEntity
  8
BottomLayer
100
AcDbLine
 10
11.73946852
 20
-1.68285668
 30
0.0
 11
11.42098808
 21
-1.5509367
 31
0.0
  0
LINE
  5
133
330
1F
100
AcDbEntity
  8
BottomLayer
100
AcDbLine
 10
11.42098808
 20
-1.5509367
 30
0.0
 11
11.13436432
 21
-1.3594207
 31
0.0
  0
LINE
  5
134
330
1F
100
AcDbEntity
  8
BottomLayer
100
AcDbLine
 10
11.13436432
 20
-1.3594207
 30
0.0
 11
10.89061068
 21
-1.11566706
 31
0.0
  0
LINE
  5
135
330
1F
100
AcDbEntity
  8
BottomLayer
100
AcDbLine
 10
10.89061068
 20
-1.11566706
 30
0.0
 11
10.69909468
 21
-0.8290433
 31
0.0
  0
LINE
  5
136
330
1F
100
AcDbEntity
  8
BottomLayer
100
AcDbLine
 10
10.69909468
 20
-0.8290433
 30
0.0
 11
10.5671747
 21
-0.51056286
 31
0.0
  0
LINE
  5
137
330
1F
100
AcDbEntity
  8
BottomLayer
100
AcDbLine
 10
10.5671747
 20
-0.51056286
 30
0.0
 11
10.49992566
 21
-0.17246854
 31
0.0
  0
LINE
  5
138
330
1F
100
AcDbEntity
  8
BottomLayer
100
AcDbLine
 10
10.49992566
 20
-0.17246854
 30
0.0
 11
10.49992566
 21
-0.00010668
 31
0.0
  0
LINE
  5
139
330
1F
100
AcDbEntity
  8
BottomLayer
100
AcDbLine
 10
10.49992566
 20
-0.00010668
 30
0.0
 11
10.49992566
 21
0.1722501
 31
0.0
  0
LINE
  5
13A
330
1F
100
AcDbEntity
  8
BottomLayer
100
AcDbLine
 10
10.49992566
 20
0.1722501
 30
0.0
 11
10.5671747
 21
0.51034442
 31
0.0
  0
LINE
  5
13B
330
1F
100
AcDbEntity
  8
BottomLayer
100
AcDbLine
 10
10.5671747
 20
0.51034442
 30
0.0
 11
10.69909468
 21
0.8288248599999999
 31
0.0
  0
LINE
  5
13C
330
1F
100
AcDbEntity
  8
BottomLayer
100
AcDbLine
 10
10.69909468
 20
0.8288248599999999
 30
0.0
 11
10.89061068
 21
1.11544862
 31
0.0
  0
LINE
  5
13D
330
1F
100
AcDbEntity
  8
BottomLayer
100
AcDbLine
 10
10.89061068
 20
1.11544862
 30
0.0
 11
11.13436432
 21
1.35920226
 31
0.0
  0
LINE
  5
13E
330
1F
100
AcDbEntity
  8
BottomLayer
100
AcDbLine
 10
11.13436432
 20
1.35920226
 30
0.0
 11
11.42098808
 21
1.55071826
 31
0.0
  0
LINE
  5
13F
330
1F
100
AcDbEntity
  8
BottomLayer
100
AcDbLine
 10
11.42098808
 20
1.55071826
 30
0.0
 11
11.73946852
 21
1.68263824
 31
0.0
  0
LINE
  5
140
330
1F
100
AcDbEntity
  8
BottomLayer
100
AcDbLine
 10
11.73946852
 20
1.68263824
 30
0.0
 11
12.07756284
 21
1.74988982
 31
0.0
  0
LINE
  5
141
330
1F
100
AcDbEntity
  8
BottomLayer
100
AcDbLine
 10
12.07756284
 20
1.74988982
 30
0.0
 11
12.2499247
 21
1.74988982
 31
0.0
  0
LINE
  5
142
330
1F
100
AcDbEntity
  8
BottomLayer
100
AcDbLine
 10
-0.00007366
 20
13.99989072
 30
0.0
 11
-0.00007366
 21
13.99989072
 31
0.0
  0
LINE
  5
143
330
1F
100
AcDbEntity
  8
BottomLayer
100
AcDbLine
 10
-0.00007366
 20
13.99989072
 30
0.0
 11
0.17228312
 21
13.99989072
 31
0.0
  0
LINE
  5
144
330
1F
100
AcDbEntity
  8
BottomLayer
100
AcDbLine
 10
0.17228312
 20
13.99989072
 30
0.0
 11
0.51037744
 21
13.93263914
 31
0.0
  0
LINE
  5
145
330
1F
100
AcDbEntity
  8
BottomLayer
100
AcDbLine
 10
0.51037744
 20
13.93263914
 30
0.0
 11
0.8288578799999999
 21
13.80071916
 31
0.0
  0
LINE
  5
146
330
1F
100
AcDbEntity
  8
BottomLayer
100
AcDbLine
 10
0.8288578799999999
 20
13.80071916
 30
0.0
 11
1.11548164
 21
13.60920316
 31
0.0
  0
LINE
  5
147
330
1F
100
AcDbEntity
  8
BottomLayer
100
AcDbLine
 10
1.11548164
 20
13.60920316
 30
0.0
 11
1.35923528
 21
13.36544952
 31
0.0
  0
LINE
  5
148
330
1F
100
AcDbEntity
  8
BottomLayer
100
AcDbLine
 10
1.35923528
 20
13.36544952
 30
0.0
 11
1.55075128
 21
13.07882576
 31
0.0
  0
LINE
  5
149
330
1F
100
AcDbEntity
  8
BottomLayer
100
AcDbLine
 10
1.55075128
 20
13.07882576
 30
0.0
 11
1.68267126
 21
12.76034532
 31
0.0
  0
LINE
  5
14A
330
1F
100
AcDbEntity
  8
BottomLayer
100
AcDbLine
 10
1.68267126
 20
12.76034532
 30
0.0
 11
1.74992284
 21
12.422251
 31
0.0
  0
LINE
  5
14B
330
1F
100
AcDbEntity
  8
BottomLayer
100
AcDbLine
 10
1.74992284
 20
12.422251
 30
0.0
 11
1.74992284
 21
12.24989168
 31
0.0
  0
LINE
  5
14C
330
1F
100
AcDbEntity
  8
BottomLayer
100
AcDbLine
 10
1.74992284
 20
12.24989168
 30
0.0
 11
1.74992284
 21
12.07752982
 31
0.0
  0
LINE
  5
14D
330
1F
100
AcDbEntity
  8
BottomLayer
100
AcDbLine
 10
1.74992284
 20
12.07752982
 30
0.0
 11
1.68267126
 21
11.7394355
 31
0.0
  0
LINE
  5
14E
330
1F
100
AcDbEntity
  8
BottomLayer
100
AcDbLine
 10
1.68267126
 20
11.7394355
 30
0.0
 11
1.55075128
 21
11.42095506
 31
0.0
  0
LINE
  5
14F
330
1F
100
AcDbEntity
  8
BottomLayer
100
AcDbLine
 10
1.55075128
 20
11.42095506
 30
0.0
 11
1.35923528
 21
11.1343313
 31
0.0
  0
LINE
  5
150
330
1F
100
AcDbEntity
  8
BottomLayer
100
AcDbLine
 10
1.35923528
 20
11.1343313
 30
0.0
 11
1.11548164
 21
10.89057766
 31
0.0
  0
LINE
  5
151
330
1F
100
AcDbEntity
  8
BottomLayer
100
AcDbLine
 10
1.11548164
 20
10.89057766
 30
0.0
 11
0.8288578799999999
 21
10.69906166
 31
0.0
  0
LINE
  5
152
330
1F
100
AcDbEntity
  8
BottomLayer
100
AcDbLine
 10
0.8288578799999999
 20
10.69906166
 30
0.0
 11
0.51037744
 21
10.56714168
 31
0.0
  0
LINE
  5
153
330
1F
100
AcDbEntity
  8
BottomLayer
100
AcDbLine
 10
0.51037744
 20
10.56714168
 30
0.0
 11
0.17228312
 21
10.49989264
 31
0.0
  0
LINE
  5
154
330
1F
100
AcDbEntity
  8
BottomLayer
100
AcDbLine
 10
0.17228312
 20
10.49989264
 30
0.0
 11
-0.00007366
 21
10.49989264
 31
0.0
  0
LINE
  5
155
330
1F
100
AcDbEntity
  8
BottomLayer
100
AcDbLine
 10
-0.00007366
 20
10.49989264
 30
0.0
 11
-0.17243552
 21
10.49989264
 31
0.0
  0
LINE
  5
156
330
1F
100
AcDbEntity
  8
BottomLayer
100
AcDbLine
 10
-0.17243552
 20
10.49989264
 30
0.0
 11
-0.5105298399999999
 21
10.56714168
 31
0.0
  0
LINE
  5
157
330
1F
100
AcDbEntity
  8
BottomLayer
100
AcDbLine
 10
-0.5105298399999999
 20
10.56714168
 30
0.0
 11
-0.8290102799999999
 21
10.69906166
 31
0.0
  0
LINE
  5
158
330
1F
100
AcDbEntity
  8
BottomLayer
100
AcDbLine
 10
-0.8290102799999999
 20
10.69906166
 30
0.0
 11
-1.11563404
 21
10.89057766
 31
0.0
  0
LINE
  5
159
330
1F
100
AcDbEntity
  8
BottomLayer
100
AcDbLine
 10
-1.11563404
 20
10.89057766
 30
0.0
 11
-1.35938768
 21
11.1343313
 31
0.0
  0
LINE
  5
15A
330
1F
100
AcDbEntity
  8
BottomLayer
100
AcDbLine
 10
-1.35938768
 20
11.1343313
 30
0.0
 11
-1.55090368
 21
11.42095506
 31
0.0
  0
LINE
  5
15B
330
1F
100
AcDbEntity
  8
BottomLayer
100
AcDbLine
 10
-1.55090368
 20
11.42095506
 30
0.0
 11
-1.68282366
 21
11.7394355
 31
0.0
  0
LINE
  5
15C
330
1F
100
AcDbEntity
  8
BottomLayer
100
AcDbLine
 10
-1.68282366
 20
11.7394355
 30
0.0
 11
-1.75007524
 21
12.07752982
 31
0.0
  0
LINE
  5
15D
330
1F
100
AcDbEntity
  8
BottomLayer
100
AcDbLine
 10
-1.75007524
 20
12.07752982
 30
0.0
 11
-1.75007524
 21
12.24989168
 31
0.0
  0
LINE
  5
15E
330
1F
100
AcDbEntity
  8
BottomLayer
100
AcDbLine
 10
-1.75007524
 20
12.24989168
 30
0.0
 11
-1.7500727
 21
12.422251
 31
0.0
  0
LINE
  5
15F
330
1F
100
AcDbEntity
  8
BottomLayer
100
AcDbLine
 10
-1.7500727
 20
12.422251
 30
0.0
 11
-1.68282366
 21
12.76034532
 31
0.0
  0
LINE
  5
160
330
1F
100
AcDbEntity
  8
BottomLayer
100
AcDbLine
 10
-1.68282366
 20
12.76034532
 30
0.0
 11
-1.55090368
 21
13.07882576
 31
0.0
  0
LINE
  5
161
330
1F
100
AcDbEntity
  8
BottomLayer
100
AcDbLine
 10
-1.55090368
 20
13.07882576
 30
0.0
 11
-1.35938768
 21
13.36544952
 31
0.0
  0
LINE
  5
162
330
1F
100
AcDbEntity
  8
BottomLayer
100
AcDbLine
 10
-1.35938768
 20
13.36544952
 30
0.0
 11
-1.11563404
 21
13.60920316
 31
0.0
  0
LINE
  5
163
330
1F
100
AcDbEntity
  8
BottomLayer
100
AcDbLine
 10
-1.11563404
 20
13.60920316
 30
0.0
 11
-0.8290102799999999
 21
13.80071916
 31
0.0
  0
LINE
  5
164
330
1F
100
AcDbEntity
  8
BottomLayer
100
AcDbLine
 10
-0.8290102799999999
 20
13.80071916
 30
0.0
 11
-0.5105298399999999
 21
13.93263914
 31
0.0
  0
LINE
  5
165
330
1F
100
AcDbEntity
  8
BottomLayer
100
AcDbLine
 10
-0.5105298399999999
 20
13.93263914
 30
0.0
 11
-0.17243552
 21
13.99989072
 31
0.0
  0
LINE
  5
166
330
1F
100
AcDbEntity
  8
BottomLayer
100
AcDbLine
 10
-0.17243552
 20
13.99989072
 30
0.0
 11
-0.00007366
 21
13.99989072
 31
0.0
  0
LINE
  5
167
330
1F
100
AcDbEntity
  8
MultiLayer
100
AcDbLine
 10
-5.500075359999999
 20
1.49989032
 30
0.0
 11
-5.500075359999999
 21
1.49989032
 31
0.0
  0
LINE
  5
168
330
1F
100
AcDbEntity
  8
MultiLayer
100
AcDbLine
 10
-5.500075359999999
 20
1.49989032
 30
0.0
 11
-5.35233626
 21
1.49988778
 31
0.0
  0
LINE
  5
169
330
1F
100
AcDbEntity
  8
MultiLayer
100
AcDbLine
 10
-5.35233626
 20
1.49988778
 30
0.0
 11
-5.06254004
 21
1.44224502
 31
0.0
  0
LINE
  5
16A
330
1F
100
AcDbEntity
  8
MultiLayer
100
AcDbLine
 10
-5.06254004
 20
1.44224502
 30
0.0
 11
-4.789558619999999
 21
1.32917184
 31
0.0
  0
LINE
  5
16B
330
1F
100
AcDbEntity
  8
MultiLayer
100
AcDbLine
 10
-4.789558619999999
 20
1.32917184
 30
0.0
 11
-4.54387966
 21
1.16501418
 31
0.0
  0
LINE
  5
16C
330
1F
100
AcDbEntity
  8
MultiLayer
100
AcDbLine
 10
-4.54387966
 20
1.16501418
 30
0.0
 11
-4.334949419999999
 21
0.9560839399999999
 31
0.0
  0
LINE
  5
16D
330
1F
100
AcDbEntity
  8
MultiLayer
100
AcDbLine
 10
-4.334949419999999
 20
0.9560839399999999
 30
0.0
 11
-4.17079176
 21
0.71040498
 31
0.0
  0
LINE
  5
16E
330
1F
100
AcDbEntity
  8
MultiLayer
100
AcDbLine
 10
-4.17079176
 20
0.71040498
 30
0.0
 11
-4.05771858
 21
0.43742356
 31
0.0
  0
LINE
  5
16F
330
1F
100
AcDbEntity
  8
MultiLayer
100
AcDbLine
 10
-4.05771858
 20
0.43742356
 30
0.0
 11
-4.000075819999999
 21
0.14762734
 31
0.0
  0
LINE
  5
170
330
1F
100
AcDbEntity
  8
MultiLayer
100
AcDbLine
 10
-4.000075819999999
 20
0.14762734
 30
0.0
 11
-4.000075819999999
 21
-0.00010922
 31
0.0
  0
LINE
  5
171
330
1F
100
AcDbEntity
  8
MultiLayer
100
AcDbLine
 10
-4.000075819999999
 20
-0.00010922
 30
0.0
 11
-4.000075819999999
 21
-0.14784578
 31
0.0
  0
LINE
  5
172
330
1F
100
AcDbEntity
  8
MultiLayer
100
AcDbLine
 10
-4.000075819999999
 20
-0.14784578
 30
0.0
 11
-4.05771858
 21
-0.4376419999999999
 31
0.0
  0
LINE
  5
173
330
1F
100
AcDbEntity
  8
MultiLayer
100
AcDbLine
 10
-4.05771858
 20
-0.4376419999999999
 30
0.0
 11
-4.17079176
 21
-0.71062342
 31
0.0
  0
LINE
  5
174
330
1F
100
AcDbEntity
  8
MultiLayer
100
AcDbLine
 10
-4.17079176
 20
-0.71062342
 30
0.0
 11
-4.334949419999999
 21
-0.95630238
 31
0.0
  0
LINE
  5
175
330
1F
100
AcDbEntity
  8
MultiLayer
100
AcDbLine
 10
-4.334949419999999
 20
-0.95630238
 30
0.0
 11
-4.54387966
 21
-1.16523262
 31
0.0
  0
LINE
  5
176
330
1F
100
AcDbEntity
  8
MultiLayer
100
AcDbLine
 10
-4.54387966
 20
-1.16523262
 30
0.0
 11
-4.789558619999999
 21
-1.32939028
 31
0.0
  0
LINE
  5
177
330
1F
100
AcDbEntity
  8
MultiLayer
100
AcDbLine
 10
-4.789558619999999
 20
-1.32939028
 30
0.0
 11
-5.06254004
 21
-1.44246346
 31
0.0
  0
LINE
  5
178
330
1F
100
AcDbEntity
  8
MultiLayer
100
AcDbLine
 10
-5.06254004
 20
-1.44246346
 30
0.0
 11
-5.35233626
 21
-1.50010622
 31
0.0
  0
LINE
  5
179
330
1F
100
AcDbEntity
  8
MultiLayer
100
AcDbLine
 10
-5.35233626
 20
-1.50010622
 30
0.0
 11
-5.500075359999999
 21
-1.50010876
 31
0.0
  0
LINE
  5
17A
330
1F
100
AcDbEntity
  8
MultiLayer
100
AcDbLine
 10
-5.500075359999999
 20
-1.50010876
 30
0.0
 11
-5.64781192
 21
-1.50010876
 31
0.0
  0
LINE
  5
17B
330
1F
100
AcDbEntity
  8
MultiLayer
100
AcDbLine
 10
-5.64781192
 20
-1.50010876
 30
0.0
 11
-5.93760814
 21
-1.44246346
 31
0.0
  0
LINE
  5
17C
330
1F
100
AcDbEntity
  8
MultiLayer
100
AcDbLine
 10
-5.93760814
 20
-1.44246346
 30
0.0
 11
-6.210589559999999
 21
-1.32939028
 31
0.0
  0
LINE
  5
17D
330
1F
100
AcDbEntity
  8
MultiLayer
100
AcDbLine
 10
-6.210589559999999
 20
-1.32939028
 30
0.0
 11
-6.45626852
 21
-1.16523262
 31
0.0
  0
LINE
  5
17E
330
1F
100
AcDbEntity
  8
MultiLayer
100
AcDbLine
 10
-6.45626852
 20
-1.16523262
 30
0.0
 11
-6.66519876
 21
-0.95630238
 31
0.0
  0
LINE
  5
17F
330
1F
100
AcDbEntity
  8
MultiLayer
100
AcDbLine
 10
-6.66519876
 20
-0.95630238
 30
0.0
 11
-6.82935642
 21
-0.71062342
 31
0.0
  0
LINE
  5
180
330
1F
100
AcDbEntity
  8
MultiLayer
100
AcDbLine
 10
-6.82935642
 20
-0.71062342
 30
0.0
 11
-6.9424296
 21
-0.4376419999999999
 31
0.0
  0
LINE
  5
181
330
1F
100
AcDbEntity
  8
MultiLayer
100
AcDbLine
 10
-6.9424296
 20
-0.4376419999999999
 30
0.0
 11
-7.0000749
 21
-0.14784578
 31
0.0
  0
LINE
  5
182
330
1F
100
AcDbEntity
  8
MultiLayer
100
AcDbLine
 10
-7.0000749
 20
-0.14784578
 30
0.0
 11
-7.0000749
 21
-0.00010668
 31
0.0
  0
LINE
  5
183
330
1F
100
AcDbEntity
  8
MultiLayer
100
AcDbLine
 10
-7.0000749
 20
-0.00010668
 30
0.0
 11
-7.0000749
 21
0.14762734
 31
0.0
  0
LINE
  5
184
330
1F
100
AcDbEntity
  8
MultiLayer
100
AcDbLine
 10
-7.0000749
 20
0.14762734
 30
0.0
 11
-6.9424296
 21
0.43742356
 31
0.0
  0
LINE
  5
185
330
1F
100
AcDbEntity
  8
MultiLayer
100
AcDbLine
 10
-6.9424296
 20
0.43742356
 30
0.0
 11
-6.82935642
 21
0.71040498
 31
0.0
  0
LINE
  5
186
330
1F
100
AcDbEntity
  8
MultiLayer
100
AcDbLine
 10
-6.82935642
 20
0.71040498
 30
0.0
 11
-6.66519876
 21
0.9560839399999999
 31
0.0
  0
LINE
  5
187
330
1F
100
AcDbEntity
  8
MultiLayer
100
AcDbLine
 10
-6.66519876
 20
0.9560839399999999
 30
0.0
 11
-6.45626852
 21
1.16501418
 31
0.0
  0
LINE
  5
188
330
1F
100
AcDbEntity
  8
MultiLayer
100
AcDbLine
 10
-6.45626852
 20
1.16501418
 30
0.0
 11
-6.210589559999999
 21
1.32917184
 31
0.0
  0
LINE
  5
189
330
1F
100
AcDbEntity
  8
MultiLayer
100
AcDbLine
 10
-6.210589559999999
 20
1.32917184
 30
0.0
 11
-5.93760814
 21
1.44224502
 31
0.0
  0
LINE
  5
18A
330
1F
100
AcDbEntity
  8
MultiLayer
100
AcDbLine
 10
-5.93760814
 20
1.44224502
 30
0.0
 11
-5.64781192
 21
1.49989032
 31
0.0
  0
LINE
  5
18B
330
1F
100
AcDbEntity
  8
MultiLayer
100
AcDbLine
 10
-5.64781192
 20
1.49989032
 30
0.0
 11
-5.500075359999999
 21
1.49989032
 31
0.0
  0
LINE
  5
18C
330
1F
100
AcDbEntity
  8
MultiLayer
100
AcDbLine
 10
-0.00007366
 20
-4.00010884
 30
0.0
 11
-0.00007366
 21
-4.00010884
 31
0.0
  0
LINE
  5
18D
330
1F
100
AcDbEntity
  8
MultiLayer
100
AcDbLine
 10
-0.00007366
 20
-4.00010884
 30
0.0
 11
0.14766036
 21
-4.00010884
 31
0.0
  0
LINE
  5
18E
330
1F
100
AcDbEntity
  8
MultiLayer
100
AcDbLine
 10
0.14766036
 20
-4.00010884
 30
0.0
 11
0.43745658
 21
-4.0577516
 31
0.0
  0
LINE
  5
18F
330
1F
100
AcDbEntity
  8
MultiLayer
100
AcDbLine
 10
0.43745658
 20
-4.0577516
 30
0.0
 11
0.7104379999999999
 21
-4.17082478
 31
0.0
  0
LINE
  5
190
330
1F
100
AcDbEntity
  8
MultiLayer
100
AcDbLine
 10
0.7104379999999999
 20
-4.17082478
 30
0.0
 11
0.9561169599999999
 21
-4.33498244
 31
0.0
  0
LINE
  5
191
330
1F
100
AcDbEntity
  8
MultiLayer
100
AcDbLine
 10
0.9561169599999999
 20
-4.33498244
 30
0.0
 11
1.1650472
 21
-4.54391268
 31
0.0
  0
LINE
  5
192
330
1F
100
AcDbEntity
  8
MultiLayer
100
AcDbLine
 10
1.1650472
 20
-4.54391268
 30
0.0
 11
1.32920486
 21
-4.789591639999999
 31
0.0
  0
LINE
  5
193
330
1F
100
AcDbEntity
  8
MultiLayer
100
AcDbLine
 10
1.32920486
 20
-4.789591639999999
 30
0.0
 11
1.44227804
 21
-5.062573059999999
 31
0.0
  0
LINE
  5
194
330
1F
100
AcDbEntity
  8
MultiLayer
100
AcDbLine
 10
1.44227804
 20
-5.062573059999999
 30
0.0
 11
1.49992334
 21
-5.35236928
 31
0.0
  0
LINE
  5
195
330
1F
100
AcDbEntity
  8
MultiLayer
100
AcDbLine
 10
1.49992334
 20
-5.35236928
 30
0.0
 11
1.49992334
 21
-5.500108379999999
 31
0.0
  0
LINE
  5
196
330
1F
100
AcDbEntity
  8
MultiLayer
100
AcDbLine
 10
1.49992334
 20
-5.500108379999999
 30
0.0
 11
1.49992334
 21
-5.64784494
 31
0.0
  0
LINE
  5
197
330
1F
100
AcDbEntity
  8
MultiLayer
100
AcDbLine
 10
1.49992334
 20
-5.64784494
 30
0.0
 11
1.44227804
 21
-5.93764116
 31
0.0
  0
LINE
  5
198
330
1F
100
AcDbEntity
  8
MultiLayer
100
AcDbLine
 10
1.44227804
 20
-5.93764116
 30
0.0
 11
1.32920486
 21
-6.21062258
 31
0.0
  0
LINE
  5
199
330
1F
100
AcDbEntity
  8
MultiLayer
100
AcDbLine
 10
1.32920486
 20
-6.21062258
 30
0.0
 11
1.1650472
 21
-6.456301539999999
 31
0.0
  0
LINE
  5
19A
330
1F
100
AcDbEntity
  8
MultiLayer
100
AcDbLine
 10
1.1650472
 20
-6.456301539999999
 30
0.0
 11
0.9561169599999999
 21
-6.665231779999999
 31
0.0
  0
LINE
  5
19B
330
1F
100
AcDbEntity
  8
MultiLayer
100
AcDbLine
 10
0.9561169599999999
 20
-6.665231779999999
 30
0.0
 11
0.7104379999999999
 21
-6.829389439999999
 31
0.0
  0
LINE
  5
19C
330
1F
100
AcDbEntity
  8
MultiLayer
100
AcDbLine
 10
0.7104379999999999
 20
-6.829389439999999
 30
0.0
 11
0.43745658
 21
-6.94246262
 31
0.0
  0
LINE
  5
19D
330
1F
100
AcDbEntity
  8
MultiLayer
100
AcDbLine
 10
0.43745658
 20
-6.94246262
 30
0.0
 11
0.14766036
 21
-7.000107919999999
 31
0.0
  0
LINE
  5
19E
330
1F
100
AcDbEntity
  8
MultiLayer
100
AcDbLine
 10
0.14766036
 20
-7.000107919999999
 30
0.0
 11
-0.00007366
 21
-7.000107919999999
 31
0.0
  0
LINE
  5
19F
330
1F
100
AcDbEntity
  8
MultiLayer
100
AcDbLine
 10
-0.00007366
 20
-7.000107919999999
 30
0.0
 11
-0.14781276
 21
-7.000107919999999
 31
0.0
  0
LINE
  5
1A0
330
1F
100
AcDbEntity
  8
MultiLayer
100
AcDbLine
 10
-0.14781276
 20
-7.000107919999999
 30
0.0
 11
-0.43760898
 21
-6.94246262
 31
0.0
  0
LINE
  5
1A1
330
1F
100
AcDbEntity
  8
MultiLayer
100
AcDbLine
 10
-0.43760898
 20
-6.94246262
 30
0.0
 11
-0.7105904
 21
-6.829389439999999
 31
0.0
  0
LINE
  5
1A2
330
1F
100
AcDbEntity
  8
MultiLayer
100
AcDbLine
 10
-0.7105904
 20
-6.829389439999999
 30
0.0
 11
-0.95626936
 21
-6.665231779999999
 31
0.0
  0
LINE
  5
1A3
330
1F
100
AcDbEntity
  8
MultiLayer
100
AcDbLine
 10
-0.95626936
 20
-6.665231779999999
 30
0.0
 11
-1.1651996
 21
-6.456301539999999
 31
0.0
  0
LINE
  5
1A4
330
1F
100
AcDbEntity
  8
MultiLayer
100
AcDbLine
 10
-1.1651996
 20
-6.456301539999999
 30
0.0
 11
-1.32935726
 21
-6.21062258
 31
0.0
  0
LINE
  5
1A5
330
1F
100
AcDbEntity
  8
MultiLayer
100
AcDbLine
 10
-1.32935726
 20
-6.21062258
 30
0.0
 11
-1.44243044
 21
-5.93764116
 31
0.0
  0
LINE
  5
1A6
330
1F
100
AcDbEntity
  8
MultiLayer
100
AcDbLine
 10
-1.44243044
 20
-5.93764116
 30
0.0
 11
-1.50007574
 21
-5.64784494
 31
0.0
  0
LINE
  5
1A7
330
1F
100
AcDbEntity
  8
MultiLayer
100
AcDbLine
 10
-1.50007574
 20
-5.64784494
 30
0.0
 11
-1.50007574
 21
-5.500108379999999
 31
0.0
  0
LINE
  5
1A8
330
1F
100
AcDbEntity
  8
MultiLayer
100
AcDbLine
 10
-1.50007574
 20
-5.500108379999999
 30
0.0
 11
-1.5000732
 21
-5.35236928
 31
0.0
  0
LINE
  5
1A9
330
1F
100
AcDbEntity
  8
MultiLayer
100
AcDbLine
 10
-1.5000732
 20
-5.35236928
 30
0.0
 11
-1.44243044
 21
-5.062573059999999
 31
0.0
  0
LINE
  5
1AA
330
1F
100
AcDbEntity
  8
MultiLayer
100
AcDbLine
 10
-1.44243044
 20
-5.062573059999999
 30
0.0
 11
-1.32935726
 21
-4.789591639999999
 31
0.0
  0
LINE
  5
1AB
330
1F
100
AcDbEntity
  8
MultiLayer
100
AcDbLine
 10
-1.32935726
 20
-4.789591639999999
 30
0.0
 11
-1.1651996
 21
-4.54391268
 31
0.0
  0
LINE
  5
1AC
330
1F
100
AcDbEntity
  8
MultiLayer
100
AcDbLine
 10
-1.1651996
 20
-4.54391268
 30
0.0
 11
-0.95626936
 21
-4.33498244
 31
0.0
  0
LINE
  5
1AD
330
1F
100
AcDbEntity
  8
MultiLayer
100
AcDbLine
 10
-0.95626936
 20
-4.33498244
 30
0.0
 11
-0.7105904
 21
-4.17082478
 31
0.0
  0
LINE
  5
1AE
330
1F
100
AcDbEntity
  8
MultiLayer
100
AcDbLine
 10
-0.7105904
 20
-4.17082478
 30
0.0
 11
-0.43760898
 21
-4.0577516
 31
0.0
  0
LINE
  5
1AF
330
1F
100
AcDbEntity
  8
MultiLayer
100
AcDbLine
 10
-0.43760898
 20
-4.0577516
 30
0.0
 11
-0.14781276
 21
-4.00010884
 31
0.0
  0
LINE
  5
1B0
330
1F
100
AcDbEntity
  8
MultiLayer
100
AcDbLine
 10
-0.14781276
 20
-4.00010884
 30
0.0
 11
-0.00007366
 21
-4.00010884
 31
0.0
  0
LINE
  5
1B1
330
1F
100
AcDbEntity
  8
MultiLayer
100
AcDbLine
 10
12.2499247
 20
1.49989032
 30
0.0
 11
12.2499247
 21
1.49989032
 31
0.0
  0
LINE
  5
1B2
330
1F
100
AcDbEntity
  8
MultiLayer
100
AcDbLine
 10
12.2499247
 20
1.49989032
 30
0.0
 11
12.39766126
 21
1.49988778
 31
0.0
  0
LINE
  5
1B3
330
1F
100
AcDbEntity
  8
MultiLayer
100
AcDbLine
 10
12.39766126
 20
1.49988778
 30
0.0
 11
12.68745748
 21
1.44224502
 31
0.0
  0
LINE
  5
1B4
330
1F
100
AcDbEntity
  8
MultiLayer
100
AcDbLine
 10
12.68745748
 20
1.44224502
 30
0.0
 11
12.9604389
 21
1.32917184
 31
0.0
  0
LINE
  5
1B5
330
1F
100
AcDbEntity
  8
MultiLayer
100
AcDbLine
 10
12.9604389
 20
1.32917184
 30
0.0
 11
13.20611786
 21
1.16501418
 31
0.0
  0
LINE
  5
1B6
330
1F
100
AcDbEntity
  8
MultiLayer
100
AcDbLine
 10
13.20611786
 20
1.16501418
 30
0.0
 11
13.4150481
 21
0.9560839399999999
 31
0.0
  0
LINE
  5
1B7
330
1F
100
AcDbEntity
  8
MultiLayer
100
AcDbLine
 10
13.4150481
 20
0.9560839399999999
 30
0.0
 11
13.57920576
 21
0.71040498
 31
0.0
  0
LINE
  5
1B8
330
1F
100
AcDbEntity
  8
MultiLayer
100
AcDbLine
 10
13.57920576
 20
0.71040498
 30
0.0
 11
13.69227894
 21
0.43742356
 31
0.0
  0
LINE
  5
1B9
330
1F
100
AcDbEntity
  8
MultiLayer
100
AcDbLine
 10
13.69227894
 20
0.43742356
 30
0.0
 11
13.74992424
 21
0.14762734
 31
0.0
  0
LINE
  5
1BA
330
1F
100
AcDbEntity
  8
MultiLayer
100
AcDbLine
 10
13.74992424
 20
0.14762734
 30
0.0
 11
13.74992424
 21
-0.00010922
 31
0.0
  0
LINE
  5
1BB
330
1F
100
AcDbEntity
  8
MultiLayer
100
AcDbLine
 10
13.74992424
 20
-0.00010922
 30
0.0
 11
13.74992424
 21
-0.14784578
 31
0.0
  0
LINE
  5
1BC
330
1F
100
AcDbEntity
  8
MultiLayer
100
AcDbLine
 10
13.74992424
 20
-0.14784578
 30
0.0
 11
13.69227894
 21
-0.4376419999999999
 31
0.0
  0
LINE
  5
1BD
330
1F
100
AcDbEntity
  8
MultiLayer
100
AcDbLine
 10
13.69227894
 20
-0.4376419999999999
 30
0.0
 11
13.57920576
 21
-0.71062342
 31
0.0
  0
LINE
  5
1BE
330
1F
100
AcDbEntity
  8
MultiLayer
100
AcDbLine
 10
13.57920576
 20
-0.71062342
 30
0.0
 11
13.4150481
 21
-0.95630238
 31
0.0
  0
LINE
  5
1BF
330
1F
100
AcDbEntity
  8
MultiLayer
100
AcDbLine
 10
13.4150481
 20
-0.95630238
 30
0.0
 11
13.20611786
 21
-1.16523262
 31
0.0
  0
LINE
  5
1C0
330
1F
100
AcDbEntity
  8
MultiLayer
100
AcDbLine
 10
13.20611786
 20
-1.16523262
 30
0.0
 11
12.9604389
 21
-1.32939028
 31
0.0
  0
LINE
  5
1C1
330
1F
100
AcDbEntity
  8
MultiLayer
100
AcDbLine
 10
12.9604389
 20
-1.32939028
 30
0.0
 11
12.68745748
 21
-1.44246346
 31
0.0
  0
LINE
  5
1C2
330
1F
100
AcDbEntity
  8
MultiLayer
100
AcDbLine
 10
12.68745748
 20
-1.44246346
 30
0.0
 11
12.39766126
 21
-1.50010622
 31
0.0
  0
LINE
  5
1C3
330
1F
100
AcDbEntity
  8
MultiLayer
100
AcDbLine
 10
12.39766126
 20
-1.50010622
 30
0.0
 11
12.2499247
 21
-1.50010876
 31
0.0
  0
LINE
  5
1C4
330
1F
100
AcDbEntity
  8
MultiLayer
100
AcDbLine
 10
12.2499247
 20
-1.50010876
 30
0.0
 11
12.1021856
 21
-1.50010876
 31
0.0
  0
LINE
  5
1C5
330
1F
100
AcDbEntity
  8
MultiLayer
100
AcDbLine
 10
12.1021856
 20
-1.50010876
 30
0.0
 11
11.81238938
 21
-1.44246346
 31
0.0
  0
LINE
  5
1C6
330
1F
100
AcDbEntity
  8
MultiLayer
100
AcDbLine
 10
11.81238938
 20
-1.44246346
 30
0.0
 11
11.53940796
 21
-1.32939028
 31
0.0
  0
LINE
  5
1C7
330
1F
100
AcDbEntity
  8
MultiLayer
100
AcDbLine
 10
11.53940796
 20
-1.32939028
 30
0.0
 11
11.293729
 21
-1.16523262
 31
0.0
  0
LINE
  5
1C8
330
1F
100
AcDbEntity
  8
MultiLayer
100
AcDbLine
 10
11.293729
 20
-1.16523262
 30
0.0
 11
11.08479876
 21
-0.95630238
 31
0.0
  0
LINE
  5
1C9
330
1F
100
AcDbEntity
  8
MultiLayer
100
AcDbLine
 10
11.08479876
 20
-0.95630238
 30
0.0
 11
10.9206411
 21
-0.71062342
 31
0.0
  0
LINE
  5
1CA
330
1F
100
AcDbEntity
  8
MultiLayer
100
AcDbLine
 10
10.9206411
 20
-0.71062342
 30
0.0
 11
10.80756792
 21
-0.4376419999999999
 31
0.0
  0
LINE
  5
1CB
330
1F
100
AcDbEntity
  8
MultiLayer
100
AcDbLine
 10
10.80756792
 20
-0.4376419999999999
 30
0.0
 11
10.74992516
 21
-0.14784578
 31
0.0
  0
LINE
  5
1CC
330
1F
100
AcDbEntity
  8
MultiLayer
100
AcDbLine
 10
10.74992516
 20
-0.14784578
 30
0.0
 11
10.74992516
 21
-0.00010668
 31
0.0
  0
LINE
  5
1CD
330
1F
100
AcDbEntity
  8
MultiLayer
100
AcDbLine
 10
10.74992516
 20
-0.00010668
 30
0.0
 11
10.74992516
 21
0.14762734
 31
0.0
  0
LINE
  5
1CE
330
1F
100
AcDbEntity
  8
MultiLayer
100
AcDbLine
 10
10.74992516
 20
0.14762734
 30
0.0
 11
10.80756792
 21
0.43742356
 31
0.0
  0
LINE
  5
1CF
330
1F
100
AcDbEntity
  8
MultiLayer
100
AcDbLine
 10
10.80756792
 20
0.43742356
 30
0.0
 11
10.9206411
 21
0.71040498
 31
0.0
  0
LINE
  5
1D0
330
1F
100
AcDbEntity
  8
MultiLayer
100
AcDbLine
 10
10.9206411
 20
0.71040498
 30
0.0
 11
11.08479876
 21
0.9560839399999999
 31
0.0
  0
LINE
  5
1D1
330
1F
100
AcDbEntity
  8
MultiLayer
100
AcDbLine
 10
11.08479876
 20
0.9560839399999999
 30
0.0
 11
11.293729
 21
1.16501418
 31
0.0
  0
LINE
  5
1D2
330
1F
100
AcDbEntity
  8
MultiLayer
100
AcDbLine
 10
11.293729
 20
1.16501418
 30
0.0
 11
11.53940796
 21
1.32917184
 31
0.0
  0
LINE
  5
1D3
330
1F
100
AcDbEntity
  8
MultiLayer
100
AcDbLine
 10
11.53940796
 20
1.32917184
 30
0.0
 11
11.81238938
 21
1.44224502
 31
0.0
  0
LINE
  5
1D4
330
1F
100
AcDbEntity
  8
MultiLayer
100
AcDbLine
 10
11.81238938
 20
1.44224502
 30
0.0
 11
12.1021856
 21
1.49989032
 31
0.0
  0
LINE
  5
1D5
330
1F
100
AcDbEntity
  8
MultiLayer
100
AcDbLine
 10
12.1021856
 20
1.49989032
 30
0.0
 11
12.2499247
 21
1.49989032
 31
0.0
  0
LINE
  5
1D6
330
1F
100
AcDbEntity
  8
MultiLayer
100
AcDbLine
 10
-0.00007366
 20
13.74989122
 30
0.0
 11
-0.00007366
 21
13.74989122
 31
0.0
  0
LINE
  5
1D7
330
1F
100
AcDbEntity
  8
MultiLayer
100
AcDbLine
 10
-0.00007366
 20
13.74989122
 30
0.0
 11
0.14766036
 21
13.74989122
 31
0.0
  0
LINE
  5
1D8
330
1F
100
AcDbEntity
  8
MultiLayer
100
AcDbLine
 10
0.14766036
 20
13.74989122
 30
0.0
 11
0.43745658
 21
13.69224592
 31
0.0
  0
LINE
  5
1D9
330
1F
100
AcDbEntity
  8
MultiLayer
100
AcDbLine
 10
0.43745658
 20
13.69224592
 30
0.0
 11
0.7104379999999999
 21
13.57917274
 31
0.0
  0
LINE
  5
1DA
330
1F
100
AcDbEntity
  8
MultiLayer
100
AcDbLine
 10
0.7104379999999999
 20
13.57917274
 30
0.0
 11
0.9561169599999999
 21
13.41501508
 31
0.0
  0
LINE
  5
1DB
330
1F
100
AcDbEntity
  8
MultiLayer
100
AcDbLine
 10
0.9561169599999999
 20
13.41501508
 30
0.0
 11
1.1650472
 21
13.20608484
 31
0.0
  0
LINE
  5
1DC
330
1F
100
AcDbEntity
  8
MultiLayer
100
AcDbLine
 10
1.1650472
 20
13.20608484
 30
0.0
 11
1.32920486
 21
12.96040588
 31
0.0
  0
LINE
  5
1DD
330
1F
100
AcDbEntity
  8
MultiLayer
100
AcDbLine
 10
1.32920486
 20
12.96040588
 30
0.0
 11
1.44227804
 21
12.68742446
 31
0.0
  0
LINE
  5
1DE
330
1F
100
AcDbEntity
  8
MultiLayer
100
AcDbLine
 10
1.44227804
 20
12.68742446
 30
0.0
 11
1.49992334
 21
12.39762824
 31
0.0
  0
LINE
  5
1DF
330
1F
100
AcDbEntity
  8
MultiLayer
100
AcDbLine
 10
1.49992334
 20
12.39762824
 30
0.0
 11
1.49992334
 21
12.24989168
 31
0.0
  0
LINE
  5
1E0
330
1F
100
AcDbEntity
  8
MultiLayer
100
AcDbLine
 10
1.49992334
 20
12.24989168
 30
0.0
 11
1.49992334
 21
12.10215258
 31
0.0
  0
LINE
  5
1E1
330
1F
100
AcDbEntity
  8
MultiLayer
100
AcDbLine
 10
1.49992334
 20
12.10215258
 30
0.0
 11
1.44227804
 21
11.81235636
 31
0.0
  0
LINE
  5
1E2
330
1F
100
AcDbEntity
  8
MultiLayer
100
AcDbLine
 10
1.44227804
 20
11.81235636
 30
0.0
 11
1.32920486
 21
11.53937494
 31
0.0
  0
LINE
  5
1E3
330
1F
100
AcDbEntity
  8
MultiLayer
100
AcDbLine
 10
1.32920486
 20
11.53937494
 30
0.0
 11
1.1650472
 21
11.29369598
 31
0.0
  0
LINE
  5
1E4
330
1F
100
AcDbEntity
  8
MultiLayer
100
AcDbLine
 10
1.1650472
 20
11.29369598
 30
0.0
 11
0.9561169599999999
 21
11.08476574
 31
0.0
  0
LINE
  5
1E5
330
1F
100
AcDbEntity
  8
MultiLayer
100
AcDbLine
 10
0.9561169599999999
 20
11.08476574
 30
0.0
 11
0.7104379999999999
 21
10.92060808
 31
0.0
  0
LINE
  5
1E6
330
1F
100
AcDbEntity
  8
MultiLayer
100
AcDbLine
 10
0.7104379999999999
 20
10.92060808
 30
0.0
 11
0.43745658
 21
10.8075349
 31
0.0
  0
LINE
  5
1E7
330
1F
100
AcDbEntity
  8
MultiLayer
100
AcDbLine
 10
0.43745658
 20
10.8075349
 30
0.0
 11
0.14766036
 21
10.74989214
 31
0.0
  0
LINE
  5
1E8
330
1F
100
AcDbEntity
  8
MultiLayer
100
AcDbLine
 10
0.14766036
 20
10.74989214
 30
0.0
 11
-0.00007366
 21
10.74989214
 31
0.0
  0
LINE
  5
1E9
330
1F
100
AcDbEntity
  8
MultiLayer
100
AcDbLine
 10
-0.00007366
 20
10.74989214
 30
0.0
 11
-0.14781276
 21
10.74989214
 31
0.0
  0
LINE
  5
1EA
330
1F
100
AcDbEntity
  8
MultiLayer
100
AcDbLine
 10
-0.14781276
 20
10.74989214
 30
0.0
 11
-0.43760898
 21
10.8075349
 31
0.0
  0
LINE
  5
1EB
330
1F
100
AcDbEntity
  8
MultiLayer
100
AcDbLine
 10
-0.43760898
 20
10.8075349
 30
0.0
 11
-0.7105904
 21
10.92060808
 31
0.0
  0
LINE
  5
1EC
330
1F
100
AcDbEntity
  8
MultiLayer
100
AcDbLine
 10
-0.7105904
 20
10.92060808
 30
0.0
 11
-0.95626936
 21
11.08476574
 31
0.0
  0
LINE
  5
1ED
330
1F
100
AcDbEntity
  8
MultiLayer
100
AcDbLine
 10
-0.95626936
 20
11.08476574
 30
0.0
 11
-1.1651996
 21
11.29369598
 31
0.0
  0
LINE
  5
1EE
330
1F
100
AcDbEntity
  8
MultiLayer
100
AcDbLine
 10
-1.1651996
 20
11.29369598
 30
0.0
 11
-1.32935726
 21
11.53937494
 31
0.0
  0
LINE
  5
1EF
330
1F
100
AcDbEntity
  8
MultiLayer
100
AcDbLine
 10
-1.32935726
 20
11.53937494
 30
0.0
 11
-1.44243044
 21
11.81235636
 31
0.0
  0
LINE
  5
1F0
330
1F
100
AcDbEntity
  8
MultiLayer
100
AcDbLine
 10
-1.44243044
 20
11.81235636
 30
0.0
 11
-1.50007574
 21
12.10215258
 31
0.0
  0
LINE
  5
1F1
330
1F
100
AcDbEntity
  8
MultiLayer
100
AcDbLine
 10
-1.50007574
 20
12.10215258
 30
0.0
 11
-1.50007574
 21
12.24989168
 31
0.0
  0
LINE
  5
1F2
330
1F
100
AcDbEntity
  8
MultiLayer
100
AcDbLine
 10
-1.50007574
 20
12.24989168
 30
0.0
 11
-1.5000732
 21
12.39762824
 31
0.0
  0
LINE
  5
1F3
330
1F
100
AcDbEntity
  8
MultiLayer
100
AcDbLine
 10
-1.5000732
 20
12.39762824
 30
0.0
 11
-1.44243044
 21
12.68742446
 31
0.0
  0
LINE
  5
1F4
330
1F
100
AcDbEntity
  8
MultiLayer
100
AcDbLine
 10
-1.44243044
 20
12.68742446
 30
0.0
 11
-1.32935726
 21
12.96040588
 31
0.0
  0
LINE
  5
1F5
330
1F
100
AcDbEntity
  8
MultiLayer
100
AcDbLine
 10
-1.32935726
 20
12.96040588
 30
0.0
 11
-1.1651996
 21
13.20608484
 31
0.0
  0
LINE
  5
1F6
330
1F
100
AcDbEntity
  8
MultiLayer
100
AcDbLine
 10
-1.1651996
 20
13.20608484
 30
0.0
 11
-0.95626936
 21
13.41501508
 31
0.0
  0
LINE
  5
1F7
330
1F
100
AcDbEntity
  8
MultiLayer
100
AcDbLine
 10
-0.95626936
 20
13.41501508
 30
0.0
 11
-0.7105904
 21
13.57917274
 31
0.0
  0
LINE
  5
1F8
330
1F
100
AcDbEntity
  8
MultiLayer
100
AcDbLine
 10
-0.7105904
 20
13.57917274
 30
0.0
 11
-0.43760898
 21
13.69224592
 31
0.0
  0
LINE
  5
1F9
330
1F
100
AcDbEntity
  8
MultiLayer
100
AcDbLine
 10
-0.43760898
 20
13.69224592
 30
0.0
 11
-0.14781276
 21
13.74989122
 31
0.0
  0
LINE
  5
1FA
330
1F
100
AcDbEntity
  8
MultiLayer
100
AcDbLine
 10
-0.14781276
 20
13.74989122
 30
0.0
 11
-0.00007366
 21
13.74989122
 31
0.0
  0
ENDSEC
  0
SECTION
  2
OBJECTS
  0
DICTIONARY
  5
C
330
0
100
AcDbDictionary
281
     1
  3
ACAD_DETAILVIEWSTYLE
350
202
  3
ACAD_GROUP
350
D
  3
ACAD_LAYOUT
350
1A
  3
ACAD_MATERIAL
350
43
  3
ACAD_MLEADERSTYLE
350
6B
  3
ACAD_MLINESTYLE
350
17
  3
ACAD_PLOTSETTINGS
350
19
  3
ACAD_PLOTSTYLENAME
350
E
  3
ACAD_SCALELIST
350
47
  3
ACAD_SECTIONVIEWSTYLE
350
203
  3
ACAD_TABLESTYLE
350
69
  3
ACAD_VISUALSTYLE
350
2A
  3
ACDB_RECOMPOSE_DATA
350
209
  3
AcDbVariableDictionary
350
1FB
  3
APPDATA
350
204
  0
SUN
  5
6D
330
29
100
AcDbSun
 90
        1
290
     0
 63
     7
421
 16777215
 40
1.0
291
     1
 91
  2455826
 92
 54000000
292
     0
 70
     2
 71
   256
280
     1
  0
DICTIONARY
  5
205
330
1F
100
AcDbDictionary
280
     1
281
     1
  3
DIM_BOUNDING_BOXES_V1
360
206
  0
DICTIONARY
  5
202
102
{ACAD_REACTORS
330
C
102
}
330
C
100
AcDbDictionary
281
     1
  0
DICTIONARY
  5
D
102
{ACAD_REACTORS
330
C
102
}
330
C
100
AcDbDictionary
281
     1
  0
DICTIONARY
  5
1A
102
{ACAD_REACTORS
330
C
102
}
330
C
100
AcDbDictionary
281
     1
  3
Layout1
350
1E
  3
Layout2
350
26
  3
Model
350
22
  0
DICTIONARY
  5
43
102
{ACAD_REACTORS
330
C
102
}
330
C
100
AcDbDictionary
281
     1
  3
ByBlock
350
45
  3
ByLayer
350
44
  3
Global
350
46
  0
DICTIONARY
  5
6B
102
{ACAD_REACTORS
330
C
102
}
330
C
100
AcDbDictionary
281
     1
  3
Standard
350
6C
  0
DICTIONARY
  5
17
102
{ACAD_REACTORS
330
C
102
}
330
C
100
AcDbDictionary
281
     1
  3
Standard
350
18
  0
DICTIONARY
  5
19
102
{ACAD_REACTORS
330
C
102
}
330
C
100
AcDbDictionary
281
     1
  0
ACDBDICTIONARYWDFLT
  5
E
102
{ACAD_REACTORS
330
C
102
}
330
C
100
AcDbDictionary
281
     1
  3
Normal
350
F
100
AcDbDictionaryWithDefault
340
F
  0
DICTIONARY
  5
47
102
{ACAD_REACTORS
330
C
102
}
330
C
100
AcDbDictionary
281
     1
  3
A0
350
48
  3
A1
350
49
  3
A2
350
4A
  3
A3
350
4B
  3
A4
350
4C
  3
A5
350
4D
  3
A6
350
4E
  3
A7
350
4F
  3
A8
350
50
  3
A9
350
51
  3
B0
350
52
  3
B1
350
53
  3
B2
350
54
  3
B3
350
55
  3
B4
350
56
  3
B5
350
57
  3
B6
350
58
  3
B7
350
59
  3
B8
350
5A
  3
B9
350
5B
  3
C0
350
5C
  3
C1
350
5D
  3
C2
350
5E
  3
C3
350
5F
  3
C4
350
60
  3
C5
350
61
  3
C6
350
62
  3
C7
350
63
  3
C8
350
64
  3
C9
350
65
  3
D0
350
66
  3
D1
350
67
  3
D2
350
68
  0
DICTIONARY
  5
203
102
{ACAD_REACTORS
330
C
102
}
330
C
100
AcDbDictionary
281
     1
  0
DICTIONARY
  5
69
102
{ACAD_REACTORS
330
C
102
}
330
C
100
AcDbDictionary
281
     1
  3
Standard
350
6A
  0
DICTIONARY
  5
2A
102
{ACAD_REACTORS
330
C
102
}
330
C
100
AcDbDictionary
281
     1
  3
2dWireframe
350
2F
  3
Basic
350
32
  3
Brighten
350
36
  3
ColorChange
350
3A
  3
Conceptual
350
34
  3
Dim
350
35
  3
EdgeColorOff
350
3D
  3
Facepattern
350
39
  3
Flat
350
2B
  3
FlatWithEdges
350
2C
  3
Gouraud
350
2D
  3
GouraudWithEdges
350
2E
  3
Hidden
350
31
  3
JitterOff
350
3B
  3
Linepattern
350
38
  3
OverhangOff
350
3C
  3
Realistic
350
33
  3
Shaded
350
42
  3
Shaded with edges
350
41
  3
Shades of Gray
350
3E
  3
Sketchy
350
3F
  3
Thicken
350
37
  3
Wireframe
350
30
  3
X-Ray
350
40
  0
XRECORD
  5
209
102
{ACAD_REACTORS
330
C
102
}
330
C
100
AcDbXrecord
280
     1
 90
        1
330
6A
  0
DICTIONARY
  5
1FB
102
{ACAD_REACTORS
330
C
102
}
330
C
100
AcDbDictionary
281
     1
  3
CANNOSCALE
350
1FC
  3
CMLEADERSTYLE
350
201
  3
CTABLESTYLE
350
200
  0
DICTIONARY
  5
204
102
{ACAD_REACTORS
330
C
102
}
330
C
100
AcDbDictionary
281
     1
  0
DICTIONARY
  5
206
102
{ACAD_REACTORS
330
205
102
}
330
205
100
AcDbDictionary
281
     1
  0
LAYOUT
  5
1E
102
{ACAD_REACTORS
330
1A
102
}
330
1A
100
AcDbPlotSettings
  1

  2
none_device
  4

  6

 40
0.0
 41
0.0
 42
0.0
 43
0.0
 44
0.0
 45
0.0
 46
0.0
 47
0.0
 48
0.0
 49
0.0
140
0.0
141
0.0
142
1.0
143
1.0
 70
   688
 72
     1
 73
     0
 74
     5
  7

 75
    16
 76
     0
 77
     2
 78
   300
147
1.0
148
0.0
149
0.0
100
AcDbLayout
  1
Layout1
 70
     1
 71
     1
 10
0.0
 20
0.0
 11
420.0
 21
297.0
 12
0.0
 22
0.0
 32
0.0
 14
1.000000000000000E+20
 24
1.000000000000000E+20
 34
1.000000000000000E+20
 15
-1.000000000000000E+20
 25
-1.000000000000000E+20
 35
-1.000000000000000E+20
146
0.0
 13
0.0
 23
0.0
 33
0.0
 16
1.0
 26
0.0
 36
0.0
 17
0.0
 27
1.0
 37
0.0
 76
     0
330
1B
  0
LAYOUT
  5
26
102
{ACAD_REACTORS
330
1A
102
}
330
1A
100
AcDbPlotSettings
  1

  2
none_device
  4

  6

 40
0.0
 41
0.0
 42
0.0
 43
0.0
 44
0.0
 45
0.0
 46
0.0
 47
0.0
 48
0.0
 49
0.0
140
0.0
141
0.0
142
1.0
143
1.0
 70
   688
 72
     1
 73
     0
 74
     5
  7

 75
    16
 76
     0
 77
     2
 78
   300
147
1.0
148
0.0
149
0.0
100
AcDbLayout
  1
Layout2
 70
     1
 71
     2
 10
0.0
 20
0.0
 11
0.0
 21
0.0
 12
0.0
 22
0.0
 32
0.0
 14
0.0
 24
0.0
 34
0.0
 15
0.0
 25
0.0
 35
0.0
146
0.0
 13
0.0
 23
0.0
 33
0.0
 16
1.0
 26
0.0
 36
0.0
 17
0.0
 27
1.0
 37
0.0
 76
     0
330
23
  0
LAYOUT
  5
22
102
{ACAD_REACTORS
330
1A
102
}
330
1A
100
AcDbPlotSettings
  1

  2
none_device
  4
Letter_(8.50_x_11.00_Inches)
  6

 40
6.35
 41
6.35
 42
6.35000508
 43
6.35000508
 44
215.9
 45
279.4
 46
0.0
 47
0.0
 48
0.0
 49
0.0
140
0.0
141
0.0
142
1.0
143
1.0
 70
  1712
 72
     1
 73
     0
 74
     0
  7

 75
     0
 76
     0
 77
     2
 78
   300
147
1.0
148
0.0
149
0.0
100
AcDbLayout
  1
Model
 70
     1
 71
     0
 10
-67.40007602
 20
-50.12510675999999
 11
50.12492388
 21
50.12489086
 12
0.0
 22
0.0
 32
0.0
 14
-63.34648370177155
 24
-50.00010828000001
 34
0.0
 15
49.99992285999997
 25
49.99988983999998
 35
0.0
146
0.0
 13
0.0
 23
0.0
 33
0.0
 16
1.0
 26
0.0
 36
0.0
 17
0.0
 27
1.0
 37
0.0
 76
     0
330
1F
331
29
  0
MATERIAL
  5
45
102
{ACAD_REACTORS
330
43
102
}
330
43
100
AcDbMaterial
  1
ByBlock
 72
     1
 94
      127
  0
MATERIAL
  5
44
102
{ACAD_REACTORS
330
43
102
}
330
43
100
AcDbMaterial
  1
ByLayer
 72
     1
 94
      127
  0
MATERIAL
  5
46
102
{ACAD_REACTORS
330
43
102
}
330
43
100
AcDbMaterial
  1
Global
 72
     1
 94
      127
  0
MLEADERSTYLE
  5
6C
102
{ACAD_REACTORS
330
6B
102
}
330
6B
100
AcDbMLeaderStyle
179
     2
170
     2
171
     1
172
     0
 90
        2
 40
0.0
 41
0.0
173
     1
 91
-1056964608
340
14
 92
       -2
290
     1
 42
2.0
291
     1
 43
8.0
  3
Standard
341
0
 44
4.0
300

342
11
174
     1
178
     6
175
     1
176
     0
 93
-1056964608
 45
4.0
292
     0
297
     0
 46
4.0
343
0
 94
-1056964608
 47
1.0
 49
1.0
140
1.0
293
     1
141
0.0
294
     1
177
     0
142
1.0
295
     0
296
     0
143
3.75
271
     0
272
     9
273
     9
298
     0
  0
MLINESTYLE
  5
18
102
{ACAD_REACTORS
330
17
102
}
330
17
100
AcDbMlineStyle
  2
Standard
 70
     0
  3

 62
   256
 51
90.0
 52
90.0
 71
     2
 49
0.5
 62
   256
  6
BYLAYER
 49
-0.5
 62
   256
  6
BYLAYER
  0
ACDBPLACEHOLDER
  5
F
102
{ACAD_REACTORS
330
E
102
}
330
E
  0
SCALE
  5
48
102
{ACAD_REACTORS
330
47
102
}
330
47
100
AcDbScale
 70
     0
300
1:1
140
1.0
141
1.0
290
     1
  0
SCALE
  5
49
102
{ACAD_REACTORS
330
47
102
}
330
47
100
AcDbScale
 70
     0
300
1:2
140
1.0
141
2.0
290
     0
  0
SCALE
  5
4A
102
{ACAD_REACTORS
330
47
102
}
330
47
100
AcDbScale
 70
     0
300
1:4
140
1.0
141
4.0
290
     0
  0
SCALE
  5
4B
102
{ACAD_REACTORS
330
47
102
}
330
47
100
AcDbScale
 70
     0
300
1:5
140
1.0
141
5.0
290
     0
  0
SCALE
  5
4C
102
{ACAD_REACTORS
330
47
102
}
330
47
100
AcDbScale
 70
     0
300
1:8
140
1.0
141
8.0
290
     0
  0
SCALE
  5
4D
102
{ACAD_REACTORS
330
47
102
}
330
47
100
AcDbScale
 70
     0
300
1:10
140
1.0
141
10.0
290
     0
  0
SCALE
  5
4E
102
{ACAD_REACTORS
330
47
102
}
330
47
100
AcDbScale
 70
     0
300
1:16
140
1.0
141
16.0
290
     0
  0
SCALE
  5
4F
102
{ACAD_REACTORS
330
47
102
}
330
47
100
AcDbScale
 70
     0
300
1:20
140
1.0
141
20.0
290
     0
  0
SCALE
  5
50
102
{ACAD_REACTORS
330
47
102
}
330
47
100
AcDbScale
 70
     0
300
1:30
140
1.0
141
30.0
290
     0
  0
SCALE
  5
51
102
{ACAD_REACTORS
330
47
102
}
330
47
100
AcDbScale
 70
     0
300
1:40
140
1.0
141
40.0
290
     0
  0
SCALE
  5
52
102
{ACAD_REACTORS
330
47
102
}
330
47
100
AcDbScale
 70
     0
300
1:50
140
1.0
141
50.0
290
     0
  0
SCALE
  5
53
102
{ACAD_REACTORS
330
47
102
}
330
47
100
AcDbScale
 70
     0
300
1:100
140
1.0
141
100.0
290
     0
  0
SCALE
  5
54
102
{ACAD_REACTORS
330
47
102
}
330
47
100
AcDbScale
 70
     0
300
2:1
140
2.0
141
1.0
290
     0
  0
SCALE
  5
55
102
{ACAD_REACTORS
330
47
102
}
330
47
100
AcDbScale
 70
     0
300
4:1
140
4.0
141
1.0
290
     0
  0
SCALE
  5
56
102
{ACAD_REACTORS
330
47
102
}
330
47
100
AcDbScale
 70
     0
300
8:1
140
8.0
141
1.0
290
     0
  0
SCALE
  5
57
102
{ACAD_REACTORS
330
47
102
}
330
47
100
AcDbScale
 70
     0
300
10:1
140
10.0
141
1.0
290
     0
  0
SCALE
  5
58
102
{ACAD_REACTORS
330
47
102
}
330
47
100
AcDbScale
 70
     0
300
100:1
140
100.0
141
1.0
290
     0
  0
SCALE
  5
59
102
{ACAD_REACTORS
330
47
102
}
330
47
100
AcDbScale
 70
     0
300
1/128" = 1'-0"
140
0.0078125
141
12.0
290
     0
  0
SCALE
  5
5A
102
{ACAD_REACTORS
330
47
102
}
330
47
100
AcDbScale
 70
     0
300
1/64" = 1'-0"
140
0.015625
141
12.0
290
     0
  0
SCALE
  5
5B
102
{ACAD_REACTORS
330
47
102
}
330
47
100
AcDbScale
 70
     0
300
1/32" = 1'-0"
140
0.03125
141
12.0
290
     0
  0
SCALE
  5
5C
102
{ACAD_REACTORS
330
47
102
}
330
47
100
AcDbScale
 70
     0
300
1/16" = 1'-0"
140
0.0625
141
12.0
290
     0
  0
SCALE
  5
5D
102
{ACAD_REACTORS
330
47
102
}
330
47
100
AcDbScale
 70
     0
300
3/32" = 1'-0"
140
0.09375
141
12.0
290
     0
  0
SCALE
  5
5E
102
{ACAD_REACTORS
330
47
102
}
330
47
100
AcDbScale
 70
     0
300
1/8" = 1'-0"
140
0.125
141
12.0
290
     0
  0
SCALE
  5
5F
102
{ACAD_REACTORS
330
47
102
}
330
47
100
AcDbScale
 70
     0
300
3/16" = 1'-0"
140
0.1875
141
12.0
290
     0
  0
SCALE
  5
60
102
{ACAD_REACTORS
330
47
102
}
330
47
100
AcDbScale
 70
     0
300
1/4" = 1'-0"
140
0.25
141
12.0
290
     0
  0
SCALE
  5
61
102
{ACAD_REACTORS
330
47
102
}
330
47
100
AcDbScale
 70
     0
300
3/8" = 1'-0"
140
0.375
141
12.0
290
     0
  0
SCALE
  5
62
102
{ACAD_REACTORS
330
47
102
}
330
47
100
AcDbScale
 70
     0
300
1/2" = 1'-0"
140
0.5
141
12.0
290
     0
  0
SCALE
  5
63
102
{ACAD_REACTORS
330
47
102
}
330
47
100
AcDbScale
 70
     0
300
3/4" = 1'-0"
140
0.75
141
12.0
290
     0
  0
SCALE
  5
64
102
{ACAD_REACTORS
330
47
102
}
330
47
100
AcDbScale
 70
     0
300
1" = 1'-0"
140
1.0
141
12.0
290
     0
  0
SCALE
  5
65
102
{ACAD_REACTORS
330
47
102
}
330
47
100
AcDbScale
 70
     0
300
1-1/2" = 1'-0"
140
1.5
141
12.0
290
     0
  0
SCALE
  5
66
102
{ACAD_REACTORS
330
47
102
}
330
47
100
AcDbScale
 70
     0
300
3" = 1'-0"
140
3.0
141
12.0
290
     0
  0
SCALE
  5
67
102
{ACAD_REACTORS
330
47
102
}
330
47
100
AcDbScale
 70
     0
300
6" = 1'-0"
140
6.0
141
12.0
290
     0
  0
SCALE
  5
68
102
{ACAD_REACTORS
330
47
102
}
330
47
100
AcDbScale
 70
     0
300
1'-0" = 1'-0"
140
12.0
141
12.0
290
     0
  0
TABLESTYLE
  5
6A
102
{ACAD_REACTORS
330
69
102
}
102
{ACAD_XDICTIONARY
360
207
102
}
330
69
100
AcDbTableStyle
  3
Standard
 70
     0
 71
     0
 40
0.06
 41
0.06
280
     0
281
     0
  7
Standard
140
4.5
170
     2
 62
     0
 63
   257
283
     0
 90
        4
 91
        0
  1

274
    -2
284
     1
 64
     0
275
    -2
285
     1
 65
     0
276
    -2
286
     1
 66
     0
277
    -2
287
     1
 67
     0
278
    -2
288
     1
 68
     0
279
    -2
289
     1
 69
     0
  7
Standard
140
6.0
170
     5
 62
     0
 63
   257
283
     0
 90
        4
 91
        0
  1

274
    -2
284
     1
 64
     0
275
    -2
285
     1
 65
     0
276
    -2
286
     1
 66
     0
277
    -2
287
     1
 67
     0
278
    -2
288
     1
 68
     0
279
    -2
289
     1
 69
     0
  7
Standard
140
4.5
170
     5
 62
     0
 63
   257
283
     0
 90
        4
 91
        0
  1

274
    -2
284
     1
 64
     0
275
    -2
285
     1
 65
     0
276
    -2
286
     1
 66
     0
277
    -2
287
     1
 67
     0
278
    -2
288
     1
 68
     0
279
    -2
289
     1
 69
     0
  0
VISUALSTYLE
  5
2F
102
{ACAD_REACTORS
330
2A
102
}
330
2A
100
AcDbVisualStyle
  2
2dWireframe
 70
     4
177
     3
291
     0
 70
    58
 90
        0
176
     1
 90
        2
176
     1
 90
        0
176
     1
 90
        0
176
     1
 40
0.6
176
     1
 40
30.0
176
     1
 62
     7
420
 16777215
176
     1
 90
        1
176
     1
 90
        4
176
     1
 62
     7
176
     1
 62
   257
176
     1
 90
        1
176
     1
 90
        1
176
     1
 40
1.0
176
     1
 90
        0
176
     1
 62
   257
176
     1
 40
1.0
176
     1
 90
        1
176
     1
 90
        6
176
     1
 90
        2
176
     1
 62
     7
176
     1
 90
        5
176
     1
 90
        0
176
     1
 90
        0
176
     1
290
     0
176
     1
 90
        1
176
     1
 40
0.0
176
     1
 90
        0
176
     1
290
     1
176
     1
290
     1
176
     1
290
     0
176
     1
290
     0
176
     1
290
     0
176
     1
290
     0
176
     1
290
     0
176
     1
290
     0
176
     1
290
     0
176
     1
 90
       50
176
     1
 40
0.0
176
     1
 40
1.0
176
     1
 90
        0
176
     1
 62
    18
420
        0
176
     1
 90
       50
176
     1
 90
        3
176
     1
 62
     5
420
      255
176
     1
290
     0
176
     1
 90
       50
176
     1
 90
       50
176
     1
 90
       50
176
     1
290
     0
176
     1
 90
       50
176
     1
 62
   256
176
     0
 40
1.0
176
     0
 90
        2
176
     1
  1
strokes_ogs.tif
176
     1
290
     0
176
     1
 40
1.0
176
     1
 40
1.0
176
     1
  0
VISUALSTYLE
  5
32
102
{ACAD_REACTORS
330
2A
102
}
330
2A
100
AcDbVisualStyle
  2
Basic
 70
     7
177
     3
291
     1
 70
    58
 90
        1
176
     1
 90
        0
176
     1
 90
        1
176
     1
 90
        0
176
     1
 40
0.6
176
     1
 40
30.0
176
     1
 62
     7
420
 16777215
176
     1
 90
        0
176
     1
 90
        4
176
     1
 62
     7
176
     1
 62
   257
176
     1
 90
        1
176
     1
 90
        1
176
     1
 40
1.0
176
     1
 90
        8
176
     1
 62
     7
176
     1
 40
1.0
176
     1
 90
        1
176
     1
 90
        6
176
     1
 90
        2
176
     1
 62
     7
176
     1
 90
        5
176
     1
 90
        0
176
     1
 90
        0
176
     1
290
     0
176
     1
 90
        1
176
     1
 40
0.0
176
     1
 90
        0
176
     1
290
     0
176
     1
290
     1
176
     1
290
     1
176
     1
290
     0
176
     1
290
     0
176
     1
290
     0
176
     1
290
     0
176
     1
290
     0
176
     1
290
     0
176
     1
 90
       50
176
     1
 40
0.0
176
     1
 40
1.0
176
     1
 90
        0
176
     1
 62
    18
420
        0
176
     1
 90
       50
176
     1
 90
        3
176
     1
 62
     5
420
      255
176
     1
290
     0
176
     1
 90
       50
176
     1
 90
       50
176
     1
 90
       50
176
     1
290
     0
176
     1
 90
       50
176
     1
 62
   256
176
     0
 40
1.0
176
     0
 90
        2
176
     1
  1
strokes_ogs.tif
176
     1
290
     0
176
     1
 40
1.0
176
     1
 40
1.0
176
     1
  0
VISUALSTYLE
  5
36
102
{ACAD_REACTORS
330
2A
102
}
330
2A
100
AcDbVisualStyle
  2
Brighten
 70
    12
177
     3
291
     1
 70
    58
 90
        2
176
     1
 90
        2
176
     1
 90
        0
176
     1
 90
        0
176
     1
 40
0.6
176
     1
 40
30.0
176
     1
 62
     7
420
 16777215
176
     1
 90
        1
176
     1
 90
        4
176
     1
 62
     7
176
     1
 62
   257
176
     1
 90
        1
176
     1
 90
        1
176
     1
 40
1.0
176
     1
 90
        8
176
     1
 62
     7
176
     1
 40
1.0
176
     1
 90
        1
176
     1
 90
        6
176
     1
 90
        2
176
     1
 62
     7
176
     1
 90
        5
176
     1
 90
        0
176
     1
 90
        0
176
     1
290
     0
176
     1
 90
        1
176
     1
 40
50.0
176
     1
 90
        0
176
     1
290
     0
176
     1
290
     1
176
     1
290
     1
176
     1
290
     0
176
     1
290
     0
176
     1
290
     0
176
     1
290
     0
176
     1
290
     0
176
     1
290
     0
176
     1
 90
       50
176
     1
 40
0.0
176
     1
 40
1.0
176
     1
 90
        0
176
     1
 62
    18
420
        0
176
     1
 90
       50
176
     1
 90
        3
176
     1
 62
     5
420
      255
176
     1
290
     0
176
     1
 90
       50
176
     1
 90
       50
176
     1
 90
       50
176
     1
290
     0
176
     1
 90
       50
176
     1
 62
   256
176
     0
 40
1.0
176
     0
 90
        2
176
     1
  1
strokes_ogs.tif
176
     1
290
     0
176
     1
 40
1.0
176
     1
 40
1.0
176
     1
  0
VISUALSTYLE
  5
3A
102
{ACAD_REACTORS
330
2A
102
}
330
2A
100
AcDbVisualStyle
  2
ColorChange
 70
    16
177
     3
291
     1
 70
    58
 90
        2
176
     1
 90
        2
176
     1
 90
        3
176
     1
 90
        0
176
     1
 40
0.6
176
     1
 40
30.0
176
     1
 62
     8
420
  8421504
176
     1
 90
        1
176
     1
 90
        4
176
     1
 62
     7
176
     1
 62
   257
176
     1
 90
        1
176
     1
 90
        1
176
     1
 40
1.0
176
     1
 90
        8
176
     1
 62
     8
420
  8421504
176
     1
 40
1.0
176
     1
 90
        1
176
     1
 90
        6
176
     1
 90
        2
176
     1
 62
     7
176
     1
 90
        5
176
     1
 90
        0
176
     1
 90
        0
176
     1
290
     0
176
     1
 90
        1
176
     1
 40
0.0
176
     1
 90
        0
176
     1
290
     0
176
     1
290
     1
176
     1
290
     1
176
     1
290
     0
176
     1
290
     0
176
     1
290
     0
176
     1
290
     0
176
     1
290
     0
176
     1
290
     0
176
     1
 90
       50
176
     1
 40
0.0
176
     1
 40
1.0
176
     1
 90
        0
176
     1
 62
    18
420
        0
176
     1
 90
       50
176
     1
 90
        3
176
     1
 62
     5
420
      255
176
     1
290
     0
176
     1
 90
       50
176
     1
 90
       50
176
     1
 90
       50
176
     1
290
     0
176
     1
 90
       50
176
     1
 62
   256
176
     0
 40
1.0
176
     0
 90
        2
176
     1
  1
strokes_ogs.tif
176
     1
290
     0
176
     1
 40
1.0
176
     1
 40
1.0
176
     1
  0
VISUALSTYLE
  5
34
102
{ACAD_REACTORS
330
2A
102
}
330
2A
100
AcDbVisualStyle
  2
Conceptual
 70
     9
177
     3
291
     0
 70
    58
 90
        3
176
     1
 90
        2
176
     1
 90
        0
176
     1
 90
        0
176
     1
 40
0.6
176
     1
 40
30.0
176
     1
 62
     7
420
 16777215
176
     1
 90
        2
176
     1
 90
        2
176
     1
 62
     7
176
     1
 62
   257
176
     1
 90
        1
176
     1
 90
        1
176
     1
 40
179.0
176
     1
 90
        8
176
     1
 62
     7
176
     1
 40
1.0
176
     1
 90
        1
176
     1
 90
        6
176
     1
 90
        2
176
     1
 62
     7
176
     1
 90
        3
176
     1
 90
        0
176
     1
 90
        0
176
     1
290
     0
176
     1
 90
        1
176
     1
 40
0.0
176
     1
 90
        0
176
     1
290
     0
176
     1
290
     1
176
     1
290
     1
176
     1
290
     0
176
     1
290
     0
176
     1
290
     0
176
     1
290
     0
176
     1
290
     0
176
     1
290
     0
176
     1
 90
       50
176
     1
 40
0.0
176
     1
 40
1.0
176
     1
 90
        0
176
     1
 62
    18
420
        0
176
     1
 90
       50
176
     1
 90
        3
176
     1
 62
     5
420
      255
176
     1
290
     0
176
     1
 90
       50
176
     1
 90
       50
176
     1
 90
       50
176
     1
290
     0
176
     1
 90
       50
176
     1
 62
   256
176
     0
 40
1.0
176
     0
 90
        2
176
     1
  1
strokes_ogs.tif
176
     1
290
     0
176
     1
 40
1.0
176
     1
 40
1.0
176
     1
  0
VISUALSTYLE
  5
35
102
{ACAD_REACTORS
330
2A
102
}
330
2A
100
AcDbVisualStyle
  2
Dim
 70
    11
177
     3
291
     1
 70
    58
 90
        2
176
     1
 90
        2
176
     1
 90
        0
176
     1
 90
        0
176
     1
 40
0.6
176
     1
 40
30.0
176
     1
 62
     7
420
 16777215
176
     1
 90
        1
176
     1
 90
        4
176
     1
 62
     7
176
     1
 62
   257
176
     1
 90
        1
176
     1
 90
        1
176
     1
 40
1.0
176
     1
 90
        8
176
     1
 62
     7
176
     1
 40
1.0
176
     1
 90
        1
176
     1
 90
        6
176
     1
 90
        2
176
     1
 62
     7
176
     1
 90
        5
176
     1
 90
        0
176
     1
 90
        0
176
     1
290
     0
176
     1
 90
        1
176
     1
 40
-50.0
176
     1
 90
        0
176
     1
290
     0
176
     1
290
     1
176
     1
290
     1
176
     1
290
     0
176
     1
290
     0
176
     1
290
     0
176
     1
290
     0
176
     1
290
     0
176
     1
290
     0
176
     1
 90
       50
176
     1
 40
0.0
176
     1
 40
1.0
176
     1
 90
        0
176
     1
 62
    18
420
        0
176
     1
 90
       50
176
     1
 90
        3
176
     1
 62
     5
420
      255
176
     1
290
     0
176
     1
 90
       50
176
     1
 90
       50
176
     1
 90
       50
176
     1
290
     0
176
     1
 90
       50
176
     1
 62
   256
176
     0
 40
1.0
176
     0
 90
        2
176
     1
  1
strokes_ogs.tif
176
     1
290
     0
176
     1
 40
1.0
176
     1
 40
1.0
176
     1
  0
VISUALSTYLE
  5
3D
102
{ACAD_REACTORS
330
2A
102
}
330
2A
100
AcDbVisualStyle
  2
EdgeColorOff
 70
    22
177
     3
291
     1
 70
    58
 90
        2
176
     0
 90
        2
176
     0
 90
        0
176
     0
 90
        0
176
     0
 40
0.6
176
     0
 40
30.0
176
     0
 62
     7
420
 16777215
176
     0
 90
        1
176
     0
 90
        4
176
     0
 62
     7
176
     0
 62
   257
176
     0
 90
        1
176
     0
 90
        1
176
     0
 40
1.0
176
     0
 90
        8
176
     2
 62
     7
176
     0
 40
1.0
176
     0
 90
        1
176
     0
 90
        6
176
     0
 90
        2
176
     0
 62
     7
176
     0
 90
        5
176
     0
 90
        0
176
     0
 90
        0
176
     0
290
     0
176
     0
 90
        1
176
     0
 40
0.0
176
     0
 90
        0
176
     0
290
     0
176
     0
290
     1
176
     0
290
     1
176
     0
290
     0
176
     0
290
     0
176
     0
290
     0
176
     0
290
     0
176
     0
290
     0
176
     0
290
     0
176
     0
 90
       50
176
     0
 40
0.0
176
     0
 40
1.0
176
     0
 90
        0
176
     0
 62
    18
420
        0
176
     0
 90
       50
176
     0
 90
        3
176
     0
 62
     5
420
      255
176
     0
290
     0
176
     0
 90
       50
176
     0
 90
       50
176
     0
 90
       50
176
     0
290
     0
176
     0
 90
       50
176
     0
 62
   256
176
     0
 40
1.0
176
     0
 90
        2
176
     0
  1
strokes_ogs.tif
176
     0
290
     0
176
     0
 40
1.0
176
     0
 40
1.0
176
     0
  0
VISUALSTYLE
  5
39
102
{ACAD_REACTORS
330
2A
102
}
330
2A
100
AcDbVisualStyle
  2
Facepattern
 70
    15
177
     3
291
     1
 70
    58
 90
        2
176
     1
 90
        2
176
     1
 90
        0
176
     1
 90
        0
176
     1
 40
0.6
176
     1
 40
30.0
176
     1
 62
     7
420
 16777215
176
     1
 90
        1
176
     1
 90
        4
176
     1
 62
     7
176
     1
 62
   257
176
     1
 90
        1
176
     1
 90
        1
176
     1
 40
1.0
176
     1
 90
        8
176
     1
 62
     7
176
     1
 40
1.0
176
     1
 90
        1
176
     1
 90
        6
176
     1
 90
        2
176
     1
 62
     7
176
     1
 90
        5
176
     1
 90
        0
176
     1
 90
        0
176
     1
290
     0
176
     1
 90
        1
176
     1
 40
0.0
176
     1
 90
        0
176
     1
290
     0
176
     1
290
     1
176
     1
290
     1
176
     1
290
     0
176
     1
290
     0
176
     1
290
     0
176
     1
290
     0
176
     1
290
     0
176
     1
290
     0
176
     1
 90
       50
176
     1
 40
0.0
176
     1
 40
1.0
176
     1
 90
        0
176
     1
 62
    18
420
        0
176
     1
 90
       50
176
     1
 90
        3
176
     1
 62
     5
420
      255
176
     1
290
     0
176
     1
 90
       50
176
     1
 90
       50
176
     1
 90
       50
176
     1
290
     0
176
     1
 90
       50
176
     1
 62
   256
176
     0
 40
1.0
176
     0
 90
        2
176
     1
  1
strokes_ogs.tif
176
     1
290
     0
176
     1
 40
1.0
176
     1
 40
1.0
176
     1
  0
VISUALSTYLE
  5
2B
102
{ACAD_REACTORS
330
2A
102
}
330
2A
100
AcDbVisualStyle
  2
Flat
 70
     0
177
     3
291
     1
 70
    58
 90
        2
176
     1
 90
        1
176
     1
 90
        1
176
     1
 90
        2
176
     1
 40
0.6
176
     1
 40
30.0
176
     1
 62
     7
420
 16777215
176
     1
 90
        0
176
     1
 90
        0
176
     1
 62
     7
176
     1
 62
   257
176
     1
 90
        1
176
     1
 90
        1
176
     1
 40
1.0
176
     1
 90
        8
176
     1
 62
     7
176
     1
 40
1.0
176
     1
 90
        1
176
     1
 90
        6
176
     1
 90
        2
176
     1
 62
     7
176
     1
 90
        5
176
     1
 90
        0
176
     1
 90
        0
176
     1
290
     0
176
     1
 90
       13
176
     1
 40
0.0
176
     1
 90
        0
176
     1
290
     0
176
     1
290
     1
176
     1
290
     1
176
     1
290
     0
176
     1
290
     0
176
     1
290
     0
176
     1
290
     0
176
     1
290
     0
176
     1
290
     0
176
     1
 90
       50
176
     1
 40
0.0
176
     1
 40
1.0
176
     1
 90
        0
176
     1
 62
    18
420
        0
176
     1
 90
       50
176
     1
 90
        3
176
     1
 62
     5
420
      255
176
     1
290
     0
176
     1
 90
       50
176
     1
 90
       50
176
     1
 90
       50
176
     1
290
     0
176
     1
 90
       50
176
     1
 62
   256
176
     0
 40
1.0
176
     0
 90
        2
176
     1
  1
strokes_ogs.tif
176
     1
290
     0
176
     1
 40
1.0
176
     1
 40
1.0
176
     1
  0
VISUALSTYLE
  5
2C
102
{ACAD_REACTORS
330
2A
102
}
330
2A
100
AcDbVisualStyle
  2
FlatWithEdges
 70
     1
177
     3
291
     1
 70
    58
 90
        2
176
     1
 90
        1
176
     1
 90
        1
176
     1
 90
        2
176
     1
 40
0.6
176
     1
 40
30.0
176
     1
 62
     7
420
 16777215
176
     1
 90
        1
176
     1
 90
        0
176
     1
 62
     7
176
     1
 62
   257
176
     1
 90
        1
176
     1
 90
        1
176
     1
 40
1.0
176
     1
 90
        0
176
     1
 62
   257
176
     1
 40
1.0
176
     1
 90
        1
176
     1
 90
        6
176
     1
 90
        2
176
     1
 62
     7
176
     1
 90
        5
176
     1
 90
        0
176
     1
 90
        0
176
     1
290
     0
176
     1
 90
       13
176
     1
 40
0.0
176
     1
 90
        0
176
     1
290
     0
176
     1
290
     1
176
     1
290
     1
176
     1
290
     0
176
     1
290
     0
176
     1
290
     0
176
     1
290
     0
176
     1
290
     0
176
     1
290
     0
176
     1
 90
       50
176
     1
 40
0.0
176
     1
 40
1.0
176
     1
 90
        0
176
     1
 62
    18
420
        0
176
     1
 90
       50
176
     1
 90
        3
176
     1
 62
     5
420
      255
176
     1
290
     0
176
     1
 90
       50
176
     1
 90
       50
176
     1
 90
       50
176
     1
290
     0
176
     1
 90
       50
176
     1
 62
   256
176
     0
 40
1.0
176
     0
 90
        2
176
     1
  1
strokes_ogs.tif
176
     1
290
     0
176
     1
 40
1.0
176
     1
 40
1.0
176
     1
  0
VISUALSTYLE
  5
2D
102
{ACAD_REACTORS
330
2A
102
}
330
2A
100
AcDbVisualStyle
  2
Gouraud
 70
     2
177
     3
291
     1
 70
    58
 90
        2
176
     1
 90
        2
176
     1
 90
        1
176
     1
 90
        2
176
     1
 40
0.6
176
     1
 40
30.0
176
     1
 62
     7
420
 16777215
176
     1
 90
        0
176
     1
 90
        0
176
     1
 62
     7
176
     1
 62
   257
176
     1
 90
        1
176
     1
 90
        1
176
     1
 40
1.0
176
     1
 90
        0
176
     1
 62
     7
176
     1
 40
1.0
176
     1
 90
        1
176
     1
 90
        6
176
     1
 90
        2
176
     1
 62
     7
176
     1
 90
        5
176
     1
 90
        0
176
     1
 90
        0
176
     1
290
     0
176
     1
 90
       13
176
     1
 40
0.0
176
     1
 90
        0
176
     1
290
     0
176
     1
290
     1
176
     1
290
     1
176
     1
290
     0
176
     1
290
     0
176
     1
290
     0
176
     1
290
     0
176
     1
290
     0
176
     1
290
     0
176
     1
 90
       50
176
     1
 40
0.0
176
     1
 40
1.0
176
     1
 90
        0
176
     1
 62
    18
420
        0
176
     1
 90
       50
176
     1
 90
        3
176
     1
 62
     5
420
      255
176
     1
290
     0
176
     1
 90
       50
176
     1
 90
       50
176
     1
 90
       50
176
     1
290
     0
176
     1
 90
       50
176
     1
 62
   256
176
     0
 40
1.0
176
     0
 90
        2
176
     1
  1
strokes_ogs.tif
176
     1
290
     0
176
     1
 40
1.0
176
     1
 40
1.0
176
     1
  0
VISUALSTYLE
  5
2E
102
{ACAD_REACTORS
330
2A
102
}
330
2A
100
AcDbVisualStyle
  2
GouraudWithEdges
 70
     3
177
     3
291
     1
 70
    58
 90
        2
176
     1
 90
        2
176
     1
 90
        1
176
     1
 90
        2
176
     1
 40
0.6
176
     1
 40
30.0
176
     1
 62
     7
420
 16777215
176
     1
 90
        1
176
     1
 90
        0
176
     1
 62
     7
176
     1
 62
   257
176
     1
 90
        1
176
     1
 90
        1
176
     1
 40
1.0
176
     1
 90
        0
176
     1
 62
   257
176
     1
 40
1.0
176
     1
 90
        1
176
     1
 90
        6
176
     1
 90
        2
176
     1
 62
     7
176
     1
 90
        5
176
     1
 90
        0
176
     1
 90
        0
176
     1
290
     0
176
     1
 90
       13
176
     1
 40
0.0
176
     1
 90
        0
176
     1
290
     0
176
     1
290
     1
176
     1
290
     1
176
     1
290
     0
176
     1
290
     0
176
     1
290
     0
176
     1
290
     0
176
     1
290
     0
176
     1
290
     0
176
     1
 90
       50
176
     1
 40
0.0
176
     1
 40
1.0
176
     1
 90
        0
176
     1
 62
    18
420
        0
176
     1
 90
       50
176
     1
 90
        3
176
     1
 62
     5
420
      255
176
     1
290
     0
176
     1
 90
       50
176
     1
 90
       50
176
     1
 90
       50
176
     1
290
     0
176
     1
 90
       50
176
     1
 62
   256
176
     0
 40
1.0
176
     0
 90
        2
176
     1
  1
strokes_ogs.tif
176
     1
290
     0
176
     1
 40
1.0
176
     1
 40
1.0
176
     1
  0
VISUALSTYLE
  5
31
102
{ACAD_REACTORS
330
2A
102
}
330
2A
100
AcDbVisualStyle
  2
Hidden
 70
     6
177
     3
291
     0
 70
    58
 90
        1
176
     1
 90
        2
176
     1
 90
        2
176
     1
 90
        0
176
     1
 40
0.6
176
     1
 40
30.0
176
     1
 62
     7
420
 16777215
176
     1
 90
        2
176
     1
 90
        2
176
     1
 62
     7
176
     1
 62
   257
176
     1
 90
        2
176
     1
 90
        1
176
     1
 40
40.0
176
     1
 90
        0
176
     1
 62
   257
176
     1
 40
1.0
176
     1
 90
        1
176
     1
 90
        6
176
     1
 90
        2
176
     1
 62
     7
176
     1
 90
        3
176
     1
 90
        0
176
     1
 90
        0
176
     1
290
     0
176
     1
 90
        1
176
     1
 40
0.0
176
     1
 90
        0
176
     1
290
     0
176
     1
290
     1
176
     1
290
     1
176
     1
290
     0
176
     1
290
     0
176
     1
290
     0
176
     1
290
     0
176
     1
290
     0
176
     1
290
     0
176
     1
 90
       50
176
     1
 40
0.0
176
     1
 40
1.0
176
     1
 90
        0
176
     1
 62
    18
420
        0
176
     1
 90
       50
176
     1
 90
        3
176
     1
 62
     5
420
      255
176
     1
290
     0
176
     1
 90
       50
176
     1
 90
       50
176
     1
 90
       50
176
     1
290
     0
176
     1
 90
       50
176
     1
 62
   256
176
     0
 40
1.0
176
     0
 90
        2
176
     1
  1
strokes_ogs.tif
176
     1
290
     0
176
     1
 40
1.0
176
     1
 40
1.0
176
     1
  0
VISUALSTYLE
  5
3B
102
{ACAD_REACTORS
330
2A
102
}
330
2A
100
AcDbVisualStyle
  2
JitterOff
 70
    20
177
     3
291
     1
 70
    58
 90
        2
176
     0
 90
        2
176
     0
 90
        0
176
     0
 90
        0
176
     0
 40
0.6
176
     0
 40
30.0
176
     0
 62
     7
420
 16777215
176
     0
 90
        1
176
     0
 90
        4
176
     0
 62
     7
176
     0
 62
   257
176
     0
 90
        1
176
     0
 90
        1
176
     0
 40
1.0
176
     0
 90
       10
176
     2
 62
     7
176
     0
 40
1.0
176
     0
 90
        1
176
     0
 90
        6
176
     0
 90
        2
176
     0
 62
     7
176
     0
 90
        5
176
     0
 90
        0
176
     0
 90
        0
176
     0
290
     0
176
     0
 90
        1
176
     0
 40
0.0
176
     0
 90
        0
176
     0
290
     0
176
     0
290
     1
176
     0
290
     1
176
     0
290
     0
176
     0
290
     0
176
     0
290
     0
176
     0
290
     0
176
     0
290
     0
176
     0
290
     0
176
     0
 90
       50
176
     0
 40
0.0
176
     0
 40
1.0
176
     0
 90
        0
176
     0
 62
    18
420
        0
176
     0
 90
       50
176
     0
 90
        3
176
     0
 62
     5
420
      255
176
     0
290
     0
176
     0
 90
       50
176
     0
 90
       50
176
     0
 90
       50
176
     0
290
     0
176
     0
 90
       50
176
     0
 62
   256
176
     0
 40
1.0
176
     0
 90
        2
176
     0
  1
strokes_ogs.tif
176
     0
290
     0
176
     0
 40
1.0
176
     0
 40
1.0
176
     0
  0
VISUALSTYLE
  5
38
102
{ACAD_REACTORS
330
2A
102
}
330
2A
100
AcDbVisualStyle
  2
Linepattern
 70
    14
177
     3
291
     1
 70
    58
 90
        2
176
     1
 90
        2
176
     1
 90
        0
176
     1
 90
        0
176
     1
 40
0.6
176
     1
 40
30.0
176
     1
 62
     7
420
 16777215
176
     1
 90
        1
176
     1
 90
        4
176
     1
 62
     7
176
     1
 62
   257
176
     1
 90
        7
176
     1
 90
        7
176
     1
 40
1.0
176
     1
 90
        8
176
     1
 62
     7
176
     1
 40
1.0
176
     1
 90
        1
176
     1
 90
        6
176
     1
 90
        2
176
     1
 62
     7
176
     1
 90
        5
176
     1
 90
        0
176
     1
 90
        0
176
     1
290
     0
176
     1
 90
        1
176
     1
 40
0.0
176
     1
 90
        0
176
     1
290
     0
176
     1
290
     1
176
     1
290
     1
176
     1
290
     0
176
     1
290
     0
176
     1
290
     0
176
     1
290
     0
176
     1
290
     0
176
     1
290
     0
176
     1
 90
       50
176
     1
 40
0.0
176
     1
 40
1.0
176
     1
 90
        0
176
     1
 62
    18
420
        0
176
     1
 90
       50
176
     1
 90
        3
176
     1
 62
     5
420
      255
176
     1
290
     0
176
     1
 90
       50
176
     1
 90
       50
176
     1
 90
       50
176
     1
290
     0
176
     1
 90
       50
176
     1
 62
   256
176
     0
 40
1.0
176
     0
 90
        2
176
     1
  1
strokes_ogs.tif
176
     1
290
     0
176
     1
 40
1.0
176
     1
 40
1.0
176
     1
  0
VISUALSTYLE
  5
3C
102
{ACAD_REACTORS
330
2A
102
}
330
2A
100
AcDbVisualStyle
  2
OverhangOff
 70
    21
177
     3
291
     1
 70
    58
 90
        2
176
     0
 90
        2
176
     0
 90
        0
176
     0
 90
        0
176
     0
 40
0.6
176
     0
 40
30.0
176
     0
 62
     7
420
 16777215
176
     0
 90
        1
176
     0
 90
        4
176
     0
 62
     7
176
     0
 62
   257
176
     0
 90
        1
176
     0
 90
        1
176
     0
 40
1.0
176
     0
 90
        9
176
     2
 62
     7
176
     0
 40
1.0
176
     0
 90
        1
176
     0
 90
        6
176
     0
 90
        2
176
     0
 62
     7
176
     0
 90
        5
176
     0
 90
        0
176
     0
 90
        0
176
     0
290
     0
176
     0
 90
        1
176
     0
 40
0.0
176
     0
 90
        0
176
     0
290
     0
176
     0
290
     1
176
     0
290
     1
176
     0
290
     0
176
     0
290
     0
176
     0
290
     0
176
     0
290
     0
176
     0
290
     0
176
     0
290
     0
176
     0
 90
       50
176
     0
 40
0.0
176
     0
 40
1.0
176
     0
 90
        0
176
     0
 62
    18
420
        0
176
     0
 90
       50
176
     0
 90
        3
176
     0
 62
     5
420
      255
176
     0
290
     0
176
     0
 90
       50
176
     0
 90
       50
176
     0
 90
       50
176
     0
290
     0
176
     0
 90
       50
176
     0
 62
   256
176
     0
 40
1.0
176
     0
 90
        2
176
     0
  1
strokes_ogs.tif
176
     0
290
     0
176
     0
 40
1.0
176
     0
 40
1.0
176
     0
  0
VISUALSTYLE
  5
33
102
{ACAD_REACTORS
330
2A
102
}
330
2A
100
AcDbVisualStyle
  2
Realistic
 70
     8
177
     3
291
     0
 70
    58
 90
        2
176
     1
 90
        3
176
     1
 90
        0
176
     1
 90
        2
176
     1
 40
0.6
176
     1
 40
30.0
176
     1
 62
     7
420
 16777215
176
     1
 90
        0
176
     1
 90
        0
176
     1
 62
     7
176
     1
 62
   257
176
     1
 90
        1
176
     1
 90
        1
176
     1
 40
1.0
176
     1
 90
        8
176
     1
 62
   257
176
     1
 40
1.0
176
     1
 90
        1
176
     1
 90
        6
176
     1
 90
        2
176
     1
 62
     7
176
     1
 90
        3
176
     1
 90
        0
176
     1
 90
        0
176
     1
290
     0
176
     1
 90
       13
176
     1
 40
0.0
176
     1
 90
        0
176
     1
290
     0
176
     1
290
     1
176
     1
290
     1
176
     1
290
     0
176
     1
290
     0
176
     1
290
     0
176
     1
290
     0
176
     1
290
     0
176
     1
290
     0
176
     1
 90
       50
176
     1
 40
0.0
176
     1
 40
1.0
176
     1
 90
        0
176
     1
 62
    18
420
        0
176
     1
 90
       50
176
     1
 90
        3
176
     1
 62
     5
420
      255
176
     1
290
     0
176
     1
 90
       50
176
     1
 90
       50
176
     1
 90
       50
176
     1
290
     0
176
     1
 90
       50
176
     1
 62
   256
176
     0
 40
1.0
176
     0
 90
        2
176
     1
  1
strokes_ogs.tif
176
     1
290
     0
176
     1
 40
1.0
176
     1
 40
1.0
176
     1
  0
VISUALSTYLE
  5
42
102
{ACAD_REACTORS
330
2A
102
}
330
2A
100
AcDbVisualStyle
  2
Shaded
 70
    27
177
     3
291
     0
 70
    58
 90
        2
176
     1
 90
        2
176
     1
 90
        1
176
     1
 90
        2
176
     1
 40
0.6
176
     1
 40
30.0
176
     1
 62
     7
420
 16777215
176
     1
 90
        0
176
     1
 90
        4
176
     1
 62
     7
176
     1
 62
   257
176
     1
 90
        1
176
     1
 90
        1
176
     1
 40
1.0
176
     1
 90
        8
176
     1
 62
   257
176
     1
 40
1.0
176
     1
 90
        1
176
     1
 90
        6
176
     1
 90
        2
176
     1
 62
     8
420
  7895160
176
     1
 90
        3
176
     1
 90
        0
176
     1
 90
        0
176
     1
290
     0
176
     1
 90
        5
176
     1
 40
0.0
176
     1
 90
        0
176
     1
290
     0
176
     1
290
     1
176
     1
290
     1
176
     1
290
     0
176
     1
290
     0
176
     1
290
     0
176
     1
290
     0
176
     1
290
     0
176
     1
290
     0
176
     1
 90
       50
176
     1
 40
0.0
176
     1
 40
1.0
176
     1
 90
        0
176
     1
 62
    18
420
        0
176
     1
 90
       50
176
     1
 90
        3
176
     1
 62
     5
420
      255
176
     1
290
     0
176
     1
 90
       50
176
     1
 90
       50
176
     1
 90
       50
176
     1
290
     0
176
     1
 90
       50
176
     1
 62
   256
176
     0
 40
1.0
176
     0
 90
        2
176
     1
  1
strokes_ogs.tif
176
     1
290
     0
176
     1
 40
1.0
176
     1
 40
1.0
176
     1
  0
VISUALSTYLE
  5
41
102
{ACAD_REACTORS
330
2A
102
}
330
2A
100
AcDbVisualStyle
  2
Shaded with edges
 70
    26
177
     3
291
     0
 70
    58
 90
        2
176
     1
 90
        2
176
     1
 90
        1
176
     1
 90
        2
176
     1
 40
0.6
176
     1
 40
30.0
176
     1
 62
     7
420
 16777215
176
     1
 90
        1
176
     1
 90
       10
176
     1
 62
     7
176
     1
 62
   257
176
     1
 90
        2
176
     1
 90
        1
176
     1
 40
1.0
176
     1
 90
        8
176
     1
 62
   257
176
     1
 40
1.0
176
     1
 90
        1
176
     1
 90
        6
176
     1
 90
        2
176
     1
 62
     7
176
     1
 90
        3
176
     1
 90
        0
176
     1
 90
        0
176
     1
290
     0
176
     1
 90
        5
176
     1
 40
0.0
176
     1
 90
        0
176
     1
290
     0
176
     1
290
     1
176
     1
290
     1
176
     1
290
     0
176
     1
290
     0
176
     1
290
     0
176
     1
290
     0
176
     1
290
     0
176
     1
290
     0
176
     1
 90
       50
176
     1
 40
0.0
176
     1
 40
1.0
176
     1
 90
        0
176
     1
 62
    18
420
        0
176
     1
 90
       50
176
     1
 90
        3
176
     1
 62
     5
420
      255
176
     1
290
     0
176
     1
 90
       50
176
     1
 90
       50
176
     1
 90
       50
176
     1
290
     0
176
     1
 90
       50
176
     1
 62
   256
176
     0
 40
1.0
176
     0
 90
        2
176
     1
  1
strokes_ogs.tif
176
     1
290
     0
176
     1
 40
1.0
176
     1
 40
1.0
176
     1
  0
VISUALSTYLE
  5
3E
102
{ACAD_REACTORS
330
2A
102
}
330
2A
100
AcDbVisualStyle
  2
Shades of Gray
 70
    23
177
     3
291
     0
 70
    58
 90
        2
176
     1
 90
        2
176
     1
 90
        3
176
     1
 90
        0
176
     1
 40
0.6
176
     1
 40
30.0
176
     1
 62
     7
420
 16777215
176
     1
 90
        2
176
     1
 90
        2
176
     1
 62
     7
176
     1
 62
     7
176
     1
 90
        1
176
     1
 90
        1
176
     1
 40
40.0
176
     1
 90
        8
176
     1
 62
     7
176
     1
 40
1.0
176
     1
 90
        1
176
     1
 90
        6
176
     1
 90
        2
176
     1
 62
     7
176
     1
 90
        3
176
     1
 90
        0
176
     1
 90
        0
176
     1
290
     0
176
     1
 90
        1
176
     1
 40
0.0
176
     1
 90
        0
176
     1
290
     0
176
     1
290
     1
176
     1
290
     1
176
     1
290
     0
176
     1
290
     0
176
     1
290
     0
176
     1
290
     0
176
     1
290
     0
176
     1
290
     0
176
     1
 90
       50
176
     1
 40
0.0
176
     1
 40
1.0
176
     1
 90
        0
176
     1
 62
    18
420
        0
176
     1
 90
       50
176
     1
 90
        3
176
     1
 62
     5
420
      255
176
     1
290
     0
176
     1
 90
       50
176
     1
 90
       50
176
     1
 90
       50
176
     1
290
     0
176
     1
 90
       50
176
     1
 62
   256
176
     0
 40
1.0
176
     0
 90
        2
176
     1
  1
strokes_ogs.tif
176
     1
290
     0
176
     1
 40
1.0
176
     1
 40
1.0
176
     1
  0
VISUALSTYLE
  5
3F
102
{ACAD_REACTORS
330
2A
102
}
330
2A
100
AcDbVisualStyle
  2
Sketchy
 70
    24
177
     3
291
     0
 70
    58
 90
        1
176
     1
 90
        2
176
     1
 90
        2
176
     1
 90
        0
176
     1
 40
0.6
176
     1
 40
30.0
176
     1
 62
     7
420
 16777215
176
     1
 90
        2
176
     1
 90
        2
176
     1
 62
     7
176
     1
 62
     7
176
     1
 90
        1
176
     1
 90
        1
176
     1
 40
40.0
176
     1
 90
       11
176
     1
 62
     7
176
     1
 40
1.0
176
     1
 90
        1
176
     1
 90
        6
176
     1
 90
        2
176
     1
 62
     7
176
     1
 90
        6
176
     1
 90
        0
176
     1
 90
        0
176
     1
290
     0
176
     1
 90
        1
176
     1
 40
0.0
176
     1
 90
        0
176
     1
290
     0
176
     1
290
     1
176
     1
290
     1
176
     1
290
     0
176
     1
290
     0
176
     1
290
     0
176
     1
290
     0
176
     1
290
     0
176
     1
290
     0
176
     1
 90
       50
176
     1
 40
0.0
176
     1
 40
1.0
176
     1
 90
        0
176
     1
 62
    18
420
        0
176
     1
 90
       50
176
     1
 90
        3
176
     1
 62
     5
420
      255
176
     1
290
     0
176
     1
 90
       50
176
     1
 90
       50
176
     1
 90
       50
176
     1
290
     0
176
     1
 90
       50
176
     1
 62
   256
176
     0
 40
1.0
176
     0
 90
        2
176
     1
  1
strokes_ogs.tif
176
     1
290
     0
176
     1
 40
1.0
176
     1
 40
1.0
176
     1
  0
VISUALSTYLE
  5
37
102
{ACAD_REACTORS
330
2A
102
}
330
2A
100
AcDbVisualStyle
  2
Thicken
 70
    13
177
     3
291
     1
 70
    58
 90
        2
176
     1
 90
        2
176
     1
 90
        0
176
     1
 90
        0
176
     1
 40
0.6
176
     1
 40
30.0
176
     1
 62
     7
420
 16777215
176
     1
 90
        1
176
     1
 90
        4
176
     1
 62
     7
176
     1
 62
   257
176
     1
 90
        1
176
     1
 90
        1
176
     1
 40
1.0
176
     1
 90
       12
176
     1
 62
     7
176
     1
 40
1.0
176
     1
 90
        1
176
     1
 90
        6
176
     1
 90
        2
176
     1
 62
     7
176
     1
 90
        5
176
     1
 90
        0
176
     1
 90
        0
176
     1
290
     0
176
     1
 90
        1
176
     1
 40
0.0
176
     1
 90
        0
176
     1
290
     0
176
     1
290
     1
176
     1
290
     1
176
     1
290
     0
176
     1
290
     0
176
     1
290
     0
176
     1
290
     0
176
     1
290
     0
176
     1
290
     0
176
     1
 90
       50
176
     1
 40
0.0
176
     1
 40
1.0
176
     1
 90
        0
176
     1
 62
    18
420
        0
176
     1
 90
       50
176
     1
 90
        3
176
     1
 62
     5
420
      255
176
     1
290
     0
176
     1
 90
       50
176
     1
 90
       50
176
     1
 90
       50
176
     1
290
     0
176
     1
 90
       50
176
     1
 62
   256
176
     0
 40
1.0
176
     0
 90
        2
176
     1
  1
strokes_ogs.tif
176
     1
290
     0
176
     1
 40
1.0
176
     1
 40
1.0
176
     1
  0
VISUALSTYLE
  5
30
102
{ACAD_REACTORS
330
2A
102
}
330
2A
100
AcDbVisualStyle
  2
Wireframe
 70
     5
177
     3
291
     0
 70
    58
 90
        0
176
     1
 90
        2
176
     1
 90
        0
176
     1
 90
        0
176
     1
 40
0.6
176
     1
 40
30.0
176
     1
 62
     7
420
 16777215
176
     1
 90
        1
176
     1
 90
        4
176
     1
 62
     7
176
     1
 62
   257
176
     1
 90
        1
176
     1
 90
        1
176
     1
 40
1.0
176
     1
 90
        0
176
     1
 62
   257
176
     1
 40
1.0
176
     1
 90
        1
176
     1
 90
        6
176
     1
 90
        2
176
     1
 62
     7
176
     1
 90
        3
176
     1
 90
        0
176
     1
 90
        0
176
     1
290
     0
176
     1
 90
        1
176
     1
 40
0.0
176
     1
 90
        0
176
     1
290
     0
176
     1
290
     1
176
     1
290
     1
176
     1
290
     0
176
     1
290
     0
176
     1
290
     0
176
     1
290
     0
176
     1
290
     0
176
     1
290
     0
176
     1
 90
       50
176
     1
 40
0.0
176
     1
 40
1.0
176
     1
 90
        0
176
     1
 62
    18
420
        0
176
     1
 90
       50
176
     1
 90
        3
176
     1
 62
     5
420
      255
176
     1
290
     0
176
     1
 90
       50
176
     1
 90
       50
176
     1
 90
       50
176
     1
290
     0
176
     1
 90
       50
176
     1
 62
   256
176
     0
 40
1.0
176
     0
 90
        2
176
     1
  1
strokes_ogs.tif
176
     1
290
     0
176
     1
 40
1.0
176
     1
 40
1.0
176
     1
  0
VISUALSTYLE
  5
40
102
{ACAD_REACTORS
330
2A
102
}
330
2A
100
AcDbVisualStyle
  2
X-Ray
 70
    25
177
     3
291
     0
 70
    58
 90
        2
176
     1
 90
        2
176
     1
 90
        1
176
     1
 90
        1
176
     1
 40
0.5
176
     1
 40
30.0
176
     1
 62
     7
420
 16777215
176
     1
 90
        1
176
     1
 90
        0
176
     1
 62
     7
176
     1
 62
   257
176
     1
 90
        1
176
     1
 90
        1
176
     1
 40
1.0
176
     1
 90
        8
176
     1
 62
     7
176
     1
 40
1.0
176
     1
 90
        1
176
     1
 90
        6
176
     1
 90
        2
176
     1
 62
     7
176
     1
 90
        3
176
     1
 90
        0
176
     1
 90
        0
176
     1
290
     0
176
     1
 90
       13
176
     1
 40
0.0
176
     1
 90
        0
176
     1
290
     0
176
     1
290
     1
176
     1
290
     1
176
     1
290
     0
176
     1
290
     0
176
     1
290
     0
176
     1
290
     0
176
     1
290
     0
176
     1
290
     0
176
     1
 90
       50
176
     1
 40
0.0
176
     1
 40
1.0
176
     1
 90
        0
176
     1
 62
    18
420
        0
176
     1
 90
       50
176
     1
 90
        3
176
     1
 62
     5
420
      255
176
     1
290
     0
176
     1
 90
       50
176
     1
 90
       50
176
     1
 90
       50
176
     1
290
     0
176
     1
 90
       50
176
     1
 62
   256
176
     0
 40
1.0
176
     0
 90
        2
176
     1
  1
strokes_ogs.tif
176
     1
290
     0
176
     1
 40
1.0
176
     1
 40
1.0
176
     1
  0
DICTIONARYVAR
  5
1FC
102
{ACAD_REACTORS
330
1FB
102
}
330
1FB
100
DictionaryVariables
280
     0
  1
1:1
  0
DICTIONARYVAR
  5
201
102
{ACAD_REACTORS
330
1FB
102
}
330
1FB
100
DictionaryVariables
280
     0
  1
Standard
  0
DICTIONARYVAR
  5
200
102
{ACAD_REACTORS
330
1FB
102
}
330
1FB
100
DictionaryVariables
280
     0
  1
Standard
  0
DICTIONARY
  5
207
330
6A
100
AcDbDictionary
280
     1
281
     1
  3
ACAD_ROUNDTRIP_2008_TABLESTYLE_CELLSTYLEMAP
360
208
  0
CELLSTYLEMAP
  5
208
102
{ACAD_REACTORS
330
207
102
}
330
207
100
AcDbCellStyleMap
 90
        3
300
CELLSTYLE
  1
TABLEFORMAT_BEGIN
 90
        5
170
     1
 91
        0
 92
    32768
 62
   257
 93
        1
300
CONTENTFORMAT
  1
CONTENTFORMAT_BEGIN
 90
        0
 91
        0
 92
        4
 93
        0
300

 40
0.0
140
1.0
 94
        5
 62
     0
340
11
144
6.0
309
CONTENTFORMAT_END
171
     1
301
MARGIN
  1
CELLMARGIN_BEGIN
 40
1.5
 40
1.5
 40
1.5
 40
1.5
 40
1.5
 40
1.5
309
CELLMARGIN_END
 94
        6
 95
        1
302
GRIDFORMAT
  1
GRIDFORMAT_BEGIN
 90
        0
 91
        1
 62
     0
 92
       -2
340
14
 93
        0
 40
0.045
309
GRIDFORMAT_END
 95
        2
302
GRIDFORMAT
  1
GRIDFORMAT_BEGIN
 90
        0
 91
        1
 62
     0
 92
       -2
340
14
 93
        0
 40
0.045
309
GRIDFORMAT_END
 95
        4
302
GRIDFORMAT
  1
GRIDFORMAT_BEGIN
 90
        0
 91
        1
 62
     0
 92
       -2
340
14
 93
        0
 40
0.045
309
GRIDFORMAT_END
 95
        8
302
GRIDFORMAT
  1
GRIDFORMAT_BEGIN
 90
        0
 91
        1
 62
     0
 92
       -2
340
14
 93
        0
 40
0.045
309
GRIDFORMAT_END
 95
       16
302
GRIDFORMAT
  1
GRIDFORMAT_BEGIN
 90
        0
 91
        1
 62
     0
 92
       -2
340
14
 93
        0
 40
0.045
309
GRIDFORMAT_END
 95
       32
302
GRIDFORMAT
  1
GRIDFORMAT_BEGIN
 90
        0
 91
        1
 62
     0
 92
       -2
340
14
 93
        0
 40
0.045
309
GRIDFORMAT_END
309
TABLEFORMAT_END
  1
CELLSTYLE_BEGIN
 90
        1
 91
        1
300
_TITLE
309
CELLSTYLE_END
300
CELLSTYLE
  1
TABLEFORMAT_BEGIN
 90
        5
170
     1
 91
        0
 92
        0
 62
   257
 93
        1
300
CONTENTFORMAT
  1
CONTENTFORMAT_BEGIN
 90
        0
 91
        0
 92
        4
 93
        0
300

 40
0.0
140
1.0
 94
        5
 62
     0
340
11
144
4.5
309
CONTENTFORMAT_END
171
     1
301
MARGIN
  1
CELLMARGIN_BEGIN
 40
1.5
 40
1.5
 40
1.5
 40
1.5
 40
1.5
 40
1.5
309
CELLMARGIN_END
 94
        6
 95
        1
302
GRIDFORMAT
  1
GRIDFORMAT_BEGIN
 90
        0
 91
        1
 62
     0
 92
       -2
340
14
 93
        0
 40
0.045
309
GRIDFORMAT_END
 95
        2
302
GRIDFORMAT
  1
GRIDFORMAT_BEGIN
 90
        0
 91
        1
 62
     0
 92
       -2
340
14
 93
        0
 40
0.045
309
GRIDFORMAT_END
 95
        4
302
GRIDFORMAT
  1
GRIDFORMAT_BEGIN
 90
        0
 91
        1
 62
     0
 92
       -2
340
14
 93
        0
 40
0.045
309
GRIDFORMAT_END
 95
        8
302
GRIDFORMAT
  1
GRIDFORMAT_BEGIN
 90
        0
 91
        1
 62
     0
 92
       -2
340
14
 93
        0
 40
0.045
309
GRIDFORMAT_END
 95
       16
302
GRIDFORMAT
  1
GRIDFORMAT_BEGIN
 90
        0
 91
        1
 62
     0
 92
       -2
340
14
 93
        0
 40
0.045
309
GRIDFORMAT_END
 95
       32
302
GRIDFORMAT
  1
GRIDFORMAT_BEGIN
 90
        0
 91
        1
 62
     0
 92
       -2
340
14
 93
        0
 40
0.045
309
GRIDFORMAT_END
309
TABLEFORMAT_END
  1
CELLSTYLE_BEGIN
 90
        2
 91
        1
300
_HEADER
309
CELLSTYLE_END
300
CELLSTYLE
  1
TABLEFORMAT_BEGIN
 90
        5
170
     1
 91
        0
 92
        0
 62
   257
 93
        1
300
CONTENTFORMAT
  1
CONTENTFORMAT_BEGIN
 90
        0
 91
        0
 92
        4
 93
        0
300

 40
0.0
140
1.0
 94
        2
 62
     0
340
11
144
4.5
309
CONTENTFORMAT_END
171
     1
301
MARGIN
  1
CELLMARGIN_BEGIN
 40
1.5
 40
1.5
 40
1.5
 40
1.5
 40
1.5
 40
1.5
309
CELLMARGIN_END
 94
        6
 95
        1
302
GRIDFORMAT
  1
GRIDFORMAT_BEGIN
 90
        0
 91
        1
 62
     0
 92
       -2
340
14
 93
        0
 40
0.045
309
GRIDFORMAT_END
 95
        2
302
GRIDFORMAT
  1
GRIDFORMAT_BEGIN
 90
        0
 91
        1
 62
     0
 92
       -2
340
14
 93
        0
 40
0.045
309
GRIDFORMAT_END
 95
        4
302
GRIDFORMAT
  1
GRIDFORMAT_BEGIN
 90
        0
 91
        1
 62
     0
 92
       -2
340
14
 93
        0
 40
0.045
309
GRIDFORMAT_END
 95
        8
302
GRIDFORMAT
  1
GRIDFORMAT_BEGIN
 90
        0
 91
        1
 62
     0
 92
       -2
340
14
 93
        0
 40
0.045
309
GRIDFORMAT_END
 95
       16
302
GRIDFORMAT
  1
GRIDFORMAT_BEGIN
 90
        0
 91
        1
 62
     0
 92
       -2
340
14
 93
        0
 40
0.045
309
GRIDFORMAT_END
 95
       32
302
GRIDFORMAT
  1
GRIDFORMAT_BEGIN
 90
        0
 91
        1
 62
     0
 92
       -2
340
14
 93
        0
 40
0.045
309
GRIDFORMAT_END
309
TABLEFORMAT_END
  1
CELLSTYLE_BEGIN
 90
        3
 91
        2
300
_DATA
309
CELLSTYLE_END
  0
ENDSEC
  0
EOF
